<?xml version="1.0" encoding="UTF-8" standalone="no"?>
<!DOCTYPE svg PUBLIC "-//W3C//DTD SVG 1.1//EN" "http://www.w3.org/Graphics/SVG/1.1/DTD/svg11.dtd">
<!-- Generated by Microsoft Visio, SVG Export svg_1.svg Process -->
<svg xmlns="http://www.w3.org/2000/svg" xmlns:xlink="http://www.w3.org/1999/xlink" xmlns:ev="http://www.w3.org/2001/xml-events" width="11in" height="8.5in" viewBox="0 0 792 612" xml:space="preserve" color-interpolation-filters="sRGB" class="st11">
	<style type="text/css">
	<![CDATA[
		.st1 {fill:#ffffff;stroke:#dfa202;stroke-linecap:round;stroke-linejoin:round;stroke-width:1}
		.st2 {fill:#7c5b02;font-family:Franklin Gothic Book;font-size:0.666664em}
		.st3 {font-size:1em}
		.st4 {marker-end:url(#mrkr4-15);stroke:#6bae2f;stroke-linecap:round;stroke-linejoin:round;stroke-width:0.5}
		.st5 {fill:#6bae2f;fill-opacity:1;stroke:#6bae2f;stroke-opacity:1;stroke-width:0.16556291390728}
		.st6 {fill:#ffffff;stroke:none;stroke-linecap:butt}
		.st7 {fill:#528722;font-family:Franklin Gothic Book;font-size:0.666664em}
		.st8 {fill:#ffffff;stroke:none;stroke-linecap:butt;stroke-width:7.2}
		.st9 {fill:#9cc882;stroke:#ffffff;stroke-linecap:round;stroke-linejoin:round;stroke-width:1}
		.st10 {fill:#ffffff;font-family:Franklin Gothic Book;font-size:0.666664em}
		.st11 {fill:none;fill-rule:evenodd;font-size:12px;overflow:visible;stroke-linecap:square;stroke-miterlimit:3}
	]]>
	</style>

	<defs id="Markers">
		<g id="lend4">
			<path d="M 2 1 L 0 0 L 2 -1 L 2 1 " style="stroke:none"/>
		</g>
		<marker id="mrkr4-15" class="st5" refX="-12.08" orient="auto" markerUnits="strokeWidth" overflow="visible">
			<use xlink:href="#lend4" transform="scale(-6.04,-6.04) "/>
		</marker>
	</defs>
	<g>
		<title>Acquire Feature Class Schema</title>
		<g id="shape40-1" transform="translate(27.45,-549)">
			<title>Start/End.11</title>
			<desc>Determine the type of Collection</desc>
			<path d="M13.5 612 L58.5 612 A13.5 13.5 -180 0 0 58.5 585 L13.5 585 A13.5 13.5 -180 1 0 13.5 612 Z" class="st1"/>
			<text x="3.69" y="596.1" class="st2">Determine the type <tspan x="15.15" dy="1.2em" class="st3">of Collection</tspan></text>		</g>
		<g id="shape41-5" transform="translate(18,-437.437)">
			<title>Decision.12</title>
			<desc>Are there existing features that need verification?</desc>
			<path d="M0 577.91 L45.45 543.83 L90.9 577.91 L45.45 612 L0 577.91 Z" class="st1"/>
			<text x="16.2" y="570.71" class="st2">Are there existing <tspan x="14.18" dy="1.2em" class="st3">features that need </tspan><tspan x="24.82" dy="1.2em" class="st3">verification?</tspan></text>		</g>
		<g id="shape43-10" transform="translate(54.45,-549)">
			<title>Dynamic connector</title>
			<path d="M9 612 L9 649.35" class="st4"/>
		</g>
		<g id="shape45-16" transform="translate(54.675,-437.437)">
			<title>Dynamic connector.45</title>
			<desc>No</desc>
			<path d="M8.78 612 L8.78 621 L9.22 621 L9.22 629.4" class="st4"/>
			<rect x="4.51797" y="612.385" width="9.41391" height="9.59985" class="st6"/>
			<text x="4.52" y="619.58" class="st7">No</text>		</g>
		<g id="shape49-23" transform="translate(108.9,-471.525)">
			<title>Dynamic connector.49</title>
			<desc>Yes</desc>
			<path d="M0 612 L18 612 L18 541.87 L53.36 541.87" class="st4"/>
			<rect x="13.9341" y="556.067" width="11.957" height="9.59985" class="st8"/>
			<text x="13.93" y="563.27" class="st7">Yes</text>		</g>
		<g id="shape1002-30" transform="translate(18,-268.387)">
			<title>Decision.1002</title>
			<desc>Are there new features that need to be collected?</desc>
			<path d="M0 577.91 L45.45 543.83 L90.9 577.91 L45.45 612 L0 577.91 Z" class="st1"/>
			<text x="22.13" y="570.71" class="st2">Are there new <tspan x="9.87" dy="1.2em" class="st3">features that need to </tspan><tspan x="23" dy="1.2em" class="st3">be collected?</tspan></text>		</g>
		<g id="shape1004-35" transform="translate(168.3,-492.375)">
			<title>Decision.1004</title>
			<desc>Do the features needing verification exist in the MasterGDB?</desc>
			<path d="M0 562.72 L65.7 513.45 L131.4 562.72 L65.7 612 L0 562.72 Z" class="st1"/>
			<text x="24.98" y="555.52" class="st2">Do the features needing <tspan x="27.75" dy="1.2em" class="st3">verification exist in the </tspan><tspan x="44.24" dy="1.2em" class="st3">MasterGDB?</tspan></text>		</g>
		<g id="shape1005-40" transform="translate(299.7,-533.1)">
			<title>Dynamic connector.1005</title>
			<desc>Yes</desc>
			<path d="M0 603.45 L32.4 603.45 L32.4 602.55 L70.76 602.55" class="st4"/>
			<rect x="31.4085" y="599.663" width="11.957" height="9.59985" class="st6"/>
			<text x="31.41" y="606.86" class="st7">Yes</text>		</g>
		<g id="shape1006-47" transform="translate(198,-375.375)">
			<title>Process.15.1006</title>
			<desc>Copy the Source Feature Class from its source location to the...</desc>
			<rect x="0" y="522" width="72" height="90" class="st9"/>
			<text x="8.55" y="535.8" class="st10">Copy the Source <tspan x="4.06" dy="1.2em" class="st3">Feature Class from </tspan><tspan x="5.26" dy="1.2em" class="st3">its source location </tspan><tspan x="10.64" dy="1.2em" class="st3">to the Project</tspan>’s <tspan x="24.13" dy="1.2em" class="st3">default </tspan><tspan x="14.06" dy="1.2em" class="st3">geodatabase  </tspan><tspan x="17.18" dy="2.4em" class="st3">-</tspan> See Video</text>		</g>
		<g id="shape1011-56" transform="translate(27.9,-360)">
			<title>Process.15.1011</title>
			<desc>Choose the target feature class from the MasterGDB</desc>
			<rect x="0" y="558" width="72" height="54" class="st9"/>
			<text x="6.02" y="577.8" class="st10">Choose the target <tspan x="5.35" dy="1.2em" class="st3">feature class from </tspan><tspan x="10.09" dy="1.2em" class="st3">the MasterGDB</tspan></text>		</g>
		<g id="shape1017-61" transform="translate(686.7,-327.712)">
			<title>Process.15.1017</title>
			<desc>Remove any features that do not need verification</desc>
			<rect x="0" y="558" width="72" height="54" class="st9"/>
			<text x="15.31" y="577.8" class="st10">Remove any <tspan x="2.51" dy="1.2em" class="st3">features that do not </tspan><tspan x="7.9" dy="1.2em" class="st3">need verification</tspan></text>		</g>
		<g id="shape1020-66" transform="translate(484.2,-433.95)">
			<title>Process.15.1020</title>
			<desc>Calculate the GlobalIDs into the AssetID field - See Video</desc>
			<rect x="0" y="558" width="72" height="54" class="st9"/>
			<text x="13.8" y="568.2" class="st10">Calculate the <tspan x="5.92" dy="1.2em" class="st3">GlobalIDs into the </tspan><tspan x="14.97" dy="1.2em" class="st3">AssetID field  </tspan><tspan x="17.18" dy="2.4em" class="st3">-</tspan> See Video</text>		</g>
		<g id="shape1023-72" transform="translate(651.6,-363.881)">
			<title>Dynamic connector.1023</title>
			<desc>Yes</desc>
			<path d="M0 620.83 L18 620.83 L18 621.17 L29.06 621.17" class="st4"/>
			<rect x="11.7403" y="616.032" width="11.957" height="9.59985" class="st6"/>
			<text x="11.74" y="623.23" class="st7">Yes</text>		</g>
		<g id="shape1022-79" transform="translate(541.8,-300.15)">
			<title>Decision.12.1022</title>
			<desc>Are all the features to be verified currently in the feature ...</desc>
			<path d="M0 557.1 L54.9 502.2 L109.8 557.1 L54.9 612 L0 557.1 Z" class="st1"/>
			<text x="13.34" y="549.9" class="st2">Are all the features to be <tspan x="16.14" dy="1.2em" class="st3">verified currently in the </tspan><tspan x="31.08" dy="1.2em" class="st3">feature class?</tspan></text>		</g>
		<g id="shape1025-84" transform="translate(587.7,-300.15)">
			<title>Dynamic connector.1025</title>
			<desc>No</desc>
			<path d="M9 612 L9 647.96" class="st4"/>
			<rect x="4.29297" y="628.2" width="9.41391" height="9.59985" class="st8"/>
			<text x="4.29" y="635.4" class="st7">No</text>		</g>
		<g id="shape1026-91" transform="translate(145.8,-41.7375)">
			<title>Process.15.1026</title>
			<desc>Add the new Fields for the Collection - See Video</desc>
			<rect x="0" y="558" width="72" height="54" class="st9"/>
			<text x="4.21" y="573" class="st10">Add the new Fields <tspan x="7.36" dy="1.2em" class="st3">for the Collection  </tspan><tspan x="17.18" dy="2.4em" class="st3">-</tspan> See Video</text>		</g>
		<g id="shape1029-96" transform="translate(27.45,-50.7375)">
			<title>Process.15.1029</title>
			<desc>Add Coded Value Domains for the New Fields - See Video</desc>
			<rect x="0" y="558" width="72" height="54" class="st9"/>
			<text x="7.33" y="568.2" class="st10">Add Coded Value <tspan x="8.95" dy="1.2em" class="st3">Domains for the </tspan><tspan x="17.67" dy="1.2em" class="st3">New Fields  </tspan><tspan x="17.18" dy="2.4em" class="st3">-</tspan> See Video</text>		</g>
		<g id="shape1030-102" transform="translate(145.8,-68.7375)">
			<title>Dynamic connector.1030</title>
			<path d="M0 612 L-18 612 L-18 648 L-82.35 648 L-82.35 636.04" class="st4"/>
		</g>
		<g id="shape1032-107" transform="translate(415.8,-59.7375)">
			<title>Dynamic connector.1032</title>
			<path d="M0 603 L-11.96 603" class="st4"/>
		</g>
		<g id="shape1031-112" transform="translate(415.8,-41.7375)">
			<title>Process.15.1031</title>
			<desc>Remove fields that don’t provide use for the Collector - See ...</desc>
			<rect x="0" y="558" width="72" height="54" class="st9"/>
			<text x="4.38" y="568.2" class="st10">Remove fields that <tspan x="6.78" dy="1.2em" class="st3">don</tspan>’t provide use <tspan x="9.12" dy="1.2em" class="st3">for the Collector  </tspan><tspan x="17.18" dy="2.4em" class="st3">-</tspan> See Video</text>		</g>
		<g id="shape1034-118" transform="translate(325.8,-59.7375)">
			<title>Dynamic connector.1034</title>
			<path d="M0 603 L-11.96 603" class="st4"/>
		</g>
		<g id="shape1033-123" transform="translate(325.8,-41.7375)">
			<title>Process.15.1033</title>
			<desc>Remove Domains from the Geodatabase that are not needed</desc>
			<rect x="0" y="558" width="72" height="54" class="st9"/>
			<text x="6.27" y="573" class="st10">Remove Domains <tspan x="21.68" dy="1.2em" class="st3">from the </tspan><tspan x="5.7" dy="1.2em" class="st3">Geodatabase that </tspan><tspan x="10.28" dy="1.2em" class="st3">are not needed</tspan></text>		</g>
		<g id="shape1035-129" transform="translate(235.8,-41.7375)">
			<title>Process.15.1035</title>
			<desc>Of the remaining Domains, remove values that won’t be used in...</desc>
			<rect x="0" y="558" width="72" height="54" class="st9"/>
			<text x="7.9" y="568.2" class="st10">Of the remaining <tspan x="6.4" dy="1.2em" class="st3">Domains, remove </tspan><tspan x="7.19" dy="1.2em" class="st3">values that won</tspan>’t <tspan x="11.95" dy="1.2em" class="st3">be used in the </tspan><tspan x="19.43" dy="1.2em" class="st3">Collection</tspan></text>		</g>
		<g id="shape1036-136" transform="translate(235.8,-59.7375)">
			<title>Dynamic connector.1036</title>
			<path d="M0 603 L-11.96 603" class="st4"/>
		</g>
		<g id="shape1037-141" transform="translate(330.9,-384.375)">
			<title>Process.15.1037</title>
			<desc>Add a field named ‘Verified’ and calculate all Values to be N...</desc>
			<rect x="0" y="540" width="72" height="72" class="st9"/>
			<text x="5.38" y="554.4" class="st10">Add a field named <tspan x="13.74" dy="1.2em" class="st3">‘</tspan>Verified’ and <tspan x="3.48" dy="1.2em" class="st3">calculate all Values </tspan><tspan x="8.11" dy="1.2em" class="st3">to be No, set the </tspan><tspan x="9.74" dy="1.2em" class="st3">default value to </tspan><tspan x="28.02" dy="1.2em" class="st3">‘</tspan>Yes’</text>		</g>
		<g id="shape1039-149" transform="translate(27.45,-166.5)">
			<title>Start/End.11.1039</title>
			<desc>END</desc>
			<path d="M13.5 612 L58.5 612 A13.5 13.5 -180 0 0 58.5 585 L13.5 585 A13.5 13.5 -180 1 0 13.5 612 Z" class="st1"/>
			<text x="28.59" y="600.9" class="st2">END</text>		</g>
		<g id="shape1040-152" transform="translate(54.45,-104.738)">
			<title>Dynamic connector.1040</title>
			<path d="M9 612 L9 556.28" class="st4"/>
		</g>
		<g id="shape1042-157" transform="translate(722.7,-327.712)">
			<title>Dynamic connector.1042</title>
			<path d="M0 612 L0 870.97 L-228.86 870.97" class="st4"/>
		</g>
		<g id="shape1043-162" transform="translate(560.7,-204.15)">
			<title>Process.1043</title>
			<desc>Delete All Rows from the Feature Class - See Video</desc>
			<rect x="0" y="558" width="72" height="54" class="st9"/>
			<text x="9.99" y="568.2" class="st10">Delete All Rows <tspan x="7.65" dy="1.2em" class="st3">from the Feature </tspan><tspan x="26.94" dy="1.2em" class="st3">Class  </tspan><tspan x="17.18" dy="2.4em" class="st3">-</tspan> See Video</text>		</g>
		<g id="shape1044-168" transform="translate(560.7,-114.15)">
			<title>Process.15.1044</title>
			<desc>Append the existing features to be verified to the target fea...</desc>
			<rect x="0" y="540" width="72" height="72" class="st9"/>
			<text x="2.87" y="554.4" class="st10">Append the existing <tspan x="12.41" dy="1.2em" class="st3">features to be </tspan><tspan x="12.75" dy="1.2em" class="st3">verified to the </tspan><tspan x="3.26" dy="1.2em" class="st3">target feature class  </tspan><tspan x="17.18" dy="2.4em" class="st3">-</tspan> See Video</text>		</g>
		<g id="shape1045-175" transform="translate(587.7,-204.15)">
			<title>Dynamic connector.1045</title>
			<path d="M9 612 L9 623.96" class="st4"/>
		</g>
		<g id="shape1048-180" transform="translate(225,-492.375)">
			<title>Dynamic connector.1048</title>
			<desc>No</desc>
			<path d="M9 612 L9 632.96" class="st4"/>
			<rect x="2.49297" y="621.003" width="9.41391" height="9.59985" class="st8"/>
			<text x="2.49" y="628.2" class="st7">No</text>		</g>
		<g id="shape1052-187" transform="translate(448.5,-533.55)">
			<title>Dynamic connector.1052</title>
			<path d="M0 603 L29.96 603" class="st4"/>
		</g>
		<g id="shape1051-192" transform="translate(376.5,-515.55)">
			<title>Process.15.1051</title>
			<desc>Add the target feature class from the MasterGDB to the map</desc>
			<rect x="0" y="558" width="72" height="54" class="st9"/>
			<text x="12.13" y="573" class="st10">Add the target <tspan x="5.35" dy="1.2em" class="st3">feature class from </tspan><tspan x="5.78" dy="1.2em" class="st3">the MasterGDB to </tspan><tspan x="22.02" dy="1.2em" class="st3">the map</tspan></text>		</g>
		<g id="shape1054-198" transform="translate(556.5,-533.55)">
			<title>Dynamic connector.1054</title>
			<path d="M0 603 L29.96 603" class="st4"/>
		</g>
		<g id="shape1053-203" transform="translate(484.5,-515.55)">
			<title>Process.15.1053</title>
			<desc>Enable the ‘Maintain Global IDs’ environment setting in ArcPro</desc>
			<rect x="0" y="558" width="72" height="54" class="st9"/>
			<text x="17.9" y="573" class="st10">Enable the <tspan x="8.36" dy="1.2em" class="st3">‘</tspan>Maintain Global <tspan x="7.29" dy="1.2em" class="st3">IDs</tspan>’ environment <tspan x="8.51" dy="1.2em" class="st3">setting in ArcPro</tspan></text>		</g>
		<g id="shape1056-209" transform="translate(637.35,-506.55)">
			<title>Dynamic connector.1056</title>
			<path d="M-8.85 612 L-8.85 621 L-9.15 621 L-9.15 624.56" class="st4"/>
		</g>
		<g id="shape1055-214" transform="translate(592.5,-506.55)">
			<title>Process.15.1055</title>
			<desc>Copy the target feature class from the MasterGDB and Paste it...</desc>
			<rect x="0" y="540" width="72" height="72" class="st9"/>
			<text x="10.39" y="554.4" class="st10">Copy the target <tspan x="5.35" dy="1.2em" class="st3">feature class from </tspan><tspan x="2.65" dy="1.2em" class="st3">the MasterGDB and </tspan><tspan x="12.77" dy="1.2em" class="st3">Paste it in the </tspan><tspan x="8.55" dy="1.2em" class="st3">Project</tspan>’s default <tspan x="14.06" dy="1.2em" class="st3">geodatabase</tspan></text>		</g>
		<g id="shape1057-222" transform="translate(592.2,-433.95)">
			<title>Process.15.1057</title>
			<desc>Add a text field named assetID. Accept the default max length</desc>
			<rect x="0" y="558" width="72" height="54" class="st9"/>
			<text x="10.92" y="573" class="st10">Add a text field <tspan x="9.5" dy="1.2em" class="st3">named assetID.  </tspan><tspan x="5.34" dy="1.2em" class="st3">Accept the default </tspan><tspan x="17.41" dy="1.2em" class="st3">max length</tspan></text>		</g>
		<g id="shape1058-228" transform="translate(592.2,-451.95)">
			<title>Dynamic connector.1058</title>
			<path d="M0 603 L-29.96 603" class="st4"/>
		</g>
		<g id="shape1064-233" transform="translate(72.675,-360)">
			<title>Dynamic connector.1064</title>
			<path d="M-8.78 612 L-8.78 621 L-9.22 621 L-9.22 629.4" class="st4"/>
		</g>
		<g id="shape1065-238" transform="translate(270,-411.375)">
			<title>Dynamic connector.1065</title>
			<path d="M0 603 L54.86 603" class="st4"/>
		</g>
		<g id="shape1066-243" transform="translate(484.2,-460.95)">
			<title>Dynamic connector.1066</title>
			<path d="M0 612 L-18 612 L-18 652.57 L-75.26 652.57" class="st4"/>
		</g>
		<g id="shape1067-248" transform="translate(366.9,-384.375)">
			<title>Dynamic connector.1067</title>
			<path d="M0 612 L0 641.33 L168.86 641.33" class="st4"/>
		</g>
		<g id="shape1068-253" transform="translate(126.9,-247.575)">
			<title>Decision.12.1068</title>
			<desc>Does the target feature class exist in the Master Geodatabase?</desc>
			<path d="M0 557.1 L54.9 502.2 L109.8 557.1 L54.9 612 L0 557.1 Z" class="st1"/>
			<text x="15.69" y="549.9" class="st2">Does the target feature <tspan x="14.11" dy="1.2em" class="st3">class exist in the Master </tspan><tspan x="30.31" dy="1.2em" class="st3">Geodatabase?</tspan></text>		</g>
		<g id="shape1069-258" transform="translate(108.9,-293.475)">
			<title>Dynamic connector.1069</title>
			<desc>Yes</desc>
			<path d="M0 603 L11.96 603" class="st4"/>
			<rect x="3.02158" y="598.2" width="11.957" height="9.59985" class="st8"/>
			<text x="3.02" y="605.4" class="st7">Yes</text>		</g>
		<g id="shape1070-265" transform="translate(271.8,-266.475)">
			<title>Process.1070</title>
			<desc>Copy the target feature class from the MasterGDB and Paste it...</desc>
			<rect x="0" y="540" width="72" height="72" class="st9"/>
			<text x="10.39" y="554.4" class="st10">Copy the target <tspan x="5.35" dy="1.2em" class="st3">feature class from </tspan><tspan x="2.65" dy="1.2em" class="st3">the MasterGDB and </tspan><tspan x="12.77" dy="1.2em" class="st3">Paste it in the </tspan><tspan x="8.55" dy="1.2em" class="st3">Project</tspan>’s default <tspan x="14.06" dy="1.2em" class="st3">geodatabase</tspan></text>		</g>
		<g id="shape1071-273" transform="translate(361.8,-275.475)">
			<title>Process.1071</title>
			<desc>Delete All Rows from the Feature Class - See Video</desc>
			<rect x="0" y="558" width="72" height="54" class="st9"/>
			<text x="9.99" y="568.2" class="st10">Delete All Rows <tspan x="7.65" dy="1.2em" class="st3">from the Feature </tspan><tspan x="26.94" dy="1.2em" class="st3">Class  </tspan><tspan x="17.18" dy="2.4em" class="st3">-</tspan> See Video</text>		</g>
		<g id="shape1073-279" transform="translate(236.7,-293.475)">
			<title>Dynamic connector.1073</title>
			<desc>Yes</desc>
			<path d="M0 603 L29.06 603" class="st4"/>
			<rect x="11.5716" y="598.2" width="11.957" height="9.59985" class="st8"/>
			<text x="11.57" y="605.4" class="st7">Yes</text>		</g>
		<g id="shape1074-286" transform="translate(343.8,-293.475)">
			<title>Dynamic connector.1074</title>
			<path d="M0 603 L11.96 603" class="st4"/>
		</g>
		<g id="shape1075-291" transform="translate(433.8,-302.475)">
			<title>Dynamic connector.1075</title>
			<path d="M0 612 L18 612 L18 812.7" class="st4"/>
		</g>
		<g id="shape1077-296" transform="translate(145.8,-144)">
			<title>Process.15.1077</title>
			<desc>Create a new feature class in the Project’s default geodataba...</desc>
			<rect x="0" y="540" width="72" height="72" class="st9"/>
			<text x="13.83" y="554.4" class="st10">Create a new <tspan x="3.64" dy="1.2em" class="st3">feature class in the </tspan><tspan x="8.55" dy="1.2em" class="st3">Project</tspan>’s default <tspan x="3.99" dy="1.2em" class="st3">geodatabase using </tspan><tspan x="6.02" dy="1.2em" class="st3">the desired target </tspan><tspan x="22.67" dy="1.2em" class="st3">schema</tspan></text>		</g>
		<g id="shape1078-304" transform="translate(172.8,-247.575)">
			<title>Dynamic connector.1078</title>
			<desc>No</desc>
			<path d="M9 612 L9 637.54" class="st4"/>
			<rect x="4.29297" y="622.988" width="9.41391" height="9.59985" class="st8"/>
			<text x="4.29" y="630.19" class="st7">No</text>		</g>
		<g id="shape1079-311" transform="translate(145.8,-189)">
			<title>Dynamic connector.1079</title>
			<path d="M0 621 L-40.31 621" class="st4"/>
		</g>
		<g id="shape1080-316" transform="translate(596.7,-114.15)">
			<title>Dynamic connector.1080</title>
			<path d="M0 612 L0 657.41 L-102.86 657.41" class="st4"/>
		</g>
		<g id="shape1083-321" transform="translate(54.45,-268.388)">
			<title>Dynamic connector.1083</title>
			<desc>No</desc>
			<path d="M9 612 L9 680.85" class="st4"/>
			<rect x="4.29297" y="644.644" width="9.41391" height="9.59985" class="st6"/>
			<text x="4.29" y="651.84" class="st7">No</text>		</g>
	</g>
</svg>
