<?xml version="1.0" encoding="UTF-8" standalone="no"?>
<!DOCTYPE svg PUBLIC "-//W3C//DTD SVG 1.1//EN" "http://www.w3.org/Graphics/SVG/1.1/DTD/svg11.dtd">
<!-- Generated by Microsoft Visio, SVG Export svg_1.svg Build the Project -->
<svg xmlns="http://www.w3.org/2000/svg" xmlns:xlink="http://www.w3.org/1999/xlink" xmlns:ev="http://www.w3.org/2001/xml-events" width="11in" height="8.5in" viewBox="0 0 792 612" xml:space="preserve" color-interpolation-filters="sRGB" class="st10">
	<style type="text/css">
	<![CDATA[
		.st1 {fill:#9cc882;stroke:#ffffff;stroke-linecap:round;stroke-linejoin:round;stroke-width:1}
		.st2 {fill:#ffffff;font-family:Franklin Gothic Book;font-size:0.666664em}
		.st3 {font-size:1em}
		.st4 {marker-end:url(#mrkr4-17);stroke:#6bae2f;stroke-linecap:round;stroke-linejoin:round;stroke-width:0.5}
		.st5 {fill:#6bae2f;fill-opacity:1;stroke:#6bae2f;stroke-opacity:1;stroke-width:0.16556291390728}
		.st6 {fill:#7eb6aa}
		.st7 {stroke:#ffffff;stroke-linecap:round;stroke-linejoin:round;stroke-width:1}
		.st8 {fill:#ffffff;stroke:#dfa202;stroke-linecap:round;stroke-linejoin:round;stroke-width:1}
		.st9 {fill:#7c5b02;font-family:Franklin Gothic Book;font-size:0.666664em}
		.st10 {fill:none;fill-rule:evenodd;font-size:12px;overflow:visible;stroke-linecap:square;stroke-miterlimit:3}
	]]>
	</style>

	<defs id="Markers">
		<g id="lend4">
			<path d="M 2 1 L 0 0 L 2 -1 L 2 1 " style="stroke:none"/>
		</g>
		<marker id="mrkr4-17" class="st5" refX="-12.08" orient="auto" markerUnits="strokeWidth" overflow="visible">
			<use xlink:href="#lend4" transform="scale(-6.04,-6.04) "/>
		</marker>
	</defs>
	<g>
		<title>Build the Project</title>
		<g id="shape1001-1" transform="translate(27,-540)">
			<title>Process.15.1001</title>
			<desc>Create a new ArcPro Project - See Video</desc>
			<rect x="0" y="558" width="72" height="54" class="st1"/>
			<text x="13.83" y="573" class="st2">Create a new <tspan x="12.32" dy="1.2em" class="st3">ArcPro Project  </tspan><tspan x="17.18" dy="2.4em" class="st3">-</tspan> See Video</text>		</g>
		<g id="shape1002-6" transform="translate(18,-468)">
			<title>Process.15.1002</title>
			<desc>Add the Master Geodatabase to the Project - See Video</desc>
			<rect x="0" y="558" width="90" height="54" class="st1"/>
			<text x="19.23" y="568.2" class="st2">Add the Master <tspan x="11.65" dy="1.2em" class="st3">Geodatabase to the </tspan><tspan x="33.28" dy="1.2em" class="st3">Project  </tspan><tspan x="26.18" dy="2.4em" class="st3">-</tspan> See Video</text>		</g>
		<g id="shape1003-12" transform="translate(54,-540)">
			<title>Dynamic connector.1003</title>
			<path d="M9 612 L9 623.96" class="st4"/>
		</g>
		<a xlink:href="svg_2.htm">
			<g id="shape1004-18" transform="translate(27,-387)">
				<title>Subprocess.13.1004</title>
				<desc>Acquire Feature Class Schema</desc>
				<path d="M0 612 L72 612 L72 558 L0 558 L0 612 Z" class="st6"/>
				<path d="M0 612 L72 612 L72 558 L0 558 L0 612" class="st7"/>
				<path d="M9 612 L9 558" class="st7"/>
				<path d="M63 612 L63 558" class="st7"/>
				<text x="23.37" y="577.8" class="st2">Acquire <tspan x="12.91" dy="1.2em" class="st3">Feature Class </tspan><tspan x="22.25" dy="1.2em" class="st3">Schema</tspan></text>			</g>
		</a>
		<g id="shape1005-26" transform="translate(54,-468)">
			<title>Dynamic connector.1005</title>
			<path d="M9 612 L9 632.96" class="st4"/>
		</g>
		<g id="shape1008-31" transform="translate(27,-306)">
			<title>Process.15.1008</title>
			<desc>Enable Editor Tracking on the feature class - See Video</desc>
			<rect x="0" y="558" width="72" height="54" class="st1"/>
			<text x="13.48" y="568.2" class="st2">Enable Editor <tspan x="9.99" dy="1.2em" class="st3">Tracking on the </tspan><tspan x="14.2" dy="1.2em" class="st3">feature class  </tspan><tspan x="17.18" dy="2.4em" class="st3">-</tspan> See Video</text>		</g>
		<g id="shape1009-37" transform="translate(27,-212.4)">
			<title>Process.15.1009</title>
			<desc>Enable Attachments for the feature class - See Video</desc>
			<rect x="0" y="558" width="72" height="54" class="st1"/>
			<text x="2.04" y="573" class="st2">Enable Attachments <tspan x="2.13" dy="1.2em" class="st3">for the feature class  </tspan><tspan x="17.18" dy="2.4em" class="st3">-</tspan> See Video</text>		</g>
		<a xlink:href="svg_3.htm">
			<g id="shape1022-42" transform="translate(27,-129.6)">
				<title>Subprocess.13.1022</title>
				<desc>Symbolize the Layer</desc>
				<path d="M0 612 L72 612 L72 558 L0 558 L0 612 Z" class="st6"/>
				<path d="M0 612 L72 612 L72 558 L0 558 L0 612" class="st7"/>
				<path d="M9 612 L9 558" class="st7"/>
				<path d="M63 612 L63 558" class="st7"/>
				<text x="12.49" y="582.6" class="st2">Symbolize the <tspan x="26.87" dy="1.2em" class="st3">Layer</tspan></text>			</g>
		</a>
		<g id="shape1024-49" transform="translate(54,-387)">
			<title>Dynamic connector.1024</title>
			<path d="M9 612 L9 632.96" class="st4"/>
		</g>
		<g id="shape1025-54" transform="translate(54,-306)">
			<title>Dynamic connector.1025</title>
			<path d="M9 612 L9 645.56" class="st4"/>
		</g>
		<g id="shape1026-59" transform="translate(54,-212.4)">
			<title>Dynamic connector.1026</title>
			<path d="M9 612 L9 634.76" class="st4"/>
		</g>
		<g id="shape1027-64" transform="translate(153,-129.6)">
			<title>Process.15.1027</title>
			<desc>Publish the layer to ArcGIS Online - See Video</desc>
			<rect x="0" y="558" width="72" height="54" class="st1"/>
			<text x="3.72" y="573" class="st2">Publish the layer to <tspan x="13.03" dy="1.2em" class="st3">ArcGIS Online  </tspan><tspan x="17.18" dy="2.4em" class="st3">-</tspan> See Video</text>		</g>
		<g id="shape1028-69" transform="translate(99,-147.6)">
			<title>Dynamic connector.1028</title>
			<path d="M0 603 L47.96 603" class="st4"/>
		</g>
		<g id="shape1030-74" transform="translate(225,-147.6)">
			<title>Dynamic connector.1030</title>
			<path d="M0 603 L29.96 603" class="st4"/>
		</g>
		<a xlink:href="svg_4.htm">
			<g id="shape1032-79" transform="translate(261,-120.6)">
				<title>Subprocess.13.1032</title>
				<desc>Configure the Settings on the Published Layer - See Video</desc>
				<path d="M0 612 L72 612 L72 540 L0 540 L0 612 Z" class="st6"/>
				<path d="M0 612 L72 612 L72 540 L0 540 L0 612" class="st7"/>
				<path d="M9 612 L9 540" class="st7"/>
				<path d="M63 612 L63 540" class="st7"/>
				<text x="13.32" y="554.4" class="st2">Configure the <tspan x="17.03" dy="1.2em" class="st3">Settings on </tspan><tspan x="12.89" dy="1.2em" class="st3">the Published </tspan><tspan x="26.87" dy="1.2em" class="st3">Layer  </tspan><tspan x="17.18" dy="2.4em" class="st3">-</tspan> See Video</text>			</g>
		</a>
		<a xlink:href="svg_5.htm">
			<g id="shape1033-89" transform="translate(261,-219.6)">
				<title>Subprocess.13.1033</title>
				<desc>Create WebMap</desc>
				<path d="M0 612 L72 612 L72 558 L0 558 L0 612 Z" class="st6"/>
				<path d="M0 612 L72 612 L72 558 L0 558 L0 612" class="st7"/>
				<path d="M9 612 L9 558" class="st7"/>
				<path d="M63 612 L63 558" class="st7"/>
				<text x="24.86" y="582.6" class="st2">Create <tspan x="21.01" dy="1.2em" class="st3">WebMap</tspan></text>			</g>
		</a>
		<g id="shape1034-96" transform="translate(288,-192.6)">
			<title>Dynamic connector.1034</title>
			<path d="M9 612 L9 591.04" class="st4"/>
		</g>
		<g id="shape1035-101" transform="translate(261,-297)">
			<title>Process.15.1035</title>
			<desc>Open the Collector App and perform the Collection - See RTAA ...</desc>
			<rect x="0" y="540" width="72" height="72" class="st1"/>
			<text x="4.81" y="549.6" class="st2">Open the Collector <tspan x="7.76" dy="1.2em" class="st3">App and perform </tspan><tspan x="12.95" dy="1.2em" class="st3">the Collection  </tspan><tspan x="16.88" dy="2.4em" class="st3">-</tspan>  See RTAA <tspan x="12.51" dy="1.2em" class="st3">Collector User </tspan><tspan x="26.09" dy="1.2em" class="st3">Guide</tspan></text>		</g>
		<g id="shape1036-109" transform="translate(288,-273.6)">
			<title>Dynamic connector.1036</title>
			<path d="M9 612 L9 594.64" class="st4"/>
		</g>
		<g id="shape1037-114" transform="translate(261,-414)">
			<title>Start/End.11</title>
			<desc>END</desc>
			<path d="M13.5 612 L58.5 612 A13.5 13.5 -180 0 0 58.5 585 L13.5 585 A13.5 13.5 -180 1 0 13.5 612 Z" class="st8"/>
			<text x="28.59" y="600.9" class="st9">END</text>		</g>
		<g id="shape1038-117" transform="translate(288,-369)">
			<title>Dynamic connector</title>
			<path d="M9 612 L9 573.04" class="st4"/>
		</g>
		<g id="shape1039-122" transform="translate(144,-553.5)">
			<title>Start/End.11.1039</title>
			<desc>START</desc>
			<path d="M13.5 612 L58.5 612 A13.5 13.5 -180 0 0 58.5 585 L13.5 585 A13.5 13.5 -180 1 0 13.5 612 Z" class="st8"/>
			<text x="25.25" y="600.9" class="st9">START</text>		</g>
		<g id="shape1040-125" transform="translate(144,-558)">
			<title>Dynamic connector.1040</title>
			<path d="M0 603 L-38.96 603" class="st4"/>
		</g>
	</g>
</svg>
