<?xml version="1.0" encoding="UTF-8" standalone="no"?>
<!DOCTYPE svg PUBLIC "-//W3C//DTD SVG 1.1//EN" "http://www.w3.org/Graphics/SVG/1.1/DTD/svg11.dtd">
<!-- Generated by Microsoft Visio, SVG Export svg_1.svg Process -->
<svg xmlns="http://www.w3.org/2000/svg" xmlns:xlink="http://www.w3.org/1999/xlink" xmlns:ev="http://www.w3.org/2001/xml-events" width="11in" height="8.5in" viewBox="0 0 792 612" xml:space="preserve" color-interpolation-filters="sRGB" class="st10">
	<style type="text/css">
	<![CDATA[
		.st1 {fill:#ffffff;stroke:#dfa202;stroke-linecap:round;stroke-linejoin:round;stroke-width:1}
		.st2 {fill:#7c5b02;font-family:Franklin Gothic Book;font-size:0.666664em}
		.st3 {font-size:1em}
		.st4 {marker-end:url(#mrkr4-15);stroke:#6bae2f;stroke-linecap:round;stroke-linejoin:round;stroke-width:0.5}
		.st5 {fill:#6bae2f;fill-opacity:1;stroke:#6bae2f;stroke-opacity:1;stroke-width:0.16556291390728}
		.st6 {fill:#ffffff;stroke:none;stroke-linecap:butt;stroke-width:7.2}
		.st7 {fill:#528722;font-family:Franklin Gothic Book;font-size:0.666664em}
		.st8 {fill:#9cc882;stroke:#ffffff;stroke-linecap:round;stroke-linejoin:round;stroke-width:1}
		.st9 {fill:#ffffff;font-family:Franklin Gothic Book;font-size:0.666664em}
		.st10 {fill:none;fill-rule:evenodd;font-size:12px;overflow:visible;stroke-linecap:square;stroke-miterlimit:3}
	]]>
	</style>

	<defs id="Markers">
		<g id="lend4">
			<path d="M 2 1 L 0 0 L 2 -1 L 2 1 " style="stroke:none"/>
		</g>
		<marker id="mrkr4-15" class="st5" refX="-12.08" orient="auto" markerUnits="strokeWidth" overflow="visible">
			<use xlink:href="#lend4" transform="scale(-6.04,-6.04) "/>
		</marker>
	</defs>
	<g>
		<title>Acquire Feature Class Schema</title>
		<g id="shape40-1" transform="translate(27.45,-567)">
			<title>Start/End.11</title>
			<desc>Determine the type of Collection</desc>
			<path d="M13.5 612 L58.5 612 A13.5 13.5 -180 0 0 58.5 585 L13.5 585 A13.5 13.5 -180 1 0 13.5 612 Z" class="st1"/>
			<text x="3.69" y="596.1" class="st2">Determine the type <tspan x="15.15" dy="1.2em" class="st3">of Collection</tspan></text>		</g>
		<g id="shape41-5" transform="translate(18,-462.825)">
			<title>Decision.12</title>
			<desc>Are there existing features that need verification?</desc>
			<path d="M0 577.91 L45.45 543.83 L90.9 577.91 L45.45 612 L0 577.91 Z" class="st1"/>
			<text x="16.2" y="570.71" class="st2">Are there existing <tspan x="14.18" dy="1.2em" class="st3">features that need </tspan><tspan x="24.82" dy="1.2em" class="st3">verification?</tspan></text>		</g>
		<g id="shape43-10" transform="translate(54.45,-567)">
			<title>Dynamic connector</title>
			<path d="M9 612 L9 641.96" class="st4"/>
		</g>
		<g id="shape45-16" transform="translate(54.45,-462.825)">
			<title>Dynamic connector.45</title>
			<desc>No</desc>
			<path d="M9 612 L9 649.79" class="st4"/>
			<rect x="4.74297" y="616.712" width="9.41391" height="9.59985" class="st6"/>
			<text x="4.74" y="623.91" class="st7">No</text>		</g>
		<g id="shape49-23" transform="translate(108.9,-487.913)">
			<title>Dynamic connector.49</title>
			<desc>Yes</desc>
			<path d="M0 603 L42.86 603" class="st4"/>
			<rect x="20.1216" y="600.113" width="11.957" height="9.59985" class="st6"/>
			<text x="20.12" y="607.31" class="st7">Yes</text>		</g>
		<g id="shape1002-30" transform="translate(18,-350.825)">
			<title>Decision.1002</title>
			<desc>Are there new features that need to be collected?</desc>
			<path d="M0 577.91 L45.45 543.83 L90.9 577.91 L45.45 612 L0 577.91 Z" class="st1"/>
			<text x="22.13" y="570.71" class="st2">Are there new <tspan x="9.87" dy="1.2em" class="st3">features that need to </tspan><tspan x="23" dy="1.2em" class="st3">be collected?</tspan></text>		</g>
		<g id="shape1003-35" transform="translate(54.45,-350.825)">
			<title>Dynamic connector.1003</title>
			<desc>Yes</desc>
			<path d="M9 612 L9 687.12" class="st4"/>
			<rect x="3.47158" y="624.816" width="11.957" height="9.59985" class="st6"/>
			<text x="3.47" y="632.02" class="st7">Yes</text>		</g>
		<g id="shape1004-42" transform="translate(252.9,-462.825)">
			<title>Decision.1004</title>
			<desc>Do the features exist in the MasterGDB?</desc>
			<path d="M0 577.91 L45.45 543.83 L90.9 577.91 L45.45 612 L0 577.91 Z" class="st1"/>
			<text x="10.48" y="575.51" class="st2">Do the features exist <tspan x="13.43" dy="1.2em" class="st3">in the MasterGDB?</tspan></text>		</g>
		<g id="shape1005-46" transform="translate(298.35,-462.825)">
			<title>Dynamic connector.1005</title>
			<desc>Yes</desc>
			<path d="M0 612 L0 675 L-75.41 675" class="st4"/>
			<rect x="-64.8581" y="670.2" width="11.957" height="9.59985" class="st6"/>
			<text x="-64.86" y="677.4" class="st7">Yes</text>		</g>
		<g id="shape1007-53" transform="translate(234,-265.2)">
			<title>Dynamic connector.1007</title>
			<path d="M0 612 L0 630 L-36.45 630 L-36.45 641.58" class="st4"/>
		</g>
		<g id="shape1006-58" transform="translate(198,-265.2)">
			<title>Process.15.1006</title>
			<desc>Copy the Source Feature Class from the MasterGDB to the Proje...</desc>
			<rect x="0" y="540" width="72" height="72" class="st8"/>
			<text x="8.55" y="549.6" class="st9">Copy the Source <tspan x="4.06" dy="1.2em" class="st3">Feature Class from </tspan><tspan x="5.78" dy="1.2em" class="st3">the MasterGDB to </tspan><tspan x="2.08" dy="1.2em" class="st3">the Project</tspan>’s default <tspan x="14.06" dy="1.2em" class="st3">geodatabase  </tspan><tspan x="17.18" dy="2.4em" class="st3">-</tspan> See Video</text>		</g>
		<g id="shape1008-66" transform="translate(157.8,-469.913)">
			<title>Process.15.1008</title>
			<desc>Determine which feature class should hold the features</desc>
			<rect x="0" y="558" width="72" height="54" class="st8"/>
			<text x="7.52" y="573" class="st9">Determine which <tspan x="14.2" dy="1.2em" class="st3">feature class </tspan><tspan x="9.88" dy="1.2em" class="st3">should hold the </tspan><tspan x="21.95" dy="1.2em" class="st3">features</tspan></text>		</g>
		<g id="shape1011-72" transform="translate(27.45,-215.663)">
			<title>Process.15.1011</title>
			<desc>Choose the target feature class from the MasterGDB</desc>
			<rect x="0" y="558" width="72" height="54" class="st8"/>
			<text x="6.02" y="577.8" class="st9">Choose the target <tspan x="5.35" dy="1.2em" class="st3">feature class from </tspan><tspan x="10.09" dy="1.2em" class="st3">the MasterGDB</tspan></text>		</g>
		<g id="shape1012-77" transform="translate(99.45,-242.663)">
			<title>Dynamic connector.1012</title>
			<path d="M0 612 L18 612 L18 553.46 L24.45 553.46 A3 3 0 0 1 30.45 553.46 L92.51 553.46" class="st4"/>
		</g>
		<g id="shape1013-82" transform="translate(152.1,-161.4)">
			<title>Decision.1013</title>
			<desc>Are there existing features that need verification?</desc>
			<path d="M0 577.91 L45.45 543.83 L90.9 577.91 L45.45 612 L0 577.91 Z" class="st1"/>
			<text x="16.2" y="570.71" class="st2">Are there existing <tspan x="14.18" dy="1.2em" class="st3">features that need </tspan><tspan x="24.82" dy="1.2em" class="st3">verification?</tspan></text>		</g>
		<g id="shape1014-87" transform="translate(188.55,-161.4)">
			<title>Dynamic connector.1014</title>
			<desc>No</desc>
			<path d="M9 612 L9 624.71" class="st4"/>
			<rect x="4.29297" y="623.021" width="9.41391" height="9.59985" class="st6"/>
			<text x="4.29" y="630.22" class="st7">No</text>		</g>
		<g id="shape1015-94" transform="translate(161.55,-88.65)">
			<title>Process.15.1015</title>
			<desc>Delete All Rows from the Feature Class</desc>
			<rect x="0" y="558" width="72" height="54" class="st8"/>
			<text x="9.99" y="577.8" class="st9">Delete All Rows <tspan x="7.65" dy="1.2em" class="st3">from the Feature </tspan><tspan x="26.94" dy="1.2em" class="st3">Class</tspan></text>		</g>
		<g id="shape1017-99" transform="translate(504,-202.5)">
			<title>Process.15.1017</title>
			<desc>Remove any features that do not need verification</desc>
			<rect x="0" y="558" width="72" height="54" class="st8"/>
			<text x="15.31" y="577.8" class="st9">Remove any <tspan x="2.51" dy="1.2em" class="st3">features that do not </tspan><tspan x="7.9" dy="1.2em" class="st3">need verification</tspan></text>		</g>
		<g id="shape1018-104" transform="translate(243,-195.112)">
			<title>Dynamic connector.1018</title>
			<desc>Yes</desc>
			<path d="M0 611.62 L18 611.62 L18 594.37 L46.61 594.37" class="st4"/>
			<rect x="12.0216" y="589.875" width="11.957" height="9.59985" class="st6"/>
			<text x="12.02" y="597.08" class="st7">Yes</text>		</g>
		<g id="shape1021-111" transform="translate(180.9,-372.825)">
			<title>Dynamic connector.1021</title>
			<path d="M0 612 L0 630 L53.1 630 L53.1 641.58" class="st4"/>
		</g>
		<g id="shape1020-116" transform="translate(144.9,-372.825)">
			<title>Process.15.1020</title>
			<desc>Copy the GlobalIDs to the AssetID field - See Video</desc>
			<rect x="0" y="558" width="72" height="54" class="st8"/>
			<text x="4.12" y="573" class="st9">Copy the GlobalIDs <tspan x="4.19" dy="1.2em" class="st3">to the AssetID field  </tspan><tspan x="17.18" dy="2.4em" class="st3">-</tspan> See Video</text>		</g>
		<g id="shape1023-121" transform="translate(483.3,-318.038)">
			<title>Dynamic connector.1023</title>
			<desc>Yes</desc>
			<path d="M0 612 L56.7 612 L56.7 667.5" class="st4"/>
			<rect x="50.7216" y="609.619" width="11.957" height="9.59985" class="st6"/>
			<text x="50.72" y="616.82" class="st7">Yes</text>		</g>
		<g id="shape1022-128" transform="translate(380.7,-266.738)">
			<title>Decision.12.1022</title>
			<desc>Are all the feature to be verified currently in the feature c...</desc>
			<path d="M0 560.7 L51.3 509.4 L102.6 560.7 L51.3 612 L0 560.7 Z" class="st1"/>
			<text x="11.6" y="553.5" class="st2">Are all the feature to be <tspan x="12.54" dy="1.2em" class="st3">verified currently in the </tspan><tspan x="27.48" dy="1.2em" class="st3">feature class?</tspan></text>		</g>
		<g id="shape1025-133" transform="translate(423,-266.738)">
			<title>Dynamic connector.1025</title>
			<desc>No</desc>
			<path d="M9 612 L9 632.96" class="st4"/>
			<rect x="4.29297" y="620.7" width="9.41391" height="9.59985" class="st6"/>
			<text x="4.29" y="627.9" class="st7">No</text>		</g>
		<g id="shape1026-140" transform="translate(679.8,-23.7375)">
			<title>Process.15.1026</title>
			<desc>Add the new Fields for the Collection - See Video</desc>
			<rect x="0" y="558" width="72" height="54" class="st8"/>
			<text x="4.21" y="573" class="st9">Add the new Fields <tspan x="7.36" dy="1.2em" class="st3">for the Collection  </tspan><tspan x="17.18" dy="2.4em" class="st3">-</tspan> See Video</text>		</g>
		<g id="shape1027-145" transform="translate(197.55,-88.65)">
			<title>Dynamic connector.1027</title>
			<path d="M0 612 L0 649.91 L201.41 649.91" class="st4"/>
		</g>
		<g id="shape1029-150" transform="translate(679.8,-95.7375)">
			<title>Process.15.1029</title>
			<desc>Add Coded Value Domains for the New Fields - See Video</desc>
			<rect x="0" y="558" width="72" height="54" class="st8"/>
			<text x="7.33" y="568.2" class="st9">Add Coded Value <tspan x="8.95" dy="1.2em" class="st3">Domains for the </tspan><tspan x="17.67" dy="1.2em" class="st3">New Fields  </tspan><tspan x="17.18" dy="2.4em" class="st3">-</tspan> See Video</text>		</g>
		<g id="shape1030-156" transform="translate(706.8,-77.7375)">
			<title>Dynamic connector.1030</title>
			<path d="M9 612 L9 600.04" class="st4"/>
		</g>
		<g id="shape1032-161" transform="translate(477,-41.7375)">
			<title>Dynamic connector.1032</title>
			<path d="M0 603 L11.96 603" class="st4"/>
		</g>
		<g id="shape1031-166" transform="translate(405,-23.7375)">
			<title>Process.15.1031</title>
			<desc>Remove fields that don’t provide use for the Collector - See ...</desc>
			<rect x="0" y="558" width="72" height="54" class="st8"/>
			<text x="4.38" y="568.2" class="st9">Remove fields that <tspan x="6.78" dy="1.2em" class="st3">don</tspan>’t provide use <tspan x="9.12" dy="1.2em" class="st3">for the Collector  </tspan><tspan x="17.18" dy="2.4em" class="st3">-</tspan> See Video</text>		</g>
		<g id="shape1034-172" transform="translate(567,-41.7375)">
			<title>Dynamic connector.1034</title>
			<path d="M0 603 L14.36 603" class="st4"/>
		</g>
		<g id="shape1033-177" transform="translate(495,-23.7375)">
			<title>Process.15.1033</title>
			<desc>Remove Domains from the Geodatabase that are not needed</desc>
			<rect x="0" y="558" width="72" height="54" class="st8"/>
			<text x="6.27" y="573" class="st9">Remove Domains <tspan x="21.68" dy="1.2em" class="st3">from the </tspan><tspan x="5.7" dy="1.2em" class="st3">Geodatabase that </tspan><tspan x="10.28" dy="1.2em" class="st3">are not needed</tspan></text>		</g>
		<g id="shape1035-183" transform="translate(587.4,-23.7375)">
			<title>Process.15.1035</title>
			<desc>Of the remaining Domains, remove values that won’t be used in...</desc>
			<rect x="0" y="558" width="72" height="54" class="st8"/>
			<text x="7.9" y="568.2" class="st9">Of the remaining <tspan x="6.4" dy="1.2em" class="st3">Domains, remove </tspan><tspan x="7.19" dy="1.2em" class="st3">values that won</tspan>’t <tspan x="11.95" dy="1.2em" class="st3">be used in the </tspan><tspan x="19.43" dy="1.2em" class="st3">Collection</tspan></text>		</g>
		<g id="shape1036-190" transform="translate(659.4,-41.7375)">
			<title>Dynamic connector.1036</title>
			<path d="M0 603 L14.36 603" class="st4"/>
		</g>
		<g id="shape1037-195" transform="translate(295.65,-176.738)">
			<title>Process.15.1037</title>
			<desc>Add a field named ‘Verified’ and calculate all Values to be N...</desc>
			<rect x="0" y="540" width="72" height="72" class="st8"/>
			<text x="5.38" y="554.4" class="st9">Add a field named <tspan x="13.74" dy="1.2em" class="st3">‘</tspan>Verified’ and <tspan x="3.48" dy="1.2em" class="st3">calculate all Values </tspan><tspan x="8.11" dy="1.2em" class="st3">to be No, set the </tspan><tspan x="9.74" dy="1.2em" class="st3">default value to </tspan><tspan x="28.02" dy="1.2em" class="st3">‘</tspan>Yes’</text>		</g>
		<g id="shape1039-203" transform="translate(679.8,-199.238)">
			<title>Start/End.11.1039</title>
			<desc>END</desc>
			<path d="M13.5 612 L58.5 612 A13.5 13.5 -180 0 0 58.5 585 L13.5 585 A13.5 13.5 -180 1 0 13.5 612 Z" class="st1"/>
			<text x="28.59" y="600.9" class="st2">END</text>		</g>
		<g id="shape1040-206" transform="translate(706.8,-149.738)">
			<title>Dynamic connector.1040</title>
			<path d="M9 612 L9 568.54" class="st4"/>
		</g>
		<g id="shape1041-211" transform="translate(331.65,-248.738)">
			<title>Dynamic connector.1041</title>
			<path d="M0 612 L0 542.7 L43.01 542.7" class="st4"/>
		</g>
		<g id="shape1042-216" transform="translate(540,-202.5)">
			<title>Dynamic connector.1042</title>
			<path d="M0 612 L0 682.76 L-65.96 682.76" class="st4"/>
		</g>
		<g id="shape1043-221" transform="translate(396,-185.738)">
			<title>Process.1043</title>
			<desc>Delete All Rows from the Feature Class - See Video</desc>
			<rect x="0" y="558" width="72" height="54" class="st8"/>
			<text x="9.99" y="568.2" class="st9">Delete All Rows <tspan x="7.65" dy="1.2em" class="st3">from the Feature </tspan><tspan x="26.94" dy="1.2em" class="st3">Class  </tspan><tspan x="17.18" dy="2.4em" class="st3">-</tspan> See Video</text>		</g>
		<g id="shape1044-227" transform="translate(396,-95.7375)">
			<title>Process.15.1044</title>
			<desc>Append the existing features to be verified to the target fea...</desc>
			<rect x="0" y="540" width="72" height="72" class="st8"/>
			<text x="2.87" y="554.4" class="st9">Append the existing <tspan x="12.41" dy="1.2em" class="st3">features to be </tspan><tspan x="12.75" dy="1.2em" class="st3">verified to the </tspan><tspan x="3.26" dy="1.2em" class="st3">target feature class  </tspan><tspan x="17.18" dy="2.4em" class="st3">-</tspan> See Video</text>		</g>
		<g id="shape1045-234" transform="translate(423,-185.738)">
			<title>Dynamic connector.1045</title>
			<path d="M9 612 L9 623.96" class="st4"/>
		</g>
		<g id="shape1046-239" transform="translate(427.5,-95.7375)">
			<title>Dynamic connector.1046</title>
			<path d="M4.5 612 L4.5 621 L13.5 621 L13.5 623.96" class="st4"/>
		</g>
		<g id="shape1047-244" transform="translate(229.8,-487.913)">
			<title>Dynamic connector.1047</title>
			<path d="M0 603 L17.06 603" class="st4"/>
		</g>
		<g id="shape1048-249" transform="translate(343.8,-496.913)">
			<title>Dynamic connector.1048</title>
			<desc>No</desc>
			<path d="M0 612 L18 612 L18 781.31 L-50.85 781.31 L-50.85 807.71 L-67.76 807.71" class="st4"/>
			<rect x="13.293" y="741.957" width="9.41391" height="9.59985" class="st6"/>
			<text x="13.29" y="749.16" class="st7">No</text>		</g>
		<g id="shape1050-256" transform="translate(108.9,-384.912)">
			<title>Dynamic connector.1050</title>
			<desc>No</desc>
			<path d="M0 612 L18 612 L18 739.17 L122.1 739.17 A3 3 0 1 1 128.1 739.17 L219.75 739.17 A3 3 0 1 1 225.75 739.17 L320.1&#xA;						 739.17 A3 3 0 1 1 326.1 739.17 L386.1 739.17 L386.1 731.41 L428.1 731.41 A3 3 0 0 1 434.1 731.41 L606.9&#xA;						 731.41 L606.9 764.63" class="st4"/>
			<rect x="12.393" y="641.113" width="9.41391" height="9.59985" class="st6"/>
			<text x="12.39" y="648.31" class="st7">No</text>		</g>
	</g>
</svg>
