<?xml version="1.0" encoding="UTF-8" standalone="no"?>
<!DOCTYPE svg PUBLIC "-//W3C//DTD SVG 1.1//EN" "http://www.w3.org/Graphics/SVG/1.1/DTD/svg11.dtd">
<!-- Generated by Microsoft Visio, SVG Export svg_1.svg Download the geodatabase from ArcGIS Online -->
<svg xmlns="http://www.w3.org/2000/svg" xmlns:xlink="http://www.w3.org/1999/xlink" xmlns:ev="http://www.w3.org/2001/xml-events" width="11in" height="8.5in" viewBox="0 0 792 612" xml:space="preserve" color-interpolation-filters="sRGB" class="st8">
	<style type="text/css">
	<![CDATA[
		.st1 {fill:#ffffff;stroke:#dfa202;stroke-linecap:round;stroke-linejoin:round;stroke-width:1}
		.st2 {fill:#7c5b02;font-family:Franklin Gothic Book;font-size:1.00001em}
		.st3 {fill:#9cc882;stroke:#ffffff;stroke-linecap:round;stroke-linejoin:round;stroke-width:1}
		.st4 {fill:#ffffff;font-family:Franklin Gothic Book;font-size:1.00001em}
		.st5 {font-size:1em}
		.st6 {marker-end:url(#mrkr4-74);stroke:#6bae2f;stroke-linecap:round;stroke-linejoin:round;stroke-width:0.5}
		.st7 {fill:#6bae2f;fill-opacity:1;stroke:#6bae2f;stroke-opacity:1;stroke-width:0.16556291390728}
		.st8 {fill:none;fill-rule:evenodd;font-size:12px;overflow:visible;stroke-linecap:square;stroke-miterlimit:3}
	]]>
	</style>

	<defs id="Markers">
		<g id="lend4">
			<path d="M 2 1 L 0 0 L 2 -1 L 2 1 " style="stroke:none"/>
		</g>
		<marker id="mrkr4-74" class="st7" refX="-12.08" orient="auto" markerUnits="strokeWidth" overflow="visible">
			<use xlink:href="#lend4" transform="scale(-6.04,-6.04) "/>
		</marker>
	</defs>
	<g>
		<title>Download the geodatabase from ArcGIS Online</title>
		<g id="shape1000-1" transform="translate(93.375,-522)">
			<title>Start/End.11.1000</title>
			<desc>START</desc>
			<path d="M13.5 612 L58.5 612 A13.5 13.5 -180 0 0 58.5 585 L13.5 585 A13.5 13.5 -180 1 0 13.5 612 Z" class="st1"/>
			<text x="19.87" y="602.1" class="st2">START</text>		</g>
		<g id="shape1001-4" transform="translate(68.625,-384.187)">
			<title>Process.15.1001</title>
			<desc>Open a web browser and Sign In to the RTAA ArcGIS Online Orga...</desc>
			<rect x="0" y="505.688" width="121.5" height="106.312" class="st3"/>
			<text x="9.2" y="540.84" class="st4">Open a web browser <tspan x="16.18" dy="1.2em" class="st5">and Sign In to the </tspan><tspan x="11.78" dy="1.2em" class="st5">RTAA ArcGIS Online </tspan><tspan x="28.93" dy="1.2em" class="st5">Organization</tspan></text>		</g>
		<g id="shape1002-10" transform="translate(93.375,-298.687)">
			<title>Process.15.1002</title>
			<desc>Click on the Content Tab</desc>
			<rect x="0" y="558" width="72" height="54" class="st3"/>
			<text x="6.39" y="581.4" class="st4">Click on the <tspan x="5.28" dy="1.2em" class="st5">Content Tab</tspan></text>		</g>
		<g id="shape1003-14" transform="translate(59.625,-99)">
			<title>Process.15.1003</title>
			<desc>On the left, in the Folders section, click on the folder that...</desc>
			<rect x="0" y="504" width="139.5" height="108" class="st3"/>
			<text x="5.86" y="518.4" class="st4">On the left, in the Folders <tspan x="3.4" dy="1.2em" class="st5">section, click on the folder </tspan><tspan x="13.2" dy="1.2em" class="st5">that contains the layer </tspan><tspan x="17.76" dy="1.2em" class="st5">being collected.  The </tspan><tspan x="9.11" dy="1.2em" class="st5">folders are organized </tspan>by <tspan x="7.8" dy="1.2em" class="st5">feature dataset from the </tspan><tspan x="15.12" dy="1.2em" class="st5">master Geodatabase.  </tspan></text>		</g>
		<g id="shape1004-23" transform="translate(262.125,-342.333)">
			<title>Process.15.1004</title>
			<desc>Select the name of the layer being collected. This will open ...</desc>
			<rect x="0" y="468" width="121.5" height="144" class="st3"/>
			<text x="3.3" y="486" class="st4">Select the name of the <tspan x="7.39" dy="1.2em" class="st5">layer being collected.  </tspan><tspan x="4.06" dy="1.2em" class="st5">This will open the Item </tspan><tspan x="29.24" dy="1.2em" class="st5">Details page  </tspan><tspan x="11.95" dy="2.4em" class="st5">*Hint </tspan>– Layers with <tspan x="5.79" dy="1.2em" class="st5">“</tspan>New” in front of their <tspan x="9.4" dy="1.2em" class="st5">name are Views and </tspan><tspan x="2.52" dy="1.2em" class="st5">should not be exported</tspan></text>		</g>
		<g id="shape1005-33" transform="translate(262.125,-104.344)">
			<title>Process.15.1005</title>
			<desc>On the right, expand the Export Data dropdown and choose ‘Exp...</desc>
			<rect x="0" y="505.688" width="121.5" height="106.312" class="st3"/>
			<text x="9.59" y="540.84" class="st4">On the right, expand <tspan x="21.49" dy="1.2em" class="st5">the Export Data </tspan><tspan x="4.8" dy="1.2em" class="st5">dropdown and choose </tspan><tspan x="19.37" dy="1.2em" class="st5">‘</tspan>Export to FGDB’</text>		</g>
		<g id="shape1006-39" transform="translate(430.708,-76.5)">
			<title>Process.15.1006</title>
			<desc>Copy the Title text and paste it into the Tags and Summary fi...</desc>
			<rect x="0" y="450" width="139.5" height="162" class="st3"/>
			<text x="13.6" y="469.8" class="st4">Copy the Title text and <tspan x="5.62" dy="1.2em" class="st5">paste it into the Tags and </tspan><tspan x="10.92" dy="1.2em" class="st5">Summary fields.  Leave </tspan><tspan x="4.96" dy="1.2em" class="st5">the </tspan>‘Save in folder’ option <tspan x="9.03" dy="1.2em" class="st5">as the default which will </tspan><tspan x="9.68" dy="1.2em" class="st5">be the folder containing </tspan><tspan x="27.77" dy="1.2em" class="st5">the layer you are </tspan><tspan x="44.86" dy="1.2em" class="st5">exporting.  </tspan><tspan x="38.74" dy="2.4em" class="st5">Click Export.</tspan></text>		</g>
		<g id="shape1007-50" transform="translate(627.75,-90)">
			<title>Process.15.1007</title>
			<desc>After a minute or two, the Item Details for the File Geodatab...</desc>
			<rect x="0" y="504" width="122.625" height="108" class="st3"/>
			<text x="6.91" y="525.6" class="st4">After a minute or two, <tspan x="3.08" dy="1.2em" class="st5">the Item Details for the </tspan><tspan x="7.42" dy="1.2em" class="st5">File Geodatabase will </tspan><tspan x="8.23" dy="1.2em" class="st5">be displayed.  On the </tspan><tspan x="25.86" dy="1.2em" class="st5">right, click the </tspan><tspan x="16.64" dy="1.2em" class="st5">Download button.</tspan></text>		</g>
		<g id="shape1008-58" transform="translate(653.063,-269.667)">
			<title>Process.15.1008</title>
			<desc>Copy the downloaded zip file to a folder accessible in your P...</desc>
			<rect x="0" y="468" width="72" height="144" class="st3"/>
			<text x="14" y="486" class="st4">Copy the <tspan x="5.16" dy="1.2em" class="st5">downloaded </tspan><tspan x="8.56" dy="1.2em" class="st5">zip file to a </tspan><tspan x="21.37" dy="1.2em" class="st5">folder </tspan><tspan x="3.32" dy="1.2em" class="st5">accessible in </tspan><tspan x="15.22" dy="1.2em" class="st5">your Pro </tspan><tspan x="16.91" dy="1.2em" class="st5">Project.  </tspan><tspan x="8.82" dy="1.2em" class="st5">Extract the </tspan><tspan x="18.2" dy="1.2em" class="st5">zip file.</tspan></text>		</g>
		<g id="shape1009-69" transform="translate(120.375,-522)">
			<title>Dynamic connector</title>
			<path d="M9 612 L9 637.46" class="st6"/>
		</g>
		<g id="shape1010-75" transform="translate(120.375,-384.187)">
			<title>Dynamic connector.1010</title>
			<path d="M9 612 L9 637.46" class="st6"/>
		</g>
		<g id="shape1011-80" transform="translate(120.375,-298.687)">
			<title>Dynamic connector.1011</title>
			<path d="M9 612 L9 697.65" class="st6"/>
		</g>
		<g id="shape1012-85" transform="translate(129.375,-99)">
			<title>Dynamic connector.1012</title>
			<path d="M0 612 L0 630 L87.75 630 L87.75 206.67 L193.5 206.67 L193.5 218.63" class="st6"/>
		</g>
		<g id="shape1013-90" transform="translate(313.875,-342.333)">
			<title>Dynamic connector.1013</title>
			<path d="M9 612 L9 737.64" class="st6"/>
		</g>
		<g id="shape1015-95" transform="translate(570.208,-159.75)">
			<title>Dynamic connector.1015</title>
			<path d="M0 614.25 L18 614.25 L18 627.75 L51.5 627.75" class="st6"/>
		</g>
		<g id="shape1016-100" transform="translate(680.063,-198)">
			<title>Dynamic connector.1016</title>
			<path d="M9 612 L9 546.37" class="st6"/>
		</g>
		<a xlink:href="svg_1.htm">
			<g id="shape1017-105" transform="translate(653.063,-495)">
				<title>Start/End.11.1017</title>
				<desc>END</desc>
				<path d="M13.5 612 L58.5 612 A13.5 13.5 -180 0 0 58.5 585 L13.5 585 A13.5 13.5 -180 1 0 13.5 612 Z" class="st1"/>
				<text x="24.89" y="602.1" class="st2">END</text>			</g>
		</a>
		<g id="shape1018-108" transform="translate(680.063,-413.667)">
			<title>Dynamic connector.1018</title>
			<path d="M9 612 L9 536.71" class="st6"/>
		</g>
		<g id="shape1019-113" transform="translate(313.875,-342.333)">
			<title>Dynamic connector.1019</title>
			<path d="M9 612 L9 737.64" class="st6"/>
		</g>
		<g id="shape1020-118" transform="translate(383.625,-148.5)">
			<title>Dynamic connector.1020</title>
			<path d="M0 603 L41.04 603" class="st6"/>
		</g>
	</g>
</svg>
