<?xml version="1.0" encoding="UTF-8" standalone="no"?>
<!DOCTYPE svg PUBLIC "-//W3C//DTD SVG 1.1//EN" "http://www.w3.org/Graphics/SVG/1.1/DTD/svg11.dtd">
<!-- Generated by Microsoft Visio, SVG Export svg_1.svg Configure the Settings on the Published Layer - See Video -->
<svg xmlns="http://www.w3.org/2000/svg" xmlns:xlink="http://www.w3.org/1999/xlink" xmlns:ev="http://www.w3.org/2001/xml-events" width="11in" height="8.5in" viewBox="0 0 792 612" xml:space="preserve" color-interpolation-filters="sRGB" class="st14">
	<style type="text/css">
	<![CDATA[
		.st1 {fill:#ffffff;stroke:#dfa202;stroke-linecap:round;stroke-linejoin:round;stroke-width:1}
		.st2 {fill:#7c5b02;font-family:Franklin Gothic Book;font-size:1.00001em}
		.st3 {font-size:1em}
		.st4 {marker-end:url(#mrkr4-13);stroke:#6bae2f;stroke-linecap:round;stroke-linejoin:round;stroke-width:0.5}
		.st5 {fill:#6bae2f;fill-opacity:1;stroke:#6bae2f;stroke-opacity:1;stroke-width:0.16556291390728}
		.st6 {fill:#ffffff;stroke:none;stroke-linecap:butt;stroke-width:7.2}
		.st7 {fill:#528722;font-family:Franklin Gothic Book;font-size:1.00001em}
		.st8 {fill:#ffffff;stroke:none;stroke-linecap:butt}
		.st9 {fill:#9cc882;stroke:#ffffff;stroke-linecap:round;stroke-linejoin:round;stroke-width:1}
		.st10 {fill:#ffffff;font-family:Franklin Gothic Book;font-size:1.00001em}
		.st11 {font-family:Symbol;font-size:1em}
		.st12 {font-family:Symbol;font-size:1.16665em}
		.st13 {font-size:1.16665em;font-weight:bold}
		.st14 {fill:none;fill-rule:evenodd;font-size:12px;overflow:visible;stroke-linecap:square;stroke-miterlimit:3}
	]]>
	</style>

	<defs id="Markers">
		<g id="lend4">
			<path d="M 2 1 L 0 0 L 2 -1 L 2 1 " style="stroke:none"/>
		</g>
		<marker id="mrkr4-13" class="st5" refX="-12.08" orient="auto" markerUnits="strokeWidth" overflow="visible">
			<use xlink:href="#lend4" transform="scale(-6.04,-6.04) "/>
		</marker>
	</defs>
	<g>
		<title>Configure the Settings on the Published Layer</title>
		<g id="shape1000-1" transform="translate(58.5,-558)">
			<title>Start/End.11.1000</title>
			<desc>START</desc>
			<path d="M13.5 612 L58.5 612 A13.5 13.5 -180 0 0 58.5 585 L13.5 585 A13.5 13.5 -180 1 0 13.5 612 Z" class="st1"/>
			<text x="19.87" y="602.1" class="st2">START</text>		</g>
		<g id="shape1001-4" transform="translate(27,-445.35)">
			<title>Decision.12.1001</title>
			<desc>Are existing features being verified?</desc>
			<path d="M0 562.42 L67.5 512.85 L135 562.42 L67.5 612 L0 562.42 Z" class="st1"/>
			<text x="15.86" y="558.83" class="st2">Are existing features <tspan x="30.34" dy="1.2em" class="st3">being verified?</tspan></text>		</g>
		<g id="shape1003-8" transform="translate(85.5,-445.35)">
			<title>Dynamic connector.1003</title>
			<desc>Yes</desc>
			<path d="M9 612 L9 641.81" class="st4"/>
			<rect x="0.0319519" y="622.725" width="17.936" height="14.4001" class="st6"/>
			<text x="0.03" y="633.53" class="st7">Yes</text>		</g>
		<g id="shape1005-16" transform="translate(162,-494.925)">
			<title>Dynamic connector.1005</title>
			<desc>No</desc>
			<path d="M0 612 L45 612 L45 710.93 L56.96 710.93" class="st4"/>
			<rect x="37.9394" y="640.763" width="14.1213" height="14.4001" class="st8"/>
			<text x="37.94" y="651.56" class="st7">No</text>		</g>
		<g id="shape1006-23" transform="translate(225,-207)">
			<title>Process.15.1006</title>
			<desc>Open the item details page for the layer or view and select t...</desc>
			<rect x="0" y="234" width="153" height="378" class="st9"/>
			<text x="8.33" y="247.76" class="st10">Open the item details page <tspan x="15.82" dy="1.2em" class="st3">for the layer or view and </tspan><tspan x="27.89" dy="1.2em" class="st3">select the following  </tspan><tspan x="2" dy="2.422em" class="st11">·</tspan><tspan class="st11"> </tspan>Prevent this item from <tspan x="20" dy="1.207em" class="st3">being accidentally </tspan><tspan x="20" dy="1.2em" class="st3">deleted  </tspan><tspan x="2" dy="2.422em" class="st11">·</tspan><tspan class="st11"> </tspan>Enable Editing  <tspan x="2" dy="2.728em" class="st12">·</tspan><tspan class="st12"> </tspan><tspan class="st13">Select </tspan><tspan class="st13">‘</tspan><tspan class="st13">Add, update, </tspan><tspan x="20" dy="1.464em" class="st13">and delete features</tspan><tspan class="st13">’  </tspan><tspan x="2" dy="3.172em" class="st11">·</tspan><tspan class="st11"> </tspan>Keep track of create and <tspan x="20" dy="1.207em" class="st3">updated features  </tspan><tspan x="2" dy="2.422em" class="st11">·</tspan><tspan class="st11"> </tspan>Keep track of who <tspan x="20" dy="1.207em" class="st3">created and last updated </tspan><tspan x="20" dy="1.2em" class="st3">features  </tspan><tspan x="2" dy="2.422em" class="st11">·</tspan><tspan class="st11"> </tspan>Enable Sync!!  <tspan x="2" dy="2.429em" class="st11">·</tspan><tspan class="st11"> </tspan>Allow others to export to <tspan x="20" dy="1.207em" class="st3">different formats</tspan></text>		</g>
		<g id="shape1011-53" transform="translate(522,-179.1)">
			<title>Process.1029</title>
			<desc>Create View of Feature Layer in AGOL. Name the view New (feat...</desc>
			<rect x="0" y="504" width="72" height="108" class="st9"/>
			<text x="6.08" y="518.4" class="st10">Create View <tspan x="10.05" dy="1.2em" class="st3">of Feature </tspan><tspan x="16.17" dy="1.2em" class="st3">Layer in </tspan><tspan x="2.56" dy="1.2em" class="st3">AGOL.  Name </tspan><tspan x="2.55" dy="1.2em" class="st3">the view New </tspan><tspan x="15.95" dy="1.2em" class="st3">(feature </tspan><tspan x="21.33" dy="1.2em" class="st3">class)</tspan></text>		</g>
		<g id="shape1013-62" transform="translate(612,-18)">
			<title>Decision.1013</title>
			<desc>Are new features being collected?</desc>
			<path d="M0 553.5 L58.5 495 L117 553.5 L58.5 612 L0 553.5 Z" class="st1"/>
			<text x="15.75" y="549.9" class="st2">Are new features <tspan x="17.26" dy="1.2em" class="st3">being collected?</tspan></text>		</g>
		<a xlink:href="svg_1.htm">
			<g id="shape1016-66" transform="translate(686.25,-567)">
				<title>Start/End.11.1016</title>
				<desc>END</desc>
				<path d="M13.5 612 L58.5 612 A13.5 13.5 -180 0 0 58.5 585 L13.5 585 A13.5 13.5 -180 1 0 13.5 612 Z" class="st1"/>
				<text x="24.89" y="602.1" class="st2">END</text>			</g>
		</a>
		<g id="shape1017-69" transform="translate(734.625,-76.5)">
			<title>Dynamic connector.1017</title>
			<desc>No</desc>
			<path d="M-5.63 612 L12.37 612 L12.37 338.4 L-12.37 338.4 L-12.37 326.44" class="st4"/>
			<rect x="5.31445" y="455.625" width="14.1213" height="14.4001" class="st6"/>
			<text x="5.31" y="466.43" class="st7">No</text>		</g>
		<g id="shape1018-76" transform="translate(85.5,-560.25)">
			<title>Dynamic connector.1018</title>
			<path d="M9 614.25 L9 621.71" class="st4"/>
		</g>
		<g id="shape1021-81" transform="translate(404.667,-368.1)">
			<title>Process.15.1021</title>
			<desc>Define the symbology for the layer or view using a single sym...</desc>
			<rect x="0" y="504" width="103.5" height="108" class="st9"/>
			<text x="25.48" y="525.6" class="st10">Define the <tspan x="7.22" dy="1.2em" class="st3">symbology for the </tspan><tspan x="5.22" dy="1.2em" class="st3">layer or view using </tspan><tspan x="6.37" dy="1.2em" class="st3">a single symbol to </tspan><tspan x="7.36" dy="1.2em" class="st3">show the location </tspan><tspan x="41.51" dy="1.2em" class="st3">only</tspan></text>		</g>
		<g id="shape1023-89" transform="translate(534.833,-386.1)">
			<title>Process.15.1023</title>
			<desc>Define the filter to be ‘created_date’ is after the (select t...</desc>
			<rect x="0" y="540" width="117" height="72" class="st9"/>
			<text x="4.92" y="558" class="st10">Define the filter to be <tspan x="2.78" dy="1.2em" class="st3">‘</tspan>created_date’ is after <tspan x="6.62" dy="1.2em" class="st3">the (select the latest </tspan><tspan x="6.57" dy="1.2em" class="st3">date from that field)</tspan>’</text>		</g>
		<g id="shape1024-95" transform="translate(508.167,-413.1)">
			<title>Dynamic connector.1024</title>
			<path d="M0 603 L20.63 603" class="st4"/>
		</g>
		<g id="shape1025-100" transform="translate(234,-40.5)">
			<title>Process.15.1025</title>
			<desc>Define the filter for the published layer to be ‘Start Date o...</desc>
			<rect x="0" y="540" width="171" height="72" class="st9"/>
			<text x="28.13" y="558" class="st10">Define the filter for the <tspan x="3.95" dy="1.2em" class="st3">published layer to be </tspan>‘Start Date <tspan x="5.58" dy="1.2em" class="st3">of Data Validity is before (select </tspan><tspan x="9.71" dy="1.2em" class="st3">the latest date from that field)</tspan></text>		</g>
		<g id="shape1027-106" transform="translate(651.833,-422.1)">
			<title>Dynamic connector.1027</title>
			<path d="M0 612 L9 612 L9 594 L12.63 594" class="st4"/>
		</g>
		<g id="shape1028-111" transform="translate(18,-49.5)">
			<title>Process.1028</title>
			<desc>Open the item details page for the layer and select the follo...</desc>
			<rect x="0" y="252" width="153" height="360" class="st9"/>
			<text x="2" y="266.36" class="st10">Open the item details page <tspan x="2" dy="1.2em" class="st3">for the layer and select the </tspan><tspan x="2" dy="1.2em" class="st3">following  </tspan><tspan x="2" dy="2.422em" class="st11">·</tspan><tspan class="st11"> </tspan>Prevent this item from <tspan x="20" dy="1.207em" class="st3">being accidentally </tspan><tspan x="20" dy="1.2em" class="st3">deleted  </tspan><tspan x="2" dy="2.207em" class="st12">·</tspan><tspan class="st12"> </tspan><tspan dx="0.501em" class="st13">Only update feature </tspan><tspan x="20" dy="1.207em" class="st13">attributes</tspan><tspan class="st13">’  </tspan><tspan x="2" dy="2.472em" class="st11">·</tspan><tspan class="st11"> </tspan>Enable Editing  <tspan x="2" dy="2.429em" class="st11">·</tspan><tspan class="st11"> </tspan>Keep track of create and <tspan x="20" dy="1.207em" class="st3">updated features  </tspan><tspan x="2" dy="2.422em" class="st11">·</tspan><tspan class="st11"> </tspan>Keep track of who <tspan x="20" dy="1.207em" class="st3">created and last updated </tspan><tspan x="20" dy="1.2em" class="st3">features  </tspan><tspan x="2" dy="2.422em" class="st11">·</tspan><tspan class="st11"> </tspan>Enable Sync!!  <tspan x="2" dy="2.429em" class="st11">·</tspan><tspan class="st11"> </tspan>Allow others to export to <tspan x="20" dy="1.207em" class="st3">different formats</tspan></text>		</g>
		<g id="shape1031-139" transform="translate(405,-67.5)">
			<title>Dynamic connector.1031</title>
			<path d="M0 603 L56.96 603" class="st4"/>
		</g>
		<g id="shape1033-144" transform="translate(94.5,-49.5)">
			<title>Dynamic connector.1033</title>
			<path d="M0 612 L0 630 L121.5 630 L121.5 585 L133.46 585" class="st4"/>
		</g>
		<g id="shape1035-149" transform="translate(540,-67.5)">
			<title>Dynamic connector.1035</title>
			<path d="M0 603 L65.96 603" class="st4"/>
		</g>
		<g id="shape1034-154" transform="translate(468,-49.5)">
			<title>Process.15.1034</title>
			<desc>Configure the Popup for the layer</desc>
			<rect x="0" y="558" width="72" height="54" class="st9"/>
			<text x="11.68" y="574.2" class="st10">Configure <tspan x="10.16" dy="1.2em" class="st3">the Popup </tspan><tspan x="5.75" dy="1.2em" class="st3">for the layer</tspan></text>		</g>
		<g id="shape1036-159" transform="translate(522,-233.1)">
			<title>Dynamic connector.1036</title>
			<path d="M0 612 L-18 612 L-18 656.1 L-220.5 656.1 L-220.5 644.14" class="st4"/>
		</g>
		<g id="shape1037-164" transform="translate(670.5,-135)">
			<title>Dynamic connector.1037</title>
			<desc>Yes</desc>
			<path d="M0 612 L0 585.9 L-112.5 585.9 L-112.5 573.94" class="st4"/>
			<rect x="-61.1681" y="578.7" width="17.936" height="14.4001" class="st8"/>
			<text x="-61.17" y="589.5" class="st7">Yes</text>		</g>
		<g id="shape1039-171" transform="translate(378,-396)">
			<title>Dynamic connector.1039</title>
			<path d="M0 612 L9 612 L9 585.9 L20.63 585.9" class="st4"/>
		</g>
		<g id="shape1040-176" transform="translate(670.5,-368.1)">
			<title>Process.15.1040</title>
			<desc>Share each layer and view with the Published Layers Group. Ve...</desc>
			<rect x="0" y="468" width="103.5" height="144" class="st9"/>
			<text x="9.35" y="486" class="st10">Share each layer <tspan x="7.75" dy="1.2em" class="st3">and view with the </tspan><tspan x="8.8" dy="1.2em" class="st3">Published Layers </tspan><tspan x="6.23" dy="1.2em" class="st3">Group.  Verify that </tspan><tspan x="2.03" dy="1.2em" class="st3">all people doing the </tspan><tspan x="13.83" dy="1.2em" class="st3">collection have </tspan><tspan x="5.37" dy="1.2em" class="st3">been added to the </tspan><tspan x="8.8" dy="1.2em" class="st3">Published Layers </tspan><tspan x="35.75" dy="1.2em" class="st3">group.</tspan></text>		</g>
		<g id="shape1041-187" transform="translate(713.25,-512.1)">
			<title>Dynamic connector.1041</title>
			<path d="M9 612 L9 563.14" class="st4"/>
		</g>
	</g>
</svg>
