<?xml version="1.0" encoding="UTF-8" standalone="no"?>
<!DOCTYPE svg PUBLIC "-//W3C//DTD SVG 1.1//EN" "http://www.w3.org/Graphics/SVG/1.1/DTD/svg11.dtd">
<!-- Generated by Microsoft Visio, SVG Export svg_1.svg Create WebMap -->
<svg xmlns="http://www.w3.org/2000/svg" xmlns:xlink="http://www.w3.org/1999/xlink" xmlns:ev="http://www.w3.org/2001/xml-events" width="11in" height="8.5in" viewBox="0 0 792 612" xml:space="preserve" color-interpolation-filters="sRGB" class="st13">
	<style type="text/css">
	<![CDATA[
		.st1 {fill:#ffffff;stroke:#dfa202;stroke-linecap:round;stroke-linejoin:round;stroke-width:1}
		.st2 {fill:#7c5b02;font-family:Franklin Gothic Book;font-size:0.666664em}
		.st3 {fill:#9cc882;stroke:#ffffff;stroke-linecap:round;stroke-linejoin:round;stroke-width:1}
		.st4 {fill:#ffffff;font-family:Franklin Gothic Book;font-size:0.666664em}
		.st5 {font-size:1em}
		.st6 {marker-end:url(#mrkr4-25);stroke:#6bae2f;stroke-linecap:round;stroke-linejoin:round;stroke-width:0.5}
		.st7 {fill:#6bae2f;fill-opacity:1;stroke:#6bae2f;stroke-opacity:1;stroke-width:0.16556291390728}
		.st8 {fill:#ffffff;stroke:none;stroke-linecap:butt}
		.st9 {fill:#528722;font-family:Franklin Gothic Book;font-size:0.666664em}
		.st10 {fill:#ffffff;stroke:none;stroke-linecap:butt;stroke-width:7.2}
		.st11 {font-size:1em;font-weight:bold}
		.st12 {font-family:Symbol;font-size:1em}
		.st13 {fill:none;fill-rule:evenodd;font-size:12px;overflow:visible;stroke-linecap:square;stroke-miterlimit:3}
	]]>
	</style>

	<defs id="Markers">
		<g id="lend4">
			<path d="M 2 1 L 0 0 L 2 -1 L 2 1 " style="stroke:none"/>
		</g>
		<marker id="mrkr4-25" class="st7" refX="-12.08" orient="auto" markerUnits="strokeWidth" overflow="visible">
			<use xlink:href="#lend4" transform="scale(-6.04,-6.04) "/>
		</marker>
	</defs>
	<g>
		<title>Create WebMap</title>
		<g id="shape1000-1" transform="translate(27,-567)">
			<title>Start/End.11.1000</title>
			<desc>START</desc>
			<path d="M13.5 612 L58.5 612 A13.5 13.5 -180 0 0 58.5 585 L13.5 585 A13.5 13.5 -180 1 0 13.5 612 Z" class="st1"/>
			<text x="25.25" y="600.9" class="st2">START</text>		</g>
		<g id="shape1001-4" transform="translate(27,-495)">
			<title>Process.15.1001</title>
			<desc>Add the published layer to a new Web Map - See Video</desc>
			<rect x="0" y="558" width="72" height="54" class="st3"/>
			<text x="5.54" y="568.2" class="st4">Add the published <tspan x="4.07" dy="1.2em" class="st5">layer to a new Web </tspan><tspan x="28.51" dy="1.2em" class="st5">Map  </tspan><tspan x="17.18" dy="2.4em" class="st5">-</tspan> See Video</text>		</g>
		<g id="shape1002-10" transform="translate(18,-387)">
			<title>Decision.12.1002</title>
			<desc>Did you create a Layer View for collecting new features?</desc>
			<path d="M0 567 L45 522 L90 567 L45 612 L0 567 Z" class="st1"/>
			<text x="17.63" y="555" class="st2">Did you create a <tspan x="21.47" dy="1.2em" class="st5">Layer View for </tspan><tspan x="21.09" dy="1.2em" class="st5">collecting new </tspan><tspan x="28.93" dy="1.2em" class="st5">features?</tspan></text>		</g>
		<g id="shape1003-16" transform="translate(27,-306)">
			<title>Process.15.1003</title>
			<desc>Add the View to the webmap</desc>
			<rect x="0" y="558" width="72" height="54" class="st3"/>
			<text x="3.49" y="582.6" class="st4">Add the View to the <tspan x="21.61" dy="1.2em" class="st5">webmap</tspan></text>		</g>
		<g id="shape1004-20" transform="translate(54,-387)">
			<title>Dynamic connector.1004</title>
			<desc>Yes</desc>
			<path d="M9 612 L9 632.96" class="st6"/>
			<rect x="3.02158" y="620.7" width="11.957" height="9.59985" class="st8"/>
			<text x="3.02" y="627.9" class="st9">Yes</text>		</g>
		<g id="shape1005-28" transform="translate(54,-567)">
			<title>Dynamic connector.1005</title>
			<path d="M9 612 L9 623.96" class="st6"/>
		</g>
		<g id="shape1006-33" transform="translate(54,-495)">
			<title>Dynamic connector.1006</title>
			<path d="M9 612 L9 623.96" class="st6"/>
		</g>
		<g id="shape1007-38" transform="translate(162,-396)">
			<title>Process.15.1007</title>
			<desc>Add the Aerial Imagery 1ft Web Mercator as the basemap - See ...</desc>
			<rect x="0" y="540" width="72" height="72" class="st3"/>
			<text x="12.58" y="554.4" class="st4">Add the Aerial <tspan x="8.33" dy="1.2em" class="st5">Imagery 1ft Web </tspan><tspan x="9.31" dy="1.2em" class="st5">Mercator as the </tspan><tspan x="20.29" dy="1.2em" class="st5">basemap  </tspan><tspan x="17.18" dy="2.4em" class="st5">-</tspan> See Video</text>		</g>
		<g id="shape1008-45" transform="translate(108,-441)">
			<title>Dynamic connector.1008</title>
			<desc>No</desc>
			<path d="M0 621 L47.96 621" class="st6"/>
			<rect x="22.293" y="616.2" width="9.41391" height="9.59985" class="st10"/>
			<text x="22.29" y="623.4" class="st9">No</text>		</g>
		<g id="shape1009-52" transform="translate(63,-306)">
			<title>Dynamic connector.1009</title>
			<path d="M0 612 L0 630 L135 630 L135 528.04" class="st6"/>
		</g>
		<g id="shape1011-57" transform="translate(189,-468)">
			<title>Dynamic connector.1011</title>
			<path d="M9 612 L9 582.04" class="st6"/>
		</g>
		<g id="shape1012-62" transform="translate(378,-369)">
			<title>Process.15.1012</title>
			<desc>Share the web map with the Web Map Group. When prompted to up...</desc>
			<rect x="0" y="468" width="72" height="144" class="st3"/>
			<text x="3.18" y="480" class="st4">Share the web map <tspan x="5.57" dy="1.2em" class="st5">with the Web Map </tspan><tspan x="13.03" dy="1.2em" class="st5">Group.  When </tspan><tspan x="2.41" dy="1.2em" class="st5">prompted to update </tspan><tspan x="5.31" dy="1.2em" class="st5">the sharing on the </tspan><tspan x="8.3" dy="1.2em" class="st5">layers select </tspan><tspan class="st11">No</tspan>.   <tspan x="12.98" dy="2.4em" class="st5"> </tspan>Verify that all <tspan x="7.81" dy="1.2em" class="st5">people doing the </tspan><tspan x="10.27" dy="1.2em" class="st5">Collection have </tspan><tspan x="5.08" dy="1.2em" class="st5">been added to the </tspan><tspan x="8.34" dy="1.2em" class="st5">Web Map group.  </tspan><tspan x="17.18" dy="2.4em" class="st5">-</tspan> See Video</text>		</g>
		<g id="shape1014-77" transform="translate(270,-306)">
			<title>Process.15.1014</title>
			<desc>Open the Settings page for the Web Map and select the followi...</desc>
			<rect x="0" y="342" width="72" height="270" class="st3"/>
			<text x="2" y="354.25" class="st4">Open the Settings <tspan x="2" dy="1.2em" class="st5">page for the Web </tspan><tspan x="2" dy="1.2em" class="st5">Map and select the </tspan><tspan x="2" dy="1.2em" class="st5">following.  </tspan><tspan x="2" dy="2.422em" class="st12">·</tspan><tspan class="st12"> </tspan>Prevent this <tspan x="20" dy="1.207em" class="st5">item from </tspan><tspan x="20" dy="1.2em" class="st5">being </tspan><tspan x="20" dy="1.2em" class="st5">accidentally </tspan><tspan x="20" dy="1.2em" class="st5">deleted  </tspan><tspan x="2" dy="2.422em" class="st12">·</tspan><tspan class="st12"> </tspan>Verify that <tspan x="20" dy="1.207em" class="st5">Enable Offline </tspan><tspan x="20" dy="1.2em" class="st5">Mode is </tspan><tspan x="20" dy="1.2em" class="st5">checked  </tspan><tspan x="2" dy="2.422em" class="st12">·</tspan><tspan class="st12"> </tspan>In the <tspan x="20" dy="1.207em" class="st5">Advanced </tspan><tspan x="20" dy="1.2em" class="st5">Options verify </tspan><tspan x="20" dy="1.2em" class="st5">that all </tspan><tspan x="20" dy="1.2em" class="st5">options are </tspan><tspan x="20" dy="1.2em" class="st5">checked for </tspan><tspan x="20" dy="1.2em" class="st5">retrieving </tspan><tspan x="20" dy="1.2em" class="st5">features and </tspan><tspan x="20" dy="1.2em" class="st5">attachments </tspan><tspan x="20" dy="1.2em" class="st5">from the </tspan><tspan x="20" dy="1.2em" class="st5">server</tspan></text>		</g>
		<g id="shape1016-106" transform="translate(342,-432)">
			<title>Dynamic connector.1016</title>
			<path d="M0 603 L29.96 603" class="st6"/>
		</g>
		<a xlink:href="svg_2.htm">
			<g id="shape1017-111" transform="translate(522,-427.5)">
				<title>Start/End.11.1017</title>
				<desc>END</desc>
				<path d="M13.5 612 L58.5 612 A13.5 13.5 -180 0 0 58.5 585 L13.5 585 A13.5 13.5 -180 1 0 13.5 612 Z" class="st1"/>
				<text x="28.59" y="600.9" class="st2">END</text>			</g>
		</a>
		<g id="shape1018-114" transform="translate(450,-450)">
			<title>Dynamic connector.1018</title>
			<path d="M0 621 L65.96 621" class="st6"/>
		</g>
		<g id="shape1020-119" transform="translate(234,-531)">
			<title>Dynamic connector.1020</title>
			<path d="M0 612 L18 612 L18 702 L29.96 702" class="st6"/>
		</g>
		<g id="shape1019-124" transform="translate(162,-504)">
			<title>Process.15.1019</title>
			<desc>Save the Web Map</desc>
			<rect x="0" y="558" width="72" height="54" class="st3"/>
			<text x="4.26" y="587.4" class="st4">Save the Web Map</text>		</g>
	</g>
</svg>
