<?xml version="1.0" encoding="UTF-8" standalone="no"?>
<!DOCTYPE svg PUBLIC "-//W3C//DTD SVG 1.1//EN" "http://www.w3.org/Graphics/SVG/1.1/DTD/svg11.dtd">
<!-- Generated by Microsoft Visio, SVG Export svg_1.svg Build the Project -->
<svg xmlns="http://www.w3.org/2000/svg" xmlns:xlink="http://www.w3.org/1999/xlink" xmlns:ev="http://www.w3.org/2001/xml-events" width="11in" height="8.5in" viewBox="0 0 792 612" xml:space="preserve" color-interpolation-filters="sRGB" class="st13">
	<style type="text/css">
	<![CDATA[
		.st1 {fill:#ffffff;stroke:#dfa202;stroke-linecap:round;stroke-linejoin:round;stroke-width:1}
		.st2 {fill:#7c5b02;font-family:Franklin Gothic Book;font-size:0.666664em}
		.st3 {fill:#9cc882;stroke:#ffffff;stroke-linecap:round;stroke-linejoin:round;stroke-width:1}
		.st4 {fill:#ffffff;font-family:Franklin Gothic Book;font-size:1.00001em}
		.st5 {font-size:1em}
		.st6 {fill:#7c5b02;font-family:Franklin Gothic Book;font-size:1.00001em}
		.st7 {marker-end:url(#mrkr4-44);stroke:#6bae2f;stroke-linecap:round;stroke-linejoin:round;stroke-width:0.5}
		.st8 {fill:#6bae2f;fill-opacity:1;stroke:#6bae2f;stroke-opacity:1;stroke-width:0.16556291390728}
		.st9 {fill:#ffffff;stroke:none;stroke-linecap:butt;stroke-width:7.2}
		.st10 {fill:#528722;font-family:Franklin Gothic Book;font-size:0.666664em}
		.st11 {fill:#7eb6aa;stroke:#ffffff;stroke-linecap:round;stroke-linejoin:round;stroke-width:1}
		.st12 {marker-end:url(#mrkr4-92);stroke:#6bae2f;stroke-linecap:round;stroke-linejoin:round;stroke-width:0.5}
		.st13 {fill:none;fill-rule:evenodd;font-size:12px;overflow:visible;stroke-linecap:square;stroke-miterlimit:3}
	]]>
	</style>

	<defs id="Markers">
		<g id="lend4">
			<path d="M 2 1 L 0 0 L 2 -1 L 2 1 " style="stroke:none"/>
		</g>
		<marker id="mrkr4-44" class="st8" refX="-12.08" orient="auto" markerUnits="strokeWidth" overflow="visible">
			<use xlink:href="#lend4" transform="scale(-6.04,-6.04) "/>
		</marker>
		<marker id="mrkr4-92" class="st8" refX="-0" orient="auto" markerUnits="strokeWidth" overflow="visible">
			<use xlink:href="#lend4" transform="scale(-6.04,-6.04) "/>
		</marker>
	</defs>
	<g>
		<title>Incorporate Data Changes</title>
		<g id="shape1039-1" transform="translate(76.5,-567)">
			<title>Start/End.11.1039</title>
			<desc>START</desc>
			<path d="M13.5 612 L58.5 612 A13.5 13.5 -180 0 0 58.5 585 L13.5 585 A13.5 13.5 -180 1 0 13.5 612 Z" class="st1"/>
			<text x="25.25" y="600.9" class="st2">START</text>		</g>
		<g id="shape1042-4" transform="translate(234,-504)">
			<title>Process.15</title>
			<desc>Add the feature class that is being updated to the current ma...</desc>
			<rect x="0" y="558" width="189" height="54" class="st3"/>
			<text x="8.22" y="574.2" class="st4">Add the feature class that is being <tspan x="9.42" dy="1.2em" class="st5">updated to the current map along </tspan><tspan x="19.43" dy="1.2em" class="st5">with the downloaded features</tspan></text>		</g>
		<g id="shape1043-9" transform="translate(600.79,-427.5)">
			<title>Process.1024</title>
			<desc>For each of the downloaded features, look at the assetID</desc>
			<rect x="0" y="558" width="151.347" height="54" class="st3"/>
			<text x="5.23" y="581.4" class="st4">For each of the downloaded <tspan x="4.16" dy="1.2em" class="st5">features, look at the assetID</tspan></text>		</g>
		<g id="shape1044-13" transform="translate(649.538,-188.867)">
			<title>Process.1028</title>
			<desc>Select the downloaded feature</desc>
			<rect x="0" y="558" width="122.923" height="54" class="st3"/>
			<text x="3.73" y="581.4" class="st4">Select the downloaded <tspan x="43.17" dy="1.2em" class="st5">feature</tspan></text>		</g>
		<g id="shape1045-17" transform="translate(383.493,-76.6223)">
			<title>Process.1012</title>
			<desc>Review data updates by running data reviewer checks</desc>
			<rect x="0" y="558" width="120.507" height="54" class="st3"/>
			<text x="7.23" y="574.2" class="st4">Review data updates <tspan x="20.81" dy="1.2em" class="st5">by running data </tspan><tspan x="19.62" dy="1.2em" class="st5">reviewer checks</tspan></text>		</g>
		<g id="shape1046-22" transform="translate(666,-58.6223)">
			<title>Process.1043</title>
			<desc>Verify that the updates were successfully posted to the master</desc>
			<rect x="0" y="522" width="90" height="90" class="st3"/>
			<text x="9.7" y="541.8" class="st4">Verify that the <tspan x="10.68" dy="1.2em" class="st5">updates were </tspan><tspan x="14.39" dy="1.2em" class="st5">successfully </tspan><tspan x="11.52" dy="1.2em" class="st5">posted to the </tspan><tspan x="27.21" dy="1.2em" class="st5">master</tspan></text>		</g>
		<g id="shape1055-29" transform="translate(18,-504)">
			<title>Process.1025</title>
			<desc>Connect to the Sub-Default Version of the Master Geodatabase ...</desc>
			<rect x="0" y="558" width="189" height="54" class="st3"/>
			<text x="5.78" y="574.2" class="st4">Connect to the Sub-Default Version <tspan x="2.94" dy="1.2em" class="st5">of the Master Geodatabase by using </tspan><tspan x="37.05" dy="1.2em" class="st5">the sde connection file</tspan></text>		</g>
		<g id="shape1057-34" transform="translate(104.707,-340.761)">
			<title>Decision.1027</title>
			<desc>Is the last_edited_date field on the downloaded feature more ...</desc>
			<path d="M0 532.63 L138.9 453.26 L277.79 532.63 L138.9 612 L0 532.63 Z" class="st1"/>
			<text x="50.93" y="521.83" class="st6">Is the last_edited_date field on the <tspan x="33.33" dy="1.2em" class="st5">downloaded feature more recent than the </tspan><tspan x="40.16" dy="1.2em" class="st5">same field in the master feature class?</tspan></text>		</g>
		<g id="shape1059-39" transform="translate(600.79,-445.5)">
			<title>Dynamic connector.1029</title>
			<path d="M0 603 L-27.47 603" class="st7"/>
		</g>
		<g id="shape1060-45" transform="translate(430.41,-409.5)">
			<title>Decision.1030</title>
			<desc>Is the assetID value Null?</desc>
			<path d="M0 567 L68.43 522 L136.87 567 L68.43 612 L0 567 Z" class="st1"/>
			<text x="18.73" y="563.4" class="st6">Is the assetID value <tspan x="55.45" dy="1.2em" class="st5">Null?</tspan></text>		</g>
		<g id="shape1062-49" transform="translate(586.653,-265.411)">
			<title>Decision.1032</title>
			<desc>This is a new feature location! Is there a feature ID In the ...</desc>
			<path d="M0 544.5 L89.81 477 L179.62 544.5 L89.81 612 L0 544.5 Z" class="st1"/>
			<text x="37.51" y="526.5" class="st6">This is a new feature <tspan x="21.59" dy="1.2em" class="st5">location!  Is there a feature </tspan><tspan x="28.93" dy="1.2em" class="st5">ID In the </tspan>‘MOVE TO THIS <tspan x="47.31" dy="1.2em" class="st5">LOCATION</tspan>’ field?</text>		</g>
		<g id="shape1063-55" transform="translate(498.845,-413.956)">
			<title>Dynamic connector.1033</title>
			<desc>Yes</desc>
			<path d="M0 616.46 L0 625.46 L65.43 625.46 A3 3 0 0 1 71.43 625.46 L77.43 625.46 L77.43 607.54 L177.62 607.54 L177.62&#xA;						 619.5" class="st7"/>
			<rect x="78.3751" y="602.745" width="11.957" height="9.59985" class="st9"/>
			<text x="78.38" y="609.94" class="st10">Yes</text>		</g>
		<g id="shape1064-62" transform="translate(414,-305.911)">
			<title>Process.1034</title>
			<desc>Select from the master feature class, the feature with this ID</desc>
			<rect x="0" y="558" width="122.923" height="54" class="st3"/>
			<text x="3.51" y="574.2" class="st4">Select from the master <tspan x="17.55" dy="1.2em" class="st5">feature class, the </tspan><tspan x="13.6" dy="1.2em" class="st5">feature with this ID</tspan></text>		</g>
		<g id="shape1065-67" transform="translate(586.653,-323.911)">
			<title>Dynamic connector.1035</title>
			<desc>Yes</desc>
			<path d="M0 603 L-43.69 603" class="st7"/>
			<rect x="-30.8434" y="598.2" width="11.957" height="9.59985" class="st9"/>
			<text x="-30.84" y="605.4" class="st10">Yes</text>		</g>
		<g id="shape1068-74" transform="translate(676.463,-265.411)">
			<title>Dynamic connector.1038</title>
			<desc>No</desc>
			<path d="M0 612 L0 621 L34.54 621 L34.54 628.5" class="st7"/>
			<rect x="14.8336" y="616.2" width="9.41391" height="9.59985" class="st9"/>
			<text x="14.83" y="623.4" class="st10">No</text>		</g>
		<g id="shape1069-81" transform="translate(66.565,-135)">
			<title>Process.1039</title>
			<desc>Copy attributes from the downloaded feature and paste them in...</desc>
			<rect x="0" y="540" width="136.87" height="72" class="st11"/>
			<text x="7.22" y="558" class="st4">Copy attributes from the <tspan x="6.65" dy="1.2em" class="st5">downloaded feature and </tspan><tspan x="18.91" dy="1.2em" class="st5">paste them into the </tspan><tspan x="10" dy="1.2em" class="st5">related master feature.</tspan></text>		</g>
		<g id="shape1070-87" transform="translate(240.803,-340.761)">
			<title>Dynamic connector.1070</title>
			<desc>Yes</desc>
			<path d="M2.8 612 L2.8 614.25 L17.45 614.25 L17.45 670.31 L15.2 670.31" class="st12"/>
			<rect x="11.4716" y="630.157" width="11.957" height="9.59985" class="st9"/>
			<text x="11.47" y="637.36" class="st10">Yes</text>		</g>
		<g id="shape1071-95" transform="translate(18,-292.5)">
			<title>Process.1041</title>
			<desc>No change needed on the original feature</desc>
			<rect x="0" y="540" width="72" height="72" class="st3"/>
			<text x="8.91" y="558" class="st4">No change <tspan x="9.05" dy="1.2em" class="st5">needed on </tspan><tspan x="7.69" dy="1.2em" class="st5">the original </tspan><tspan x="17.71" dy="1.2em" class="st5">feature</tspan></text>		</g>
		<g id="shape1072-101" transform="translate(104.707,-420.13)">
			<title>Dynamic connector.1042</title>
			<desc>No</desc>
			<path d="M0 612 L-50.71 612 L-50.71 661.59" class="st7"/>
			<rect x="-55.4137" y="609.662" width="9.41391" height="9.59985" class="st9"/>
			<text x="-55.41" y="616.86" class="st10">No</text>		</g>
		<g id="shape1073-108" transform="translate(180,-18)">
			<title>Decision.1044</title>
			<desc>Have all of the downloaded features been inspected?</desc>
			<path d="M0 550.54 L61.46 489.08 L122.92 550.54 L61.46 612 L0 550.54 Z" class="st1"/>
			<text x="25.05" y="532.54" class="st6">Have all of the <tspan x="30.62" dy="1.2em" class="st5">downloaded </tspan><tspan x="26.17" dy="1.2em" class="st5">features been </tspan><tspan x="33.69" dy="1.2em" class="st5">inspected?</tspan></text>		</g>
		<g id="shape1074-114" transform="translate(54,-292.5)">
			<title>Dynamic connector.1045</title>
			<path d="M0 612 L0 825.04 L119.96 825.04" class="st7"/>
		</g>
		<g id="shape1075-119" transform="translate(135,-135)">
			<title>Dynamic connector.1046</title>
			<path d="M0 612 L0 667.54 L38.96 667.54" class="st7"/>
		</g>
		<g id="shape1079-124" transform="translate(241.462,-18)">
			<title>Dynamic connector.1050</title>
			<desc>Yes</desc>
			<path d="M0 612 L124.03 612 L124.03 526.38 L135.99 526.38" class="st7"/>
			<rect x="107.849" y="607.2" width="11.957" height="9.59985" class="st9"/>
			<text x="107.85" y="614.4" class="st10">Yes</text>		</g>
		<g id="shape1081-131" transform="translate(504,-94.6223)">
			<title>Dynamic connector.1052</title>
			<path d="M0 603 L20.96 603" class="st7"/>
		</g>
		<a xlink:href="svg_1.htm">
			<g id="shape1082-136" transform="translate(675,-18)">
				<title>Start/End.1053</title>
				<desc>END</desc>
				<path d="M13.5 612 L58.5 612 A13.5 13.5 -180 0 0 58.5 585 L13.5 585 A13.5 13.5 -180 1 0 13.5 612 Z" class="st1"/>
				<text x="28.59" y="600.9" class="st2">END</text>			</g>
		</a>
		<g id="shape1083-139" transform="translate(702,-60.8111)">
			<title>Dynamic connector.1083</title>
			<path d="M9 614.19 L9 621.77" class="st7"/>
		</g>
		<g id="shape1084-144" transform="translate(639,-94.6223)">
			<title>Dynamic connector.1084</title>
			<path d="M0 603 L20.96 603" class="st7"/>
		</g>
		<g id="shape1085-149" transform="translate(531,-76.6223)">
			<title>Process.1055</title>
			<desc>Reconcile and Post the changes with the Default Version</desc>
			<rect x="0" y="558" width="108" height="54" class="st3"/>
			<text x="5.6" y="574.2" class="st4">Reconcile and Post <tspan x="11.03" dy="1.2em" class="st5">the changes with </tspan><tspan x="5.49" dy="1.2em" class="st5">the Default Version</tspan></text>		</g>
		<g id="shape1086-154" transform="translate(103.5,-571.5)">
			<title>Dynamic connector.1086</title>
			<path d="M9 616.5 L9 619.46" class="st7"/>
		</g>
		<g id="shape1087-159" transform="translate(207,-522)">
			<title>Dynamic connector.1087</title>
			<path d="M0 603 L20.96 603" class="st7"/>
		</g>
		<g id="shape1088-164" transform="translate(423,-528.75)">
			<title>Dynamic connector.1088</title>
			<path d="M0 609.75 L18 609.75 L18 596.25 L38.96 596.25" class="st7"/>
		</g>
		<g id="shape1089-169" transform="translate(585,-499.5)">
			<title>Process.15.1089</title>
			<desc>Build a table Relate between the downloaded features and the ...</desc>
			<rect x="0" y="522" width="184.5" height="90" class="st3"/>
			<text x="9.76" y="541.8" class="st4">Build a table Relate between the <tspan x="17.97" dy="1.2em" class="st5">downloaded features and the </tspan><tspan x="15.44" dy="1.2em" class="st5">master feature class using the </tspan><tspan x="19.54" dy="1.2em" class="st5">assetID and GLOBALID fields </tspan><tspan x="62.33" dy="1.2em" class="st5">respectively</tspan></text>		</g>
		<g id="shape1091-176" transform="translate(430.41,-454.5)">
			<title>Dynamic connector.1091</title>
			<desc>No</desc>
			<path d="M0 612 L-18 612 L-18 646.37 L-41.87 646.37" class="st7"/>
			<rect x="-22.707" y="630.34" width="9.41391" height="9.59985" class="st9"/>
			<text x="-22.71" y="637.54" class="st10">No</text>		</g>
		<g id="shape1095-183" transform="translate(685.857,-499.5)">
			<title>Dynamic connector.1095</title>
			<path d="M-8.61 612 L-8.61 621 L-9.39 621 L-9.39 623.96" class="st7"/>
		</g>
		<g id="shape1097-188" transform="translate(540,-535.5)">
			<title>Dynamic connector.1097</title>
			<path d="M0 603 L38.96 603" class="st7"/>
		</g>
		<g id="shape1096-193" transform="translate(468,-508.5)">
			<title>Process.15.1096</title>
			<desc>Start an Edit Session on the master feature class</desc>
			<rect x="0" y="540" width="72" height="72" class="st3"/>
			<text x="4.58" y="558" class="st4">Start an Edit <tspan x="8.28" dy="1.2em" class="st5">Session on </tspan><tspan x="8.5" dy="1.2em" class="st5">the master </tspan><tspan x="3.3" dy="1.2em" class="st5">feature class</tspan></text>		</g>
		<g id="shape1099-199" transform="translate(112.5,-282.447)">
			<title>Dynamic connector.1099</title>
			<desc>No</desc>
			<path d="M0 612 L-9 612 L-9 678.45 L22.5 678.45 L22.5 681.41" class="st7"/>
			<rect x="-13.707" y="656.174" width="9.41391" height="9.59985" class="st9"/>
			<text x="-13.71" y="663.37" class="st10">No</text>		</g>
		<g id="shape1098-206" transform="translate(112.5,-228.633)">
			<title>Decision.12.1098</title>
			<desc>Has the Status been changed to destroyed?</desc>
			<path d="M0 558.19 L71.75 504.37 L143.5 558.19 L71.75 612 L0 558.19 Z" class="st1"/>
			<text x="20.2" y="554.59" class="st6">Has the Status been <tspan x="14.07" dy="1.2em" class="st5">changed to destroyed?</tspan></text>		</g>
		<g id="shape1100-210" transform="translate(274.003,-184.622)">
			<title>Process.15.1100</title>
			<desc>Delete the related feature from the master feature class</desc>
			<rect x="0" y="540" width="90" height="72" class="st11"/>
			<text x="18.81" y="558" class="st4">Delete the <tspan x="7.36" dy="1.2em" class="st5">related feature </tspan><tspan x="4.23" dy="1.2em" class="st5">from the master </tspan><tspan x="12.3" dy="1.2em" class="st5">feature class</tspan></text>		</g>
		<g id="shape1101-216" transform="translate(184.252,-233.628)">
			<title>Dynamic connector.1101</title>
			<desc>Yes</desc>
			<path d="M0 616.99 L0 625.01 L83.71 625.01" class="st7"/>
			<rect x="34.8919" y="620.206" width="11.957" height="9.59985" class="st9"/>
			<text x="34.89" y="627.41" class="st10">Yes</text>		</g>
		<g id="shape1102-223" transform="translate(302.923,-79.4617)">
			<title>Dynamic connector.1102</title>
			<desc>No</desc>
			<path d="M0 612 L48.08 612 L48.08 533.96 L88.58 533.96 L88.58 304.46 L264.36 304.46 L264.36 243" class="st7"/>
			<rect x="43.3696" y="567.594" width="9.41391" height="9.59985" class="st9"/>
			<text x="43.37" y="574.79" class="st10">No</text>		</g>
		<g id="shape1103-230" transform="translate(319.003,-184.622)">
			<title>Dynamic connector.1103</title>
			<path d="M0 612 L0 630 L-77.54 630 L-77.54 649.66" class="st7"/>
		</g>
		<g id="shape1104-235" transform="translate(466.462,-310.456)">
			<title>Dynamic connector.1104</title>
			<path d="M9 616.54 L9 619.42" class="st7"/>
		</g>
		<g id="shape1105-240" transform="translate(649.538,-209.183)">
			<title>Dynamic connector.1105</title>
			<path d="M0 605.32 L-9 605.32 L-9 600.68 L-13.5 600.68" class="st7"/>
		</g>
		<g id="shape1107-245" transform="translate(475.462,-162.089)">
			<title>Dynamic connector.1107</title>
			<path d="M0 612 L0 621 L-121.46 621 A3 3 -180 0 0 -127.46 621 L-234 621 L-234 627.13" class="st7"/>
		</g>
		<g id="shape1106-250" transform="translate(407.027,-162.089)">
			<title>Process.15.1106</title>
			<desc>Copy any attributes from the downloaded feature and paste the...</desc>
			<rect x="0" y="540" width="136.87" height="72" class="st11"/>
			<text x="6.51" y="558" class="st4">Copy any attributes from <tspan x="8.09" dy="1.2em" class="st5">the downloaded feature </tspan><tspan x="7.75" dy="1.2em" class="st5">and paste them into the </tspan><tspan x="7.95" dy="1.2em" class="st5">selected master feature</tspan></text>		</g>
		<g id="shape1109-256" transform="translate(466.462,-247.544)">
			<title>Dynamic connector.1109</title>
			<path d="M9 616.54 L9 619.42" class="st7"/>
		</g>
		<g id="shape1108-261" transform="translate(414,-243)">
			<title>Process.15.1108</title>
			<desc>Move the selected feature to the location of this point</desc>
			<rect x="0" y="558" width="122.923" height="54" class="st11"/>
			<text x="15.05" y="574.2" class="st4">Move the selected <tspan x="5.44" dy="1.2em" class="st5">feature to the location </tspan><tspan x="31.5" dy="1.2em" class="st5">of this point</tspan></text>		</g>
		<g id="shape1110-266" transform="translate(558,-175.5)">
			<title>Process.15.1110</title>
			<desc>Append the layer selection to the master feature class</desc>
			<rect x="0" y="522" width="72" height="90" class="st11"/>
			<text x="7.06" y="541.8" class="st4">Append the <tspan x="23.86" dy="1.2em" class="st5">layer </tspan><tspan x="6.74" dy="1.2em" class="st5">selection to </tspan><tspan x="8.5" dy="1.2em" class="st5">the master </tspan><tspan x="3.3" dy="1.2em" class="st5">feature class</tspan></text>		</g>
		<g id="shape1111-273" transform="translate(594,-175.5)">
			<title>Dynamic connector.1111</title>
			<path d="M0 612 L0 634.41 L-240 634.41 A3 3 -180 0 0 -246 634.41 L-352.54 634.41 L-352.54 640.54" class="st7"/>
		</g>
	</g>
</svg>
