<?xml version="1.0" encoding="UTF-8" standalone="no"?>
<!DOCTYPE svg PUBLIC "-//W3C//DTD SVG 1.1//EN" "http://www.w3.org/Graphics/SVG/1.1/DTD/svg11.dtd">
<!-- Generated by Microsoft Visio, SVG Export svg_1.svg Overview -->
<svg xmlns="http://www.w3.org/2000/svg" xmlns:xlink="http://www.w3.org/1999/xlink" xmlns:ev="http://www.w3.org/2001/xml-events" width="8.5in" height="11in" viewBox="0 0 612 792" xml:space="preserve" color-interpolation-filters="sRGB" class="st10">
	<style type="text/css">
	<![CDATA[
		.st1 {fill:#ffffff;stroke:#dfa202;stroke-linecap:round;stroke-linejoin:round;stroke-width:1}
		.st2 {fill:#7c5b02;font-family:Franklin Gothic Book;font-size:1.00001em}
		.st3 {marker-end:url(#mrkr4-9);stroke:#6bae2f;stroke-linecap:round;stroke-linejoin:round;stroke-width:0.5}
		.st4 {fill:#6bae2f;fill-opacity:1;stroke:#6bae2f;stroke-opacity:1;stroke-width:0.16556291390728}
		.st5 {fill:#ffffff;stroke:none;stroke-linecap:butt;stroke-width:7.2}
		.st6 {fill:#528722;font-family:Franklin Gothic Book;font-size:0.666664em}
		.st7 {font-size:1em}
		.st8 {fill:#9cc882;stroke:#ffffff;stroke-linecap:round;stroke-linejoin:round;stroke-width:1}
		.st9 {fill:#ffffff;font-family:Franklin Gothic Book;font-size:1.00001em}
		.st10 {fill:none;fill-rule:evenodd;font-size:12px;overflow:visible;stroke-linecap:square;stroke-miterlimit:3}
	]]>
	</style>

	<defs id="Markers">
		<g id="lend4">
			<path d="M 2 1 L 0 0 L 2 -1 L 2 1 " style="stroke:none"/>
		</g>
		<marker id="mrkr4-9" class="st4" refX="-12.08" orient="auto" markerUnits="strokeWidth" overflow="visible">
			<use xlink:href="#lend4" transform="scale(-6.04,-6.04) "/>
		</marker>
	</defs>
	<g>
		<title>Overview</title>
		<g id="shape1019-1" transform="translate(146.25,-705.342)">
			<title>Start/End.1039</title>
			<desc>START</desc>
			<path d="M13.34 792 L58.66 792 A13.3412 13.3412 -180 0 0 58.66 765.32 L13.34 765.32 A13.3412 13.3412 -180 1 0 13.34 792&#xA;						 Z" class="st1"/>
			<text x="19.87" y="782.26" class="st2">START</text>		</g>
		<g id="shape1020-4" transform="translate(173.25,-705.342)">
			<title>Dynamic connector.1040</title>
			<path d="M9 792 L9 862.15" class="st3"/>
		</g>
		<g id="shape1028-10" transform="translate(265.663,-179.725)">
			<title>Dynamic connector.1028</title>
			<desc>Yes</desc>
			<path d="M0 792 L0 701.72 L60.59 701.72 L60.59 516.23" class="st3"/>
			<rect x="54.6087" y="676.591" width="11.957" height="9.59985" class="st5"/>
			<text x="54.61" y="683.79" class="st6">Yes</text>		</g>
		<g id="shape1030-17" transform="translate(326.25,-110.85)">
			<title>Dynamic connector.1020</title>
			<desc>No</desc>
			<path d="M0 783 L68.21 783" class="st3"/>
			<rect x="32.418" y="778.2" width="9.41391" height="9.59985" class="st5"/>
			<text x="32.42" y="785.4" class="st6">No</text>		</g>
		<g id="shape1062-24" transform="translate(450,-310.659)">
			<title>Start/End.1053</title>
			<desc>END</desc>
			<path d="M13.34 792 L58.66 792 A13.3412 13.3412 -180 0 0 58.66 765.32 L13.34 765.32 A13.3412 13.3412 -180 1 0 13.34 792&#xA;						 Z" class="st1"/>
			<text x="24.89" y="782.26" class="st2">END</text>		</g>
		<g id="shape1067-27" transform="translate(205.076,-59.976)">
			<title>Decision.1017</title>
			<desc>Does the downloaded feature class exist in the Master GDB?</desc>
			<path d="M0 732.13 L60.59 672.25 L121.17 732.13 L60.59 792 L0 732.13 Z" class="st1"/>
			<text x="37.97" y="706.93" class="st2">Does the <tspan x="29.75" dy="1.2em" class="st7">downloaded </tspan><tspan x="14.71" dy="1.2em" class="st7">feature class exist </tspan><tspan x="26.99" dy="1.2em" class="st7">in the Master </tspan><tspan x="46.16" dy="1.2em" class="st7">GDB?</tspan></text>		</g>
		<g id="shape1100-34" transform="translate(173.25,-538.025)">
			<title>Dynamic connector.1100</title>
			<path d="M9 792 L9 873.99" class="st3"/>
		</g>
		<g id="shape1099-39" transform="translate(105.75,-538.025)">
			<title>Process.15.1099</title>
			<desc>ArcPro is used to publish a feature service to ArcGIS Online....</desc>
			<rect x="0" y="700.875" width="153" height="91.125" class="st8"/>
			<text x="9.42" y="721.24" class="st9">ArcPro is used to publish a <tspan x="14.08" dy="1.2em" class="st7">feature service to ArcGIS </tspan><tspan x="12.35" dy="1.2em" class="st7">Online.  The feature class </tspan><tspan x="4.01" dy="1.2em" class="st7">schema is obtained from the </tspan><tspan x="22.8" dy="1.2em" class="st7">master geodatabase.</tspan></text>		</g>
		<g id="shape1101-46" transform="translate(90,-358.875)">
			<title>Process.15.1101</title>
			<desc>A Webmap is created in ArcGIS Online and collection is now po...</desc>
			<rect x="0" y="700.875" width="184.5" height="91.125" class="st8"/>
			<text x="14.18" y="728.44" class="st9">A Webmap is created in ArcGIS <tspan x="21.73" dy="1.2em" class="st7">Online and collection is now </tspan><tspan x="14.34" dy="1.2em" class="st7">possible using the Collector for </tspan><tspan x="64.34" dy="1.2em" class="st7">ArcGIS App</tspan></text>		</g>
		<g id="shape1102-52" transform="translate(182.25,-179.725)">
			<title>Dynamic connector.1102</title>
			<path d="M0 792 L0 851.87 L16.79 851.87" class="st3"/>
		</g>
		<g id="shape1103-57" transform="translate(121.5,-179.725)">
			<title>Process.15.1103</title>
			<desc>The data is downloaded from ArcGIS Online</desc>
			<rect x="0" y="700.875" width="121.5" height="91.125" class="st8"/>
			<text x="32.89" y="735.64" class="st9">The data is <tspan x="16.63" dy="1.2em" class="st7">downloaded from </tspan><tspan x="26.3" dy="1.2em" class="st7">ArcGIS Online</tspan></text>		</g>
		<g id="shape1104-62" transform="translate(173.25,-358.875)">
			<title>Dynamic connector.1104</title>
			<path d="M9 792 L9 873.99" class="st3"/>
		</g>
		<g id="shape1105-67" transform="translate(281.25,-461.531)">
			<title>Process.15.1105</title>
			<desc>If the downloaded feature class exists in the master geodatab...</desc>
			<rect x="0" y="707.063" width="207" height="84.9375" class="st8"/>
			<text x="7.99" y="724.33" class="st9">If the downloaded feature class exists <tspan x="5.39" dy="1.2em" class="st7">in the master geodatabase, updates to </tspan><tspan x="3.88" dy="1.2em" class="st7">the master geodatabase are performed </tspan><tspan x="13.92" dy="1.2em" class="st7">until all of the downloaded features </tspan><tspan x="52.9" dy="1.2em" class="st7">have been reviewed</tspan></text>		</g>
		<g id="shape1106-74" transform="translate(488.25,-504)">
			<title>Dynamic connector.1106</title>
			<path d="M0 792 L18 792 L18 864 L-105.75 864 L-105.75 875.96" class="st3"/>
		</g>
		<g id="shape1108-79" transform="translate(461.25,-164.85)">
			<title>Dynamic connector.1108</title>
			<path d="M0 792 L0 774 L-78.75 774 L-78.75 728.89" class="st3"/>
		</g>
		<g id="shape1107-84" transform="translate(400.5,-74.8504)">
			<title>Process.15.1107</title>
			<desc>If the downloaded feature class does not exist in the master ...</desc>
			<rect x="0" y="702" width="121.5" height="90" class="st8"/>
			<text x="15.4" y="726.6" class="st9">If the downloaded <tspan x="4.58" dy="1.2em" class="st7">feature class does not </tspan><tspan x="13.95" dy="1.2em" class="st7">exist in the master </tspan><tspan x="4.15" dy="1.2em" class="st7">geodatabase, it will be </tspan><tspan x="43.26" dy="1.2em" class="st7">added.</tspan></text>		</g>
		<g id="shape1109-91" transform="translate(346.5,-234)">
			<title>Process.15.1109</title>
			<desc>After Data Reviewer Checks are passed, the edits can be pushe...</desc>
			<rect x="0" y="612" width="72" height="180" class="st8"/>
			<text x="10.47" y="633.6" class="st9">After Data <tspan x="12.91" dy="1.2em" class="st7">Reviewer </tspan><tspan x="7.8" dy="1.2em" class="st7">Checks are </tspan><tspan x="6.49" dy="1.2em" class="st7">passed, the </tspan><tspan x="5.07" dy="1.2em" class="st7">edits can be </tspan><tspan x="6.08" dy="1.2em" class="st7">pushed into </tspan><tspan x="8.49" dy="1.2em" class="st7">the default </tspan><tspan x="11.25" dy="1.2em" class="st7">version of </tspan><tspan x="8.5" dy="1.2em" class="st7">the master </tspan><tspan x="3.09" dy="1.2em" class="st7">geodatabase</tspan><tspan x="34.5" dy="1.2em" class="st7">.</tspan></text>		</g>
		<g id="shape1110-104" transform="translate(418.5,-333)">
			<title>Dynamic connector.1110</title>
			<path d="M0 801 L25.46 801" class="st3"/>
		</g>
	</g>
</svg>
