<?xml version="1.0" encoding="UTF-8" standalone="no"?>
<!DOCTYPE svg PUBLIC "-//W3C//DTD SVG 1.1//EN" "http://www.w3.org/Graphics/SVG/1.1/DTD/svg11.dtd">
<!-- Generated by Microsoft Visio, SVG Export svg_1.svg Process -->
<svg xmlns="http://www.w3.org/2000/svg" xmlns:xlink="http://www.w3.org/1999/xlink" xmlns:ev="http://www.w3.org/2001/xml-events" width="11in" height="8.5in" viewBox="0 0 792 612" xml:space="preserve" color-interpolation-filters="sRGB" class="st11">
	<style type="text/css">
	<![CDATA[
		.st1 {fill:#ffffff;stroke:#dfa202;stroke-linecap:round;stroke-linejoin:round;stroke-width:1}
		.st2 {fill:#7c5b02;font-family:Franklin Gothic Book;font-size:1.00001em}
		.st3 {font-size:1em}
		.st4 {marker-end:url(#mrkr4-14);stroke:#6bae2f;stroke-linecap:round;stroke-linejoin:round;stroke-width:0.5}
		.st5 {fill:#6bae2f;fill-opacity:1;stroke:#6bae2f;stroke-opacity:1;stroke-width:0.16556291390728}
		.st6 {fill:#ffffff;stroke:none;stroke-linecap:butt}
		.st7 {fill:#528722;font-family:Franklin Gothic Book;font-size:1.00001em}
		.st8 {fill:#ffffff;stroke:none;stroke-linecap:butt;stroke-width:7.2}
		.st9 {fill:#9cc882;stroke:#ffffff;stroke-linecap:round;stroke-linejoin:round;stroke-width:1}
		.st10 {fill:#ffffff;font-family:Franklin Gothic Book;font-size:1.00001em}
		.st11 {fill:none;fill-rule:evenodd;font-size:12px;overflow:visible;stroke-linecap:square;stroke-miterlimit:3}
	]]>
	</style>

	<defs id="Markers">
		<g id="lend4">
			<path d="M 2 1 L 0 0 L 2 -1 L 2 1 " style="stroke:none"/>
		</g>
		<marker id="mrkr4-14" class="st5" refX="-12.08" orient="auto" markerUnits="strokeWidth" overflow="visible">
			<use xlink:href="#lend4" transform="scale(-6.04,-6.04) "/>
		</marker>
	</defs>
	<g>
		<title>Acquire Feature Class Schema</title>
		<g id="shape40-1" transform="translate(51.75,-549)">
			<title>Start/End.11</title>
			<desc>START</desc>
			<path d="M13.5 612 L58.5 612 A13.5 13.5 -180 0 0 58.5 585 L13.5 585 A13.5 13.5 -180 1 0 13.5 612 Z" class="st1"/>
			<text x="19.87" y="602.1" class="st2">START</text>		</g>
		<g id="shape41-4" transform="translate(18,-422.1)">
			<title>Decision.12</title>
			<desc>Are there existing features that need verification?</desc>
			<path d="M0 557.1 L69.75 502.2 L139.5 557.1 L69.75 612 L0 557.1 Z" class="st1"/>
			<text x="25.88" y="546.3" class="st2">Are there existing <tspan x="22.84" dy="1.2em" class="st3">features that need </tspan><tspan x="38.8" dy="1.2em" class="st3">verification?</tspan></text>		</g>
		<g id="shape43-9" transform="translate(78.75,-549.45)">
			<title>Dynamic connector</title>
			<path d="M9 612.45 L9 623.51" class="st4"/>
		</g>
		<g id="shape45-15" transform="translate(87.75,-422.55)">
			<title>Dynamic connector.45</title>
			<desc>No</desc>
			<path d="M0 612.45 L0 621.45 L29.25 621.45 L29.25 623.51" class="st4"/>
			<rect x="-6.0007" y="613.8" width="14.1213" height="14.4001" class="st6"/>
			<text x="-6" y="624.6" class="st7">No</text>		</g>
		<g id="shape49-22" transform="translate(157.5,-477)">
			<title>Dynamic connector.49</title>
			<desc>Yes</desc>
			<path d="M0 612 L9 612 L9 549.6 L20.06 549.6" class="st4"/>
			<rect x="1.94445" y="566.564" width="17.936" height="14.4001" class="st8"/>
			<text x="1.94" y="577.36" class="st7">Yes</text>		</g>
		<g id="shape1002-29" transform="translate(36,-174.6)">
			<title>Decision.1002</title>
			<desc>Are there new features that need to be collected?</desc>
			<path d="M0 557.1 L81 502.2 L162 557.1 L81 612 L0 557.1 Z" class="st1"/>
			<text x="23.44" y="553.5" class="st2">Are there new features <tspan x="42.36" dy="1.2em" class="st3">that need to be </tspan><tspan x="55.18" dy="1.2em" class="st3">collected?</tspan></text>		</g>
		<g id="shape1004-34" transform="translate(183.6,-483.375)">
			<title>Decision.1004</title>
			<desc>Do the features needing verification exist in the MasterGDB?</desc>
			<path d="M0 555.97 L74.7 499.95 L149.4 555.97 L74.7 612 L0 555.97 Z" class="st1"/>
			<text x="35.42" y="537.97" class="st2">Do the features <tspan x="24.98" dy="1.2em" class="st3">needing verification </tspan><tspan x="47.19" dy="1.2em" class="st3">exist in the </tspan><tspan x="42.51" dy="1.2em" class="st3">MasterGDB?</tspan></text>		</g>
		<g id="shape1005-40" transform="translate(333,-530.4)">
			<title>Dynamic connector.1005</title>
			<desc>Yes</desc>
			<path d="M0 603 L36.71 603" class="st4"/>
			<rect x="12.0972" y="597.713" width="17.936" height="14.4001" class="st6"/>
			<text x="12.1" y="608.51" class="st7">Yes</text>		</g>
		<g id="shape1006-47" transform="translate(175.05,-366.375)">
			<title>Process.15.1006</title>
			<desc>Copy the Source Feature Class from its source location to the...</desc>
			<rect x="0" y="522" width="112.95" height="90" class="st9"/>
			<text x="15.3" y="541.8" class="st10">Copy the Source <tspan x="8.57" dy="1.2em" class="st3">Feature Class from </tspan><tspan x="3.9" dy="1.2em" class="st3">its source location to </tspan><tspan x="5.59" dy="1.2em" class="st3">the Project</tspan>’s default <tspan x="23.56" dy="1.2em" class="st3">geodatabase</tspan></text>		</g>
		<g id="shape1011-54" transform="translate(81,-297)">
			<title>Process.15.1011</title>
			<desc>Choose the target feature class, preferably from the MasterGDB</desc>
			<rect x="0" y="504" width="72" height="108" class="st9"/>
			<text x="7.43" y="518.4" class="st10">Choose the <tspan x="21.09" dy="1.2em" class="st3">target </tspan><tspan x="17.71" dy="1.2em" class="st3">feature </tspan><tspan x="21.59" dy="1.2em" class="st3">class, </tspan><tspan x="10.53" dy="1.2em" class="st3">preferably </tspan><tspan x="14.51" dy="1.2em" class="st3">from the </tspan><tspan x="6.85" dy="1.2em" class="st3">MasterGDB</tspan></text>		</g>
		<g id="shape1017-63" transform="translate(688.5,-225)">
			<title>Process.15.1017</title>
			<desc>Remove any features that do not need verification</desc>
			<rect x="0" y="540" width="72" height="72" class="st9"/>
			<text x="4.96" y="558" class="st10">Remove any <tspan x="3.32" dy="1.2em" class="st3">features that </tspan><tspan x="5.71" dy="1.2em" class="st3">do not need </tspan><tspan x="8.09" dy="1.2em" class="st3">verification</tspan></text>		</g>
		<g id="shape1020-69" transform="translate(501.75,-405)">
			<title>Process.15.1020</title>
			<desc>Calculate the GlobalIDs into the AssetID field</desc>
			<rect x="0" y="540" width="72" height="72" class="st9"/>
			<text x="2.7" y="558" class="st10">Calculate the <tspan x="11.68" dy="1.2em" class="st3">GlobalIDs </tspan><tspan x="16.7" dy="1.2em" class="st3">into the </tspan><tspan x="4.46" dy="1.2em" class="st3">AssetID field</tspan></text>		</g>
		<g id="shape1023-75" transform="translate(686.7,-333)">
			<title>Dynamic connector.1023</title>
			<desc>Yes</desc>
			<path d="M0 612 L37.8 612 L37.8 641.96" class="st4"/>
			<rect x="27.932" y="604.8" width="17.936" height="14.4001" class="st8"/>
			<text x="27.93" y="615.6" class="st7">Yes</text>		</g>
		<g id="shape1022-82" transform="translate(537.75,-261)">
			<title>Decision.12.1022</title>
			<desc>Are there features that don’t need verification in the featur...</desc>
			<path d="M0 540 L74.48 468 L148.95 540 L74.48 612 L0 540 Z" class="st1"/>
			<text x="17.17" y="529.2" class="st2">Are there features that <tspan x="17.88" dy="1.2em" class="st3">don</tspan>’t need verification <tspan x="22.9" dy="1.2em" class="st3">in the feature class?</tspan></text>		</g>
		<g id="shape1025-87" transform="translate(612.225,-261)">
			<title>Dynamic connector.1025</title>
			<desc>No</desc>
			<path d="M0 612 L0 804.26 L-30.19 804.26" class="st4"/>
			<rect x="-7.06055" y="719.044" width="14.1213" height="14.4001" class="st6"/>
			<text x="-7.06" y="729.84" class="st7">No</text>		</g>
		<g id="shape1026-94" transform="translate(145.8,-41.7375)">
			<title>Process.15.1026</title>
			<desc>Add the new Fields for the Collection</desc>
			<rect x="0" y="558" width="72" height="54" class="st9"/>
			<text x="4.75" y="574.2" class="st10">Add the new <tspan x="2.96" dy="1.2em" class="st3">Fields for the </tspan><tspan x="11.14" dy="1.2em" class="st3">Collection</tspan></text>		</g>
		<g id="shape1029-99" transform="translate(21.6,-32.7375)">
			<title>Process.15.1029</title>
			<desc>Add Coded Value Domains for the New Fields</desc>
			<rect x="0" y="540" width="83.7" height="72" class="st9"/>
			<text x="14.5" y="558" class="st10">Add Coded <tspan x="3.74" dy="1.2em" class="st3">Value Domains </tspan><tspan x="12.7" dy="1.2em" class="st3">for the New </tspan><tspan x="26.91" dy="1.2em" class="st3">Fields</tspan></text>		</g>
		<g id="shape1030-105" transform="translate(145.8,-59.7375)">
			<title>Dynamic connector.1030</title>
			<path d="M0 603 L-34.46 603" class="st4"/>
		</g>
		<g id="shape1032-110" transform="translate(492.3,-59.7375)">
			<title>Dynamic connector.1032</title>
			<path d="M0 603 L-16.01 603" class="st4"/>
		</g>
		<g id="shape1031-115" transform="translate(492.3,-32.7375)">
			<title>Process.15.1031</title>
			<desc>Remove fields that don’t provide use for the Collector</desc>
			<rect x="0" y="540" width="83.7" height="72" class="st9"/>
			<text x="6.03" y="558" class="st10">Remove fields <tspan x="17.3" dy="1.2em" class="st3">that don</tspan>’t <tspan x="4.07" dy="1.2em" class="st3">provide use for </tspan><tspan x="9.93" dy="1.2em" class="st3">the Collector</tspan></text>		</g>
		<g id="shape1034-121" transform="translate(375.75,-59.7375)">
			<title>Dynamic connector.1034</title>
			<path d="M0 603 L-20.96 603" class="st4"/>
		</g>
		<g id="shape1033-126" transform="translate(375.75,-23.7375)">
			<title>Process.15.1033</title>
			<desc>Remove Domains from the Geodatabase that are not needed</desc>
			<rect x="0" y="522" width="94.5" height="90" class="st9"/>
			<text x="2.66" y="541.8" class="st10">Remove Domains <tspan x="25.76" dy="1.2em" class="st3">from the </tspan><tspan x="13.4" dy="1.2em" class="st3">Geodatabase </tspan><tspan x="17.66" dy="1.2em" class="st3">that are not </tspan><tspan x="28.17" dy="1.2em" class="st3">needed</tspan></text>		</g>
		<g id="shape1035-133" transform="translate(235.8,-23.7375)">
			<title>Process.15.1035</title>
			<desc>Of the remaining Domains, remove values that won’t be used in...</desc>
			<rect x="0" y="522" width="112.95" height="90" class="st9"/>
			<text x="14.32" y="541.8" class="st10">Of the remaining <tspan x="12.08" dy="1.2em" class="st3">Domains, remove </tspan><tspan x="5.42" dy="1.2em" class="st3">values that won</tspan>’t be <tspan x="28.25" dy="1.2em" class="st3">used in the </tspan><tspan x="31.61" dy="1.2em" class="st3">Collection</tspan></text>		</g>
		<g id="shape1036-140" transform="translate(235.8,-77.7375)">
			<title>Dynamic connector.1036</title>
			<path d="M0 621 L-11.96 621" class="st4"/>
		</g>
		<g id="shape1037-145" transform="translate(310.05,-366.375)">
			<title>Process.15.1037</title>
			<desc>Add a field named ‘Verified’ and calculate all Values to be N...</desc>
			<rect x="0" y="522" width="124.2" height="90" class="st9"/>
			<text x="16.18" y="541.8" class="st10">Add a field named <tspan x="4.3" dy="1.2em" class="st3">‘</tspan>Verified’ and calculate <tspan x="4.12" dy="1.2em" class="st3">all Values to be No, set </tspan><tspan x="11.59" dy="1.2em" class="st3">the default value on </tspan><tspan x="21.55" dy="1.2em" class="st3">the field to </tspan>‘Yes’</text>		</g>
		<a xlink:href="svg_1.htm">
			<g id="shape1039-152" transform="translate(27.45,-144)">
				<title>Start/End.11.1039</title>
				<desc>END</desc>
				<path d="M13.5 612 L58.5 612 A13.5 13.5 -180 0 0 58.5 585 L13.5 585 A13.5 13.5 -180 1 0 13.5 612 Z" class="st1"/>
				<text x="24.89" y="602.1" class="st2">END</text>			</g>
		</a>
		<g id="shape1040-155" transform="translate(54.45,-104.738)">
			<title>Dynamic connector.1040</title>
			<path d="M9 612 L9 578.78" class="st4"/>
		</g>
		<g id="shape1042-160" transform="translate(724.5,-225)">
			<title>Dynamic connector.1042</title>
			<path d="M0 612 L0 768.26 L-142.46 768.26" class="st4"/>
		</g>
		<g id="shape1048-165" transform="translate(258.3,-483.375)">
			<title>Dynamic connector.1048</title>
			<desc>No</desc>
			<path d="M0 612 L0 621 L-26.78 621 L-26.78 632.96" class="st4"/>
			<rect x="-25.5502" y="612" width="14.1213" height="14.4001" class="st8"/>
			<text x="-25.55" y="622.8" class="st7">No</text>		</g>
		<g id="shape1052-172" transform="translate(470.25,-530.4)">
			<title>Dynamic connector.1052</title>
			<path d="M0 603 L14.21 603" class="st4"/>
		</g>
		<g id="shape1051-177" transform="translate(375.75,-494.4)">
			<title>Process.15.1051</title>
			<desc>Add the target feature class from the MasterGDB to the map</desc>
			<rect x="0" y="522" width="94.5" height="90" class="st9"/>
			<text x="11.45" y="541.8" class="st10">Add the target <tspan x="14.55" dy="1.2em" class="st3">feature class </tspan><tspan x="25.76" dy="1.2em" class="st3">from the </tspan><tspan x="11.63" dy="1.2em" class="st3">MasterGDB to </tspan><tspan x="26.28" dy="1.2em" class="st3">the map</tspan></text>		</g>
		<g id="shape1054-184" transform="translate(585,-530.4)">
			<title>Dynamic connector.1054</title>
			<path d="M0 603 L14.21 603" class="st4"/>
		</g>
		<g id="shape1053-189" transform="translate(490.5,-503.4)">
			<title>Process.15.1053</title>
			<desc>Enable the ‘Maintain Global IDs’ environment setting in ArcPro</desc>
			<rect x="0" y="540" width="94.5" height="72" class="st9"/>
			<text x="20.1" y="558" class="st10">Enable the <tspan x="5.79" dy="1.2em" class="st3">‘</tspan>Maintain Global <tspan x="4.18" dy="1.2em" class="st3">IDs</tspan>’ environment <tspan x="6.01" dy="1.2em" class="st3">setting in ArcPro</tspan></text>		</g>
		<g id="shape1056-195" transform="translate(658.35,-494.7)">
			<title>Dynamic connector.1056</title>
			<path d="M9 612.3 L9 623.66" class="st4"/>
		</g>
		<g id="shape1055-200" transform="translate(605.25,-494.4)">
			<title>Process.15.1055</title>
			<desc>Copy the target feature class from the MasterGDB and Paste it...</desc>
			<rect x="0" y="522" width="124.2" height="90" class="st9"/>
			<text x="3.9" y="541.8" class="st10">Copy the target feature <tspan x="26.2" dy="1.2em" class="st3">class from the </tspan><tspan x="6.01" dy="1.2em" class="st3">MasterGDB and Paste </tspan><tspan x="14.71" dy="1.2em" class="st3">it into the Project</tspan>’s <tspan x="9.89" dy="1.2em" class="st3">default geodatabase</tspan></text>		</g>
		<g id="shape1057-207" transform="translate(612.45,-405)">
			<title>Process.15.1057</title>
			<desc>Add a text field named assetID. Accept the default max length</desc>
			<rect x="0" y="540" width="109.8" height="72" class="st9"/>
			<text x="17.28" y="558" class="st10">Add a text field <tspan x="15.15" dy="1.2em" class="st3">named assetID.  </tspan><tspan x="8.91" dy="1.2em" class="st3">Accept the default </tspan><tspan x="27.01" dy="1.2em" class="st3">max length</tspan></text>		</g>
		<g id="shape1058-213" transform="translate(612.45,-432)">
			<title>Dynamic connector.1058</title>
			<path d="M0 603 L-32.66 603" class="st4"/>
		</g>
		<g id="shape1064-218" transform="translate(108,-299.7)">
			<title>Dynamic connector.1064</title>
			<path d="M9 614.7 L9 621.26" class="st4"/>
		</g>
		<g id="shape1065-223" transform="translate(288,-402.375)">
			<title>Dynamic connector.1065</title>
			<path d="M0 603 L16.01 603" class="st4"/>
		</g>
		<g id="shape1066-228" transform="translate(501.75,-441)">
			<title>Dynamic connector.1066</title>
			<path d="M0 612 L-18 612 L-18 641.62 L-61.46 641.62" class="st4"/>
		</g>
		<g id="shape1067-233" transform="translate(372.15,-366.375)">
			<title>Dynamic connector.1067</title>
			<path d="M0 612 L0 618.37 L147.6 618.37 L147.6 645.37 L159.56 645.37" class="st4"/>
		</g>
		<g id="shape1068-238" transform="translate(225,-234.9)">
			<title>Decision.12.1068</title>
			<desc>Does the target feature class exist in the Master Geodatabase?</desc>
			<path d="M0 549.9 L62.1 487.8 L124.2 549.9 L62.1 612 L0 549.9 Z" class="st1"/>
			<text x="23.07" y="531.9" class="st2">Does the target <tspan x="16.22" dy="1.2em" class="st3">feature class exist </tspan><tspan x="28.5" dy="1.2em" class="st3">in the Master </tspan><tspan x="25.22" dy="1.2em" class="st3">Geodatabase?</tspan></text>		</g>
		<g id="shape1069-244" transform="translate(198,-229.5)">
			<title>Dynamic connector.1069</title>
			<desc>Yes</desc>
			<path d="M0 612 L9 612 L9 544.5 L20.96 544.5" class="st4"/>
			<rect x="0.0319519" y="566.55" width="17.936" height="14.4001" class="st8"/>
			<text x="0.03" y="577.35" class="st7">Yes</text>		</g>
		<g id="shape1070-251" transform="translate(400.5,-243)">
			<title>Process.1070</title>
			<desc>Copy the target feature class from the MasterGDB and Paste it...</desc>
			<rect x="0" y="504" width="94.5" height="108" class="st9"/>
			<text x="8.84" y="518.4" class="st10">Copy the target <tspan x="14.55" dy="1.2em" class="st3">feature class </tspan><tspan x="25.76" dy="1.2em" class="st3">from the </tspan><tspan x="6.94" dy="1.2em" class="st3">MasterGDB and </tspan><tspan x="12.41" dy="1.2em" class="st3">Paste it in the </tspan><tspan x="6.08" dy="1.2em" class="st3">Project</tspan>’s default <tspan x="14.34" dy="1.2em" class="st3">geodatabase</tspan></text>		</g>
		<g id="shape1071-260" transform="translate(441,-148.5)">
			<title>Process.1071</title>
			<desc>Delete All Rows from the Feature Class</desc>
			<rect x="0" y="540" width="72" height="72" class="st9"/>
			<text x="12.05" y="558" class="st10">Delete All <tspan x="9.16" dy="1.2em" class="st3">Rows from </tspan><tspan x="6.75" dy="1.2em" class="st3">the Feature </tspan><tspan x="22.41" dy="1.2em" class="st3">Class</tspan></text>		</g>
		<g id="shape1073-266" transform="translate(349.2,-288)">
			<title>Dynamic connector.1073</title>
			<desc>Yes</desc>
			<path d="M0 603 L45.26 603" class="st4"/>
			<rect x="16.682" y="595.8" width="17.936" height="14.4001" class="st8"/>
			<text x="16.68" y="606.6" class="st7">Yes</text>		</g>
		<g id="shape1074-273" transform="translate(447.75,-243)">
			<title>Dynamic connector.1074</title>
			<path d="M0 612 L0 621 L29.25 621 L29.25 628.46" class="st4"/>
		</g>
		<g id="shape1075-278" transform="translate(513,-184.5)">
			<title>Dynamic connector.1075</title>
			<path d="M0 612 L21.15 612 L21.15 685.72" class="st4"/>
		</g>
		<g id="shape1077-283" transform="translate(235.8,-131.738)">
			<title>Process.15.1077</title>
			<desc>Create a new feature class in the Project’s default geodataba...</desc>
			<rect x="0" y="540" width="151.2" height="72" class="st9"/>
			<text x="2.02" y="558" class="st10">Create a new feature class in <tspan x="24.72" dy="1.2em" class="st3">the Project</tspan>’s default <tspan x="17.87" dy="1.2em" class="st3">geodatabase using the </tspan><tspan x="18.84" dy="1.2em" class="st3">desired target schema</tspan></text>		</g>
		<g id="shape1078-289" transform="translate(287.1,-234.9)">
			<title>Dynamic connector.1078</title>
			<desc>No</desc>
			<path d="M0 612 L0 630 L24.3 630 L24.3 637.12" class="st4"/>
			<rect x="2.6707" y="622.8" width="14.1213" height="14.4001" class="st8"/>
			<text x="2.67" y="633.6" class="st7">No</text>		</g>
		<g id="shape1079-296" transform="translate(235.8,-171.619)">
			<title>Dynamic connector.1079</title>
			<path d="M0 615.88 L-18 615.88 L-18 626.12 L-130.31 626.12" class="st4"/>
		</g>
		<g id="shape1083-301" transform="translate(117.225,-175.05)">
			<title>Dynamic connector.1083</title>
			<desc>No</desc>
			<path d="M-0.22 612.45 L-0.22 629.55 L-11.74 629.55" class="st4"/>
			<rect x="-7.51055" y="622.35" width="14.1213" height="14.4001" class="st6"/>
			<text x="-7.51" y="633.15" class="st7">No</text>		</g>
	</g>
</svg>
