<?xml version="1.0" encoding="UTF-8" standalone="no"?>
<!DOCTYPE svg PUBLIC "-//W3C//DTD SVG 1.1//EN" "http://www.w3.org/Graphics/SVG/1.1/DTD/svg11.dtd">
<!-- Generated by Microsoft Visio, SVG Export svg_1.svg Symbolize the Layer -->
<svg xmlns="http://www.w3.org/2000/svg" xmlns:xlink="http://www.w3.org/1999/xlink" xmlns:ev="http://www.w3.org/2001/xml-events" width="11in" height="8.5in" viewBox="0 0 792 612" xml:space="preserve" color-interpolation-filters="sRGB" class="st8">
	<style type="text/css">
	<![CDATA[
		.st1 {fill:#9cc882;stroke:#ffffff;stroke-linecap:round;stroke-linejoin:round;stroke-width:1}
		.st2 {fill:#ffffff;font-family:Franklin Gothic Book;font-size:0.666664em}
		.st3 {font-size:1em}
		.st4 {marker-end:url(#mrkr4-17);stroke:#6bae2f;stroke-linecap:round;stroke-linejoin:round;stroke-width:0.5}
		.st5 {fill:#6bae2f;fill-opacity:1;stroke:#6bae2f;stroke-opacity:1;stroke-width:0.16556291390728}
		.st6 {fill:#ffffff;stroke:#dfa202;stroke-linecap:round;stroke-linejoin:round;stroke-width:1}
		.st7 {fill:#7c5b02;font-family:Franklin Gothic Book;font-size:0.666664em}
		.st8 {fill:none;fill-rule:evenodd;font-size:12px;overflow:visible;stroke-linecap:square;stroke-miterlimit:3}
	]]>
	</style>

	<defs id="Markers">
		<g id="lend4">
			<path d="M 2 1 L 0 0 L 2 -1 L 2 1 " style="stroke:none"/>
		</g>
		<marker id="mrkr4-17" class="st5" refX="-12.08" orient="auto" markerUnits="strokeWidth" overflow="visible">
			<use xlink:href="#lend4" transform="scale(-6.04,-6.04) "/>
		</marker>
	</defs>
	<g>
		<title>Symbolize the Layer</title>
		<g id="shape1000-1" transform="translate(31.5,-455.4)">
			<title>Process.15.1000</title>
			<desc>Add the feature class to the current map</desc>
			<rect x="0" y="558" width="72" height="54" class="st1"/>
			<text x="9.88" y="577.8" class="st2">Add the feature <tspan x="3.46" dy="1.2em" class="st3">class to the current </tspan><tspan x="28.49" dy="1.2em" class="st3">map</tspan></text>		</g>
		<g id="shape1002-6" transform="translate(31.5,-378)">
			<title>Process.15.1002</title>
			<desc>Create Unique Value Renderer on the verified Field - See Video</desc>
			<rect x="0" y="558" width="72" height="54" class="st1"/>
			<text x="11.96" y="568.2" class="st2">Create Unique <tspan x="4.67" dy="1.2em" class="st3">Value Renderer on </tspan><tspan x="7.95" dy="1.2em" class="st3">the verified Field  </tspan><tspan x="17.18" dy="2.4em" class="st3">-</tspan> See Video</text>		</g>
		<g id="shape1003-12" transform="translate(58.5,-455.4)">
			<title>Dynamic connector.1003</title>
			<path d="M9 612 L9 629.36" class="st4"/>
		</g>
		<a xlink:href="svg_2.htm">
			<g id="shape1004-18" transform="translate(31.5,-315)">
				<title>Start/End.11.1004</title>
				<desc>END</desc>
				<path d="M13.5 612 L58.5 612 A13.5 13.5 -180 0 0 58.5 585 L13.5 585 A13.5 13.5 -180 1 0 13.5 612 Z" class="st6"/>
				<text x="28.59" y="600.9" class="st7">END</text>			</g>
		</a>
		<g id="shape1005-21" transform="translate(31.5,-550.8)">
			<title>Start/End.11.1005</title>
			<desc>START</desc>
			<path d="M13.5 612 L58.5 612 A13.5 13.5 -180 0 0 58.5 585 L13.5 585 A13.5 13.5 -180 1 0 13.5 612 Z" class="st6"/>
			<text x="25.25" y="600.9" class="st7">START</text>		</g>
		<g id="shape1006-24" transform="translate(58.5,-550.8)">
			<title>Dynamic connector.1006</title>
			<path d="M9 612 L9 647.36" class="st4"/>
		</g>
		<g id="shape1007-29" transform="translate(58.5,-378)">
			<title>Dynamic connector.1007</title>
			<path d="M9 612 L9 641.96" class="st4"/>
		</g>
	</g>
</svg>
