<?xml version="1.0" encoding="UTF-8" standalone="no"?>
<!DOCTYPE svg PUBLIC "-//W3C//DTD SVG 1.1//EN" "http://www.w3.org/Graphics/SVG/1.1/DTD/svg11.dtd">
<!-- Generated by Microsoft Visio, SVG Export svg_1.svg Build the Project -->
<svg xmlns="http://www.w3.org/2000/svg" xmlns:xlink="http://www.w3.org/1999/xlink" xmlns:ev="http://www.w3.org/2001/xml-events" width="17in" height="11in" viewBox="0 0 1224 792" xml:space="preserve" color-interpolation-filters="sRGB" class="st13">
	<style type="text/css">
	<![CDATA[
		.st1 {fill:#9cc882;stroke:#ffffff;stroke-linecap:round;stroke-linejoin:round;stroke-width:1}
		.st2 {fill:#ffffff;font-family:Franklin Gothic Book;font-size:0.666664em}
		.st3 {font-size:1em}
		.st4 {marker-end:url(#mrkr4-22);stroke:#6bae2f;stroke-linecap:round;stroke-linejoin:round;stroke-width:0.5}
		.st5 {fill:#6bae2f;fill-opacity:1;stroke:#6bae2f;stroke-opacity:1;stroke-width:0.16556291390728}
		.st6 {fill:#7eb6aa}
		.st7 {stroke:#ffffff;stroke-linecap:round;stroke-linejoin:round;stroke-width:1}
		.st8 {fill:#ffffff;stroke:#dfa202;stroke-linecap:round;stroke-linejoin:round;stroke-width:1}
		.st9 {fill:#7c5b02;font-family:Franklin Gothic Book;font-size:0.666664em}
		.st10 {fill:#ffffff;stroke:none;stroke-linecap:butt}
		.st11 {fill:#528722;font-family:Franklin Gothic Book;font-size:0.666664em}
		.st12 {fill:#ffffff;stroke:none;stroke-linecap:butt;stroke-width:7.2}
		.st13 {fill:none;fill-rule:evenodd;font-size:12px;overflow:visible;stroke-linecap:square;stroke-miterlimit:3}
	]]>
	</style>

	<defs id="Markers">
		<g id="lend4">
			<path d="M 2 1 L 0 0 L 2 -1 L 2 1 " style="stroke:none"/>
		</g>
		<marker id="mrkr4-22" class="st5" refX="-12.08" orient="auto" markerUnits="strokeWidth" overflow="visible">
			<use xlink:href="#lend4" transform="scale(-6.04,-6.04) "/>
		</marker>
	</defs>
	<g>
		<title>Main Workflow Diagram</title>
		<g id="shape1001-1" transform="translate(27,-675)">
			<title>Process.15.1001</title>
			<desc>Create a new ArcPro Project - See Video</desc>
			<rect x="0" y="738" width="72" height="54" class="st1"/>
			<text x="13.83" y="753" class="st2">Create a new <tspan x="12.32" dy="1.2em" class="st3">ArcPro Project  </tspan><tspan x="17.18" dy="2.4em" class="st3">-</tspan> See Video</text>		</g>
		<g id="shape1002-6" transform="translate(18,-549)">
			<title>Process.15.1002</title>
			<desc>Add the Master Geodatabase to the Project, by adding the loca...</desc>
			<rect x="0" y="684" width="90" height="108" class="st1"/>
			<text x="19.23" y="697.2" class="st2">Add the Master <tspan x="11.65" dy="1.2em" class="st3">Geodatabase to the </tspan><tspan x="8.52" dy="1.2em" class="st3">Project, by adding the </tspan><tspan x="3.9" dy="1.2em" class="st3">locally saved connection </tspan><tspan x="8.21" dy="1.2em" class="st3">file to the Sub</tspan>-Default <tspan x="6.87" dy="1.2em" class="st3">version.  D:\\EsriGDB\</tspan><tspan x="8.71" dy="1.2em" class="st3">ConnectionFiles\Sub</tspan>-<tspan x="4.17" dy="1.2em" class="st3">Default_MasterGDB.sde  </tspan><tspan x="26.18" dy="2.4em" class="st3">-</tspan> See Video</text>		</g>
		<g id="shape1003-17" transform="translate(54,-675)">
			<title>Dynamic connector.1003</title>
			<path d="M9 792 L9 803.96" class="st4"/>
		</g>
		<a xlink:href="svg_3.htm">
			<g id="shape1004-23" transform="translate(27,-468)">
				<title>Subprocess.13.1004</title>
				<desc>Acquire Feature Class Schema</desc>
				<path d="M0 792 L72 792 L72 738 L0 738 L0 792 Z" class="st6"/>
				<path d="M0 792 L72 792 L72 738 L0 738 L0 792" class="st7"/>
				<path d="M9 792 L9 738" class="st7"/>
				<path d="M63 792 L63 738" class="st7"/>
				<text x="23.37" y="757.8" class="st2">Acquire <tspan x="12.91" dy="1.2em" class="st3">Feature Class </tspan><tspan x="22.25" dy="1.2em" class="st3">Schema</tspan></text>			</g>
		</a>
		<g id="shape1005-31" transform="translate(54,-549)">
			<title>Dynamic connector.1005</title>
			<path d="M9 792 L9 812.96" class="st4"/>
		</g>
		<g id="shape1008-36" transform="translate(27,-373.5)">
			<title>Process.15.1008</title>
			<desc>Enable Editor Tracking on the feature class - See Video</desc>
			<rect x="0" y="738" width="72" height="54" class="st1"/>
			<text x="13.48" y="748.2" class="st2">Enable Editor <tspan x="9.99" dy="1.2em" class="st3">Tracking on the </tspan><tspan x="14.2" dy="1.2em" class="st3">feature class  </tspan><tspan x="17.18" dy="2.4em" class="st3">-</tspan> See Video</text>		</g>
		<g id="shape1009-42" transform="translate(27,-279)">
			<title>Process.15.1009</title>
			<desc>Enable Attachments for the feature class - See Video</desc>
			<rect x="0" y="738" width="72" height="54" class="st1"/>
			<text x="2.04" y="753" class="st2">Enable Attachments <tspan x="2.13" dy="1.2em" class="st3">for the feature class  </tspan><tspan x="17.18" dy="2.4em" class="st3">-</tspan> See Video</text>		</g>
		<a xlink:href="svg_4.htm">
			<g id="shape1022-47" transform="translate(27,-184.5)">
				<title>Subprocess.13.1022</title>
				<desc>Symbolize the Layer</desc>
				<path d="M0 792 L72 792 L72 738 L0 738 L0 792 Z" class="st6"/>
				<path d="M0 792 L72 792 L72 738 L0 738 L0 792" class="st7"/>
				<path d="M9 792 L9 738" class="st7"/>
				<path d="M63 792 L63 738" class="st7"/>
				<text x="12.49" y="762.6" class="st2">Symbolize the <tspan x="26.87" dy="1.2em" class="st3">Layer</tspan></text>			</g>
		</a>
		<g id="shape1024-54" transform="translate(54,-468)">
			<title>Dynamic connector.1024</title>
			<path d="M9 792 L9 826.46" class="st4"/>
		</g>
		<g id="shape1025-59" transform="translate(54,-373.5)">
			<title>Dynamic connector.1025</title>
			<path d="M9 792 L9 826.46" class="st4"/>
		</g>
		<g id="shape1026-64" transform="translate(54,-279)">
			<title>Dynamic connector.1026</title>
			<path d="M9 792 L9 826.46" class="st4"/>
		</g>
		<g id="shape1027-69" transform="translate(27,-36)">
			<title>Process.15.1027</title>
			<desc>Publish the layer to ArcGIS Online - See Video</desc>
			<rect x="0" y="738" width="72" height="54" class="st1"/>
			<text x="3.72" y="753" class="st2">Publish the layer to <tspan x="13.03" dy="1.2em" class="st3">ArcGIS Online  </tspan><tspan x="17.18" dy="2.4em" class="st3">-</tspan> See Video</text>		</g>
		<g id="shape1028-74" transform="translate(54,-184.5)">
			<title>Dynamic connector.1028</title>
			<path d="M9 792 L9 880.46" class="st4"/>
		</g>
		<g id="shape1030-79" transform="translate(99,-54)">
			<title>Dynamic connector.1030</title>
			<path d="M0 783 L74.96 783" class="st4"/>
		</g>
		<a xlink:href="svg_5.htm">
			<g id="shape1032-84" transform="translate(180,-27)">
				<title>Subprocess.13.1032</title>
				<desc>Configure the Settings on the Published Layer - See Video</desc>
				<path d="M0 792 L72 792 L72 720 L0 720 L0 792 Z" class="st6"/>
				<path d="M0 792 L72 792 L72 720 L0 720 L0 792" class="st7"/>
				<path d="M9 792 L9 720" class="st7"/>
				<path d="M63 792 L63 720" class="st7"/>
				<text x="13.32" y="734.4" class="st2">Configure the <tspan x="17.03" dy="1.2em" class="st3">Settings on </tspan><tspan x="12.89" dy="1.2em" class="st3">the Published </tspan><tspan x="26.87" dy="1.2em" class="st3">Layer  </tspan><tspan x="17.18" dy="2.4em" class="st3">-</tspan> See Video</text>			</g>
		</a>
		<a xlink:href="svg_6.htm">
			<g id="shape1033-94" transform="translate(180,-184.5)">
				<title>Subprocess.13.1033</title>
				<desc>Create WebMap</desc>
				<path d="M0 792 L72 792 L72 738 L0 738 L0 792 Z" class="st6"/>
				<path d="M0 792 L72 792 L72 738 L0 738 L0 792" class="st7"/>
				<path d="M9 792 L9 738" class="st7"/>
				<path d="M63 792 L63 738" class="st7"/>
				<text x="24.86" y="762.6" class="st2">Create <tspan x="21.01" dy="1.2em" class="st3">WebMap</tspan></text>			</g>
		</a>
		<g id="shape1034-101" transform="translate(207,-99)">
			<title>Dynamic connector.1034</title>
			<path d="M9 792 L9 712.54" class="st4"/>
		</g>
		<g id="shape1035-106" transform="translate(180,-302.55)">
			<title>Process.15.1035</title>
			<desc>Open the Collector App and perform the Collection - See RTAA ...</desc>
			<rect x="0" y="720" width="72" height="72" class="st1"/>
			<text x="4.81" y="729.6" class="st2">Open the Collector <tspan x="7.76" dy="1.2em" class="st3">App and perform </tspan><tspan x="12.95" dy="1.2em" class="st3">the Collection  </tspan><tspan x="16.88" dy="2.4em" class="st3">-</tspan>  See RTAA <tspan x="12.51" dy="1.2em" class="st3">Collector User </tspan><tspan x="26.09" dy="1.2em" class="st3">Guide</tspan></text>		</g>
		<g id="shape1036-114" transform="translate(207,-238.5)">
			<title>Dynamic connector.1036</title>
			<path d="M9 792 L9 733.99" class="st4"/>
		</g>
		<g id="shape1039-119" transform="translate(27,-747)">
			<title>Start/End.11.1039</title>
			<desc>START</desc>
			<path d="M13.5 792 L58.5 792 A13.5 13.5 -180 0 0 58.5 765 L13.5 765 A13.5 13.5 -180 1 0 13.5 792 Z" class="st8"/>
			<text x="25.25" y="780.9" class="st9">START</text>		</g>
		<g id="shape1040-122" transform="translate(54,-747)">
			<title>Dynamic connector.1040</title>
			<path d="M9 792 L9 803.96" class="st4"/>
		</g>
		<a xlink:href="svg_7.htm">
			<g id="shape1041-127" transform="translate(180,-423)">
				<title>Subprocess.1001</title>
				<desc>Download the geodatabase from ArcGIS Online</desc>
				<path d="M0 792 L72 792 L72 738 L0 738 L0 792 Z" class="st6"/>
				<path d="M0 792 L72 792 L72 738 L0 738 L0 792" class="st7"/>
				<path d="M9 792 L9 738" class="st7"/>
				<path d="M63 792 L63 738" class="st7"/>
				<text x="12.77" y="753" class="st2">Download the <tspan x="14.06" dy="1.2em" class="st3">geodatabase </tspan><tspan x="15.96" dy="1.2em" class="st3">from ArcGIS </tspan><tspan x="25.22" dy="1.2em" class="st3">Online</tspan></text>			</g>
		</a>
		<g id="shape1042-136" transform="translate(504,-677.25)">
			<title>Process.15</title>
			<desc>Add the feature class that is being updated from the Master G...</desc>
			<rect x="0" y="720" width="72" height="72" class="st1"/>
			<text x="9.88" y="734.4" class="st2">Add the feature <tspan x="5.6" dy="1.2em" class="st3">class that is being </tspan><tspan x="6.64" dy="1.2em" class="st3">updated from the </tspan><tspan x="24.16" dy="1.2em" class="st3">Master </tspan><tspan x="2.65" dy="1.2em" class="st3">Geodatabase to the </tspan><tspan x="28.49" dy="1.2em" class="st3">map</tspan></text>		</g>
		<g id="shape1043-144" transform="translate(702,-650.25)">
			<title>Process.1024</title>
			<desc>For each of the downloaded features, select the corresponding...</desc>
			<rect x="0" y="666" width="72" height="126" class="st1"/>
			<text x="10.6" y="678.6" class="st2">For each of the <tspan x="15.44" dy="1.2em" class="st3">downloaded </tspan><tspan x="3.45" dy="1.2em" class="st3">features, select the </tspan><tspan x="11.9" dy="1.2em" class="st3">corresponding </tspan><tspan x="5.6" dy="1.2em" class="st3">original feature by </tspan><tspan x="11.71" dy="1.2em" class="st3">comparing the </tspan><tspan x="6.15" dy="1.2em" class="st3">assetID field from </tspan><tspan x="8.97" dy="1.2em" class="st3">the downloaded </tspan><tspan x="3.42" dy="1.2em" class="st3">feature class to the </tspan><tspan x="6.46" dy="1.2em" class="st3">GLOBALID field in </tspan><tspan x="4.48" dy="1.2em" class="st3">the </tspan>master feature <tspan x="26.39" dy="1.2em" class="st3">class. </tspan></text>		</g>
		<g id="shape1044-158" transform="translate(1047.67,-290.55)">
			<title>Process.1028</title>
			<desc>Append the selected features to the target feature class.</desc>
			<rect x="0" y="738" width="72" height="54" class="st1"/>
			<text x="16.71" y="753" class="st2">Append the <tspan x="2.37" dy="1.2em" class="st3">selected features to </tspan><tspan x="6.39" dy="1.2em" class="st3">the target feature </tspan><tspan x="26.39" dy="1.2em" class="st3">class.</tspan></text>		</g>
		<g id="shape1045-164" transform="translate(504,-27)">
			<title>Process.1012</title>
			<desc>Review data updates by running data reviewer checks --See Video</desc>
			<rect x="0" y="720" width="72" height="72" class="st1"/>
			<text x="15.39" y="734.4" class="st2">Review data <tspan x="3.58" dy="1.2em" class="st3">updates by running </tspan><tspan x="13.13" dy="1.2em" class="st3">data reviewer </tspan><tspan x="24.17" dy="1.2em" class="st3">checks  </tspan><tspan x="17.18" dy="2.4em" class="st3">--</tspan>See Video</text>		</g>
		<g id="shape1046-171" transform="translate(504,-237.45)">
			<title>Process.1043</title>
			<desc>Verify that the updates were successfully posted to the maste...</desc>
			<rect x="0" y="720" width="72" height="72" class="st1"/>
			<text x="12.47" y="734.4" class="st2">Verify that the <tspan x="13.12" dy="1.2em" class="st3">updates were </tspan><tspan x="3.06" dy="1.2em" class="st3">successfully posted </tspan><tspan x="13.36" dy="1.2em" class="st3">to the master  </tspan><tspan x="17.18" dy="2.4em" class="st3">--</tspan>See Video</text>		</g>
		<g id="shape1047-178" transform="translate(212.4,-477)">
			<title>Dynamic connector</title>
			<path d="M3.6 792 L3.6 555.75 L8.36 555.75" class="st4"/>
		</g>
		<g id="shape1048-183" transform="translate(334.8,-704.25)">
			<title>Dynamic connector.1018</title>
			<desc>Yes</desc>
			<path d="M0 783 L21.56 783" class="st4"/>
			<rect x="7.82158" y="778.2" width="11.957" height="9.59985" class="st10"/>
			<text x="7.82" y="785.4" class="st11">Yes</text>		</g>
		<g id="shape1049-190" transform="translate(362.4,-454.05)">
			<title>Process.1019</title>
			<desc>Create a new feature class with the same name and use the dow...</desc>
			<rect x="0" y="684" width="72" height="108" class="st1"/>
			<text x="13.83" y="702" class="st2">Create a new <tspan x="6.23" dy="1.2em" class="st3">feature class with </tspan><tspan x="2.16" dy="1.2em" class="st3">the same name and </tspan><tspan x="23.42" dy="1.2em" class="st3">use the </tspan><tspan x="2.25" dy="1.2em" class="st3">downloaded feature </tspan><tspan x="15.95" dy="1.2em" class="st3">class as the </tspan><tspan x="20.95" dy="1.2em" class="st3">template  </tspan><tspan x="16.18" dy="2.4em" class="st3">--</tspan> See Video</text>		</g>
		<g id="shape1050-200" transform="translate(280.8,-659.25)">
			<title>Dynamic connector.1020</title>
			<desc>No</desc>
			<path d="M0 792 L0 943.2 L75.56 943.2" class="st4"/>
			<rect x="-4.70703" y="903.6" width="9.41391" height="9.59985" class="st12"/>
			<text x="-4.71" y="910.8" class="st11">No</text>		</g>
		<g id="shape1051-207" transform="translate(362.4,-317.85)">
			<title>Process.1021</title>
			<desc>Append the downloaded features to the new feature class</desc>
			<rect x="0" y="738" width="72" height="54" class="st1"/>
			<text x="16.71" y="753" class="st2">Append the <tspan x="15.44" dy="1.2em" class="st3">downloaded </tspan><tspan x="3.26" dy="1.2em" class="st3">features to the new </tspan><tspan x="14.2" dy="1.2em" class="st3">feature class</tspan></text>		</g>
		<g id="shape1052-213" transform="translate(389.4,-454.05)">
			<title>Dynamic connector.1022</title>
			<path d="M9 792 L9 868.16" class="st4"/>
		</g>
		<g id="shape1053-218" transform="translate(362.4,-36)">
			<title>Process.1023</title>
			<desc>Use the attribute data to either remove, or modify the newly ...</desc>
			<rect x="0" y="738" width="72" height="54" class="st1"/>
			<text x="7.73" y="748.2" class="st2">Use the attribute <tspan x="13.28" dy="1.2em" class="st3">data to either </tspan><tspan x="5.72" dy="1.2em" class="st3">remove, or modify </tspan><tspan x="2.01" dy="1.2em" class="st3">the newly appended </tspan><tspan x="20.95" dy="1.2em" class="st3">features.</tspan></text>		</g>
		<g id="shape1054-225" transform="translate(389.4,-317.85)">
			<title>Dynamic connector.1054</title>
			<path d="M9 792 L9 868.16" class="st4"/>
		</g>
		<g id="shape1055-230" transform="translate(362.4,-677.25)">
			<title>Process.1025</title>
			<desc>Connect to the Sub-Default Version of the Master Geodatabase ...</desc>
			<rect x="0" y="720" width="72" height="72" class="st1"/>
			<text x="2.72" y="734.4" class="st2">Connect to the Sub-<tspan x="5.86" dy="1.2em" class="st3">Default Version of </tspan><tspan x="17.69" dy="1.2em" class="st3">the Master </tspan><tspan x="8.63" dy="1.2em" class="st3">Geodatabase by </tspan><tspan x="13.36" dy="1.2em" class="st3">using the sde </tspan><tspan x="11.26" dy="1.2em" class="st3">connection file</tspan></text>		</g>
		<g id="shape1056-238" transform="translate(434.4,-704.25)">
			<title>Dynamic connector.1056</title>
			<path d="M0 783 L63.56 783" class="st4"/>
		</g>
		<g id="shape1057-243" transform="translate(805.5,-447.75)">
			<title>Decision.1027</title>
			<desc>Is the last_edited_date field on the downloaded feature more ...</desc>
			<path d="M0 738 L94.5 684 L189 738 L94.5 792 L0 738 Z" class="st8"/>
			<text x="35.85" y="730.8" class="st9">Is the last_edited_date field on the <tspan x="24.12" dy="1.2em" class="st3">downloaded feature more recent than the </tspan><tspan x="28.68" dy="1.2em" class="st3">same field in the master feature class?</tspan></text>		</g>
		<g id="shape1058-248" transform="translate(576,-722.25)">
			<title>Dynamic connector.1058</title>
			<path d="M0 801 L119.96 801" class="st4"/>
		</g>
		<g id="shape1059-253" transform="translate(774,-704.25)">
			<title>Dynamic connector.1029</title>
			<path d="M0 783 L83.96 783" class="st4"/>
		</g>
		<g id="shape1060-258" transform="translate(864,-686.25)">
			<title>Decision.1030</title>
			<desc>Is the assetID value Null?</desc>
			<path d="M0 765 L36 738 L72 765 L36 792 L0 765 Z" class="st8"/>
			<text x="12.95" y="762.6" class="st9">Is the assetID <tspan x="17.26" dy="1.2em" class="st3">value Null?</tspan></text>		</g>
		<g id="shape1061-262" transform="translate(891,-686.25)">
			<title>Dynamic connector.1031</title>
			<desc>No</desc>
			<path d="M9 792 L9 916.46" class="st4"/>
			<rect x="4.29297" y="852.45" width="9.41391" height="9.59985" class="st12"/>
			<text x="4.29" y="859.65" class="st11">No</text>		</g>
		<g id="shape1062-269" transform="translate(1008,-510.689)">
			<title>Decision.1032</title>
			<desc>This is a new feature location. Is there a feature ID In the ...</desc>
			<path d="M0 728.94 L75.67 665.88 L151.35 728.94 L75.67 792 L0 728.94 Z" class="st8"/>
			<text x="20.58" y="721.74" class="st9">This is a new feature location.  Is <tspan x="17.7" dy="1.2em" class="st3">there a feature ID In the </tspan>‘MOVE TO <tspan x="38.55" dy="1.2em" class="st3">THIS LOCATION</tspan>’ field?</text>		</g>
		<g id="shape1063-274" transform="translate(936,-713.25)">
			<title>Dynamic connector.1033</title>
			<desc>Yes</desc>
			<path d="M0 792 L147.67 792 L147.67 862.4" class="st4"/>
			<rect x="106.078" y="787.2" width="11.957" height="9.59985" class="st12"/>
			<text x="106.08" y="794.4" class="st11">Yes</text>		</g>
		<g id="shape1064-281" transform="translate(1134,-330.75)">
			<title>Process.1034</title>
			<desc>Move the specified feature, from the master feature class, to...</desc>
			<rect x="0" y="702" width="72" height="90" class="st1"/>
			<text x="4.12" y="715.8" class="st2">Move the specified <tspan x="7.48" dy="1.2em" class="st3">feature, from the </tspan><tspan x="10.95" dy="1.2em" class="st3">master feature </tspan><tspan x="15.61" dy="1.2em" class="st3">class, to the </tspan><tspan x="11.19" dy="1.2em" class="st3">location of this </tspan><tspan x="12.14" dy="1.2em" class="st3">point from the </tspan><tspan x="2.25" dy="1.2em" class="st3">downloaded feature </tspan><tspan x="27.39" dy="1.2em" class="st3">class</tspan></text>		</g>
		<g id="shape1065-291" transform="translate(1155.67,-573.75)">
			<title>Dynamic connector.1035</title>
			<desc>Yes</desc>
			<path d="M3.67 792 L14.33 792 L14.33 938.96" class="st4"/>
			<rect x="8.34819" y="858.374" width="11.957" height="9.59985" class="st12"/>
			<text x="8.35" y="865.57" class="st11">Yes</text>		</g>
		<g id="shape1066-298" transform="translate(1134,-240.75)">
			<title>Process.1036</title>
			<desc>Delete the new point from the downloaded feature class since ...</desc>
			<rect x="0" y="720" width="72" height="72" class="st1"/>
			<text x="10.64" y="729.6" class="st2">Delete the new <tspan x="12.14" dy="1.2em" class="st3">point from the </tspan><tspan x="2.25" dy="1.2em" class="st3">downloaded feature </tspan><tspan x="11.03" dy="1.2em" class="st3">class since the </tspan><tspan x="10.95" dy="1.2em" class="st3">master feature </tspan><tspan x="6.02" dy="1.2em" class="st3">location has been </tspan><tspan x="21.96" dy="1.2em" class="st3">updated</tspan></text>		</g>
		<g id="shape1067-307" transform="translate(1161,-330.75)">
			<title>Dynamic connector.1037</title>
			<path d="M9 792 L9 803.96" class="st4"/>
		</g>
		<g id="shape1068-312" transform="translate(1074.67,-510.689)">
			<title>Dynamic connector.1038</title>
			<desc>No</desc>
			<path d="M9 792 L9 952.1" class="st4"/>
			<rect x="4.29297" y="870.27" width="9.41391" height="9.59985" class="st12"/>
			<text x="4.29" y="877.47" class="st11">No</text>		</g>
		<g id="shape1069-319" transform="translate(972,-153.45)">
			<title>Process.1039</title>
			<desc>Copy all of the attributes from the downloaded feature and pa...</desc>
			<rect x="0" y="720" width="72" height="72" class="st1"/>
			<text x="12.1" y="734.4" class="st2">Copy all of the <tspan x="4.38" dy="1.2em" class="st3">attributes from the </tspan><tspan x="2.25" dy="1.2em" class="st3">downloaded feature </tspan><tspan x="2.02" dy="1.2em" class="st3">and paste them into </tspan><tspan x="2.4" dy="1.2em" class="st3">the selected master </tspan><tspan x="22.81" dy="1.2em" class="st3">feature.</tspan></text>		</g>
		<g id="shape1070-327" transform="translate(992.25,-501.75)">
			<title>Dynamic connector.1070</title>
			<desc>Yes</desc>
			<path d="M2.25 792 L15.75 792 L15.75 1062.26" class="st4"/>
			<rect x="9.77156" y="918.6" width="11.957" height="9.59985" class="st12"/>
			<text x="9.77" y="925.8" class="st11">Yes</text>		</g>
		<g id="shape1071-334" transform="translate(864,-171.45)">
			<title>Process.1041</title>
			<desc>No change needed on the original feature</desc>
			<rect x="0" y="738" width="72" height="54" class="st1"/>
			<text x="4.22" y="757.8" class="st2">No change needed <tspan x="11.88" dy="1.2em" class="st3">on the original </tspan><tspan x="23.81" dy="1.2em" class="st3">feature</tspan></text>		</g>
		<g id="shape1072-339" transform="translate(891,-447.75)">
			<title>Dynamic connector.1042</title>
			<desc>No</desc>
			<path d="M9 792 L9 1008.26" class="st4"/>
			<rect x="4.29297" y="898.35" width="9.41391" height="9.59985" class="st10"/>
			<text x="4.29" y="905.55" class="st11">No</text>		</g>
		<g id="shape1073-346" transform="translate(693,-18)">
			<title>Decision.1044</title>
			<desc>Have all of the downloaded features been inspected?</desc>
			<path d="M0 747 L45 702 L90 747 L45 792 L0 747 Z" class="st8"/>
			<text x="20.73" y="735" class="st9">Have all of the <tspan x="24.44" dy="1.2em" class="st3">downloaded </tspan><tspan x="21.47" dy="1.2em" class="st3">features been </tspan><tspan x="26.49" dy="1.2em" class="st3">inspected?</tspan></text>		</g>
		<g id="shape1074-352" transform="translate(900,-171.45)">
			<title>Dynamic connector.1045</title>
			<path d="M0 792 L0 900.45 L-110.96 900.45" class="st4"/>
		</g>
		<g id="shape1075-357" transform="translate(1008,-153.45)">
			<title>Dynamic connector.1046</title>
			<path d="M0 792 L0 882.45 L-218.96 882.45" class="st4"/>
		</g>
		<g id="shape1076-362" transform="translate(1170,-240.75)">
			<title>Dynamic connector.1047</title>
			<path d="M0 792 L0 969.75 L-380.96 969.75" class="st4"/>
		</g>
		<g id="shape1077-367" transform="translate(1083.67,-290.55)">
			<title>Dynamic connector.1048</title>
			<path d="M0 792 L0 1019.55 L-294.63 1019.55" class="st4"/>
		</g>
		<g id="shape1078-372" transform="translate(434.4,-54)">
			<title>Dynamic connector.1049</title>
			<path d="M0 783 L63.56 783" class="st4"/>
		</g>
		<g id="shape1079-377" transform="translate(693,-54)">
			<title>Dynamic connector.1050</title>
			<desc>Yes</desc>
			<path d="M0 783 L-110.96 783" class="st4"/>
			<rect x="-64.4784" y="778.2" width="11.957" height="9.59985" class="st12"/>
			<text x="-64.48" y="785.4" class="st11">Yes</text>		</g>
		<g id="shape1080-384" transform="translate(747,-108)">
			<title>Dynamic connector.1051</title>
			<desc>No</desc>
			<path d="M-9 792 L-9 746.55 L-9 746.55 L-9 255.79" class="st4"/>
			<rect x="-13.707" y="516.075" width="9.41391" height="9.59985" class="st12"/>
			<text x="-13.71" y="523.28" class="st11">No</text>		</g>
		<g id="shape1081-391" transform="translate(531,-99)">
			<title>Dynamic connector.1052</title>
			<path d="M9 792 L9 758.59" class="st4"/>
		</g>
		<g id="shape1082-396" transform="translate(504,-338.55)">
			<title>Start/End.1053</title>
			<desc>END</desc>
			<path d="M13.5 792 L58.5 792 A13.5 13.5 -180 0 0 58.5 765 L13.5 765 A13.5 13.5 -180 1 0 13.5 792 Z" class="st8"/>
			<text x="28.59" y="780.9" class="st9">END</text>		</g>
		<g id="shape1083-399" transform="translate(531,-309.45)">
			<title>Dynamic connector.1083</title>
			<path d="M9 792 L9 768.94" class="st4"/>
		</g>
		<g id="shape1084-404" transform="translate(531,-192.45)">
			<title>Dynamic connector.1084</title>
			<path d="M9 792 L9 753.04" class="st4"/>
		</g>
		<g id="shape1085-409" transform="translate(504,-138.45)">
			<title>Process.1055</title>
			<desc>Reconcile and Post the changes with the Default Version --See...</desc>
			<rect x="0" y="738" width="72" height="54" class="st1"/>
			<text x="3.74" y="748.2" class="st2">Reconcile and Post <tspan x="7.35" dy="1.2em" class="st3">the changes with </tspan><tspan x="3.66" dy="1.2em" class="st3">the Default Version  </tspan><tspan x="17.18" dy="2.4em" class="st3">--</tspan>See Video</text>		</g>
		<g id="shape1086-415" transform="translate(389.4,-181.65)">
			<title>Dynamic connector.1086</title>
			<path d="M9 792 L9 877.61" class="st4"/>
		</g>
		<g id="shape1087-420" transform="translate(226.8,-659.25)">
			<title>Decision.1017</title>
			<desc>Does the downloaded feature class exist in the Master GDB?</desc>
			<path d="M0 738 L54 684 L108 738 L54 792 L0 738 Z" class="st8"/>
			<text x="17.36" y="730.8" class="st9">Does the downloaded <tspan x="12.86" dy="1.2em" class="st3">feature class exist in the </tspan><tspan x="31.54" dy="1.2em" class="st3">Master GDB?</tspan></text>		</g>
		<g id="shape1088-425" transform="translate(207,-374.55)">
			<title>Dynamic connector.1088</title>
			<path d="M9 792 L9 749.59" class="st4"/>
		</g>
		<g id="shape1089-430" transform="translate(362.4,-181.65)">
			<title>Process.1057</title>
			<desc>Enable Editor Tracking on the new feature class</desc>
			<rect x="0" y="738" width="72" height="54" class="st1"/>
			<text x="13.48" y="757.8" class="st2">Enable Editor <tspan x="2.08" dy="1.2em" class="st3">Tracking on the new </tspan><tspan x="14.2" dy="1.2em" class="st3">feature class</tspan></text>		</g>
	</g>
</svg>
