<?xml version="1.0" encoding="UTF-8" standalone="no"?>
<!DOCTYPE svg PUBLIC "-//W3C//DTD SVG 1.1//EN" "http://www.w3.org/Graphics/SVG/1.1/DTD/svg11.dtd">
<!-- Generated by Microsoft Visio, SVG Export svg_1.svg Download the geodatabase from ArcGIS Online -->
<svg xmlns="http://www.w3.org/2000/svg" xmlns:xlink="http://www.w3.org/1999/xlink" xmlns:ev="http://www.w3.org/2001/xml-events" width="11in" height="8.5in" viewBox="0 0 792 612" xml:space="preserve" color-interpolation-filters="sRGB" class="st8">
	<style type="text/css">
	<![CDATA[
		.st1 {fill:#ffffff;stroke:#dfa202;stroke-linecap:round;stroke-linejoin:round;stroke-width:1}
		.st2 {fill:#7c5b02;font-family:Franklin Gothic Book;font-size:0.666664em}
		.st3 {fill:#9cc882;stroke:#ffffff;stroke-linecap:round;stroke-linejoin:round;stroke-width:1}
		.st4 {fill:#ffffff;font-family:Franklin Gothic Book;font-size:0.666664em}
		.st5 {font-size:1em}
		.st6 {marker-end:url(#mrkr4-81);stroke:#6bae2f;stroke-linecap:round;stroke-linejoin:round;stroke-width:0.5}
		.st7 {fill:#6bae2f;fill-opacity:1;stroke:#6bae2f;stroke-opacity:1;stroke-width:0.16556291390728}
		.st8 {fill:none;fill-rule:evenodd;font-size:12px;overflow:visible;stroke-linecap:square;stroke-miterlimit:3}
	]]>
	</style>

	<defs id="Markers">
		<g id="lend4">
			<path d="M 2 1 L 0 0 L 2 -1 L 2 1 " style="stroke:none"/>
		</g>
		<marker id="mrkr4-81" class="st7" refX="-12.08" orient="auto" markerUnits="strokeWidth" overflow="visible">
			<use xlink:href="#lend4" transform="scale(-6.04,-6.04) "/>
		</marker>
	</defs>
	<g>
		<title>Download the geodatabase from ArcGIS Online</title>
		<g id="shape1000-1" transform="translate(18,-567)">
			<title>Start/End.11.1000</title>
			<desc>START</desc>
			<path d="M13.5 612 L58.5 612 A13.5 13.5 -180 0 0 58.5 585 L13.5 585 A13.5 13.5 -180 1 0 13.5 612 Z" class="st1"/>
			<text x="25.25" y="600.9" class="st2">START</text>		</g>
		<g id="shape1001-4" transform="translate(18,-463.8)">
			<title>Process.15.1001</title>
			<desc>Open a web browser and Sign In to the RTAA ArcGIS Online Orga...</desc>
			<rect x="0" y="558" width="72" height="54" class="st3"/>
			<text x="16.09" y="573" class="st4">Open a web <tspan x="2.61" dy="1.2em" class="st5">browser and Sign In </tspan><tspan x="4.35" dy="1.2em" class="st5">to the RTAA ArcGIS </tspan><tspan x="3.01" dy="1.2em" class="st5">Online Organization</tspan></text>		</g>
		<g id="shape1002-10" transform="translate(18,-387)">
			<title>Process.15.1002</title>
			<desc>Click on the Content Tab</desc>
			<rect x="0" y="558" width="72" height="54" class="st3"/>
			<text x="16.26" y="582.6" class="st4">Click on the <tspan x="15.52" dy="1.2em" class="st5">Content Tab</tspan></text>		</g>
		<g id="shape1003-14" transform="translate(18,-234)">
			<title>Process.15.1003</title>
			<desc>On the left, in the Folders section, click on the folder that...</desc>
			<rect x="0" y="486" width="72" height="126" class="st3"/>
			<text x="6.85" y="503.4" class="st4">On the left, in the <tspan x="9.37" dy="1.2em" class="st5">Folders section, </tspan><tspan x="5.96" dy="1.2em" class="st5">click on the folder </tspan><tspan x="7.39" dy="1.2em" class="st5">that contains the </tspan><tspan x="17.62" dy="1.2em" class="st5">layer being </tspan><tspan x="11.62" dy="1.2em" class="st5">collected.  The </tspan><tspan x="17.88" dy="1.2em" class="st5">folders are </tspan><tspan x="14.7" dy="1.2em" class="st5">organized </tspan>by <tspan x="10.02" dy="1.2em" class="st5">feature dataset </tspan><tspan x="8.82" dy="1.2em" class="st5">from the master </tspan><tspan x="12.44" dy="1.2em" class="st5">Geodatabase.  </tspan></text>		</g>
		<g id="shape1004-27" transform="translate(18,-90)">
			<title>Process.15.1004</title>
			<desc>Select the name of the layer being collected to open the Item...</desc>
			<rect x="0" y="486" width="72" height="126" class="st3"/>
			<text x="4.17" y="503.4" class="st4">Select the name of <tspan x="11.15" dy="1.2em" class="st5">the layer being </tspan><tspan x="7.03" dy="1.2em" class="st5">collected to open </tspan><tspan x="9.25" dy="1.2em" class="st5">the Item Details </tspan><tspan x="26.7" dy="1.2em" class="st5">page.  </tspan><tspan x="3.47" dy="2.4em" class="st5">*Hint </tspan>– Layers with <tspan x="8.07" dy="1.2em" class="st5">“</tspan>New” in front of <tspan x="11.15" dy="1.2em" class="st5">their name are </tspan><tspan x="6.57" dy="1.2em" class="st5">Views and should </tspan><tspan x="9.52" dy="1.2em" class="st5">not be exported</tspan></text>		</g>
		<g id="shape1005-39" transform="translate(18,-18)">
			<title>Process.15.1005</title>
			<desc>On the right, expand the Export Data dropdown and choose ‘Exp...</desc>
			<rect x="0" y="549" width="72" height="63" class="st3"/>
			<text x="15.24" y="563.7" class="st4">On the right, <tspan x="5.53" dy="1.2em" class="st5">expand the Export </tspan><tspan x="2.77" dy="1.2em" class="st5">Data dropdown and </tspan><tspan x="6.92" dy="1.2em" class="st5">choose </tspan>‘Export to <tspan x="25.38" dy="1.2em" class="st5">FGDB</tspan>’</text>		</g>
		<g id="shape1006-46" transform="translate(135,-18)">
			<title>Process.15.1006</title>
			<desc>Copy the Title text and paste it into the Tags and Summary fi...</desc>
			<rect x="0" y="486" width="72" height="126" class="st3"/>
			<text x="6.01" y="498.6" class="st4">Copy the Title text <tspan x="2.13" dy="1.2em" class="st5">and paste it into the </tspan><tspan x="3.64" dy="1.2em" class="st5">Tags and Summary </tspan><tspan x="7.36" dy="1.2em" class="st5">fields.  Leave the </tspan><tspan x="10.89" dy="1.2em" class="st5">‘</tspan>Save in folder’ <tspan x="13.95" dy="1.2em" class="st5">option as the </tspan><tspan x="6.96" dy="1.2em" class="st5">default which will </tspan><tspan x="14.54" dy="1.2em" class="st5">be the folder </tspan><tspan x="2.84" dy="1.2em" class="st5">containing the layer </tspan><tspan x="5.99" dy="1.2em" class="st5">you are exporting.  </tspan><tspan x="15.33" dy="2.4em" class="st5">Click Export.</tspan></text>		</g>
		<g id="shape1007-59" transform="translate(135,-171)">
			<title>Process.15.1007</title>
			<desc>After a minute or two, the Item Details for the File Geodatab...</desc>
			<rect x="0" y="540" width="72" height="72" class="st3"/>
			<text x="7.7" y="549.6" class="st4">After a minute or <tspan x="13.99" dy="1.2em" class="st5">two, the Item </tspan><tspan x="5.27" dy="1.2em" class="st5">Details for the File </tspan><tspan x="7.02" dy="1.2em" class="st5">Geodatabase will </tspan><tspan x="7.08" dy="1.2em" class="st5">be displayed.  On </tspan><tspan x="5.89" dy="1.2em" class="st5">the right, click the </tspan><tspan x="6.22" dy="1.2em" class="st5">Download button.</tspan></text>		</g>
		<g id="shape1008-68" transform="translate(135,-270)">
			<title>Process.15.1008</title>
			<desc>Copy the downloaded zip file to a folder accessible in your P...</desc>
			<rect x="0" y="540" width="72" height="72" class="st3"/>
			<text x="21.34" y="554.4" class="st4">Copy the <tspan x="3.57" dy="1.2em" class="st5">downloaded zip file </tspan><tspan x="18.82" dy="1.2em" class="st5">to a folder </tspan><tspan x="5.99" dy="1.2em" class="st5">accessible in your </tspan><tspan x="3" dy="1.2em" class="st5">Pro Project.  Extract </tspan><tspan x="17.66" dy="1.2em" class="st5">the zip file.</tspan></text>		</g>
		<g id="shape1009-76" transform="translate(45,-567)">
			<title>Dynamic connector</title>
			<path d="M9 612 L9 655.16" class="st6"/>
		</g>
		<g id="shape1010-82" transform="translate(45,-463.8)">
			<title>Dynamic connector.1010</title>
			<path d="M9 612 L9 628.76" class="st6"/>
		</g>
		<g id="shape1011-87" transform="translate(45,-387)">
			<title>Dynamic connector.1011</title>
			<path d="M9 612 L9 632.96" class="st6"/>
		</g>
		<g id="shape1012-92" transform="translate(45,-234)">
			<title>Dynamic connector.1012</title>
			<path d="M9 612 L9 623.96" class="st6"/>
		</g>
		<g id="shape1013-97" transform="translate(45,-94.5)">
			<title>Dynamic connector.1013</title>
			<path d="M9 616.5 L9 619.46" class="st6"/>
		</g>
		<g id="shape1014-102" transform="translate(90,-49.5)">
			<title>Dynamic connector.1014</title>
			<path d="M0 612 L18 612 L18 580.5 L38.96 580.5" class="st6"/>
		</g>
		<g id="shape1015-107" transform="translate(162,-144)">
			<title>Dynamic connector.1015</title>
			<path d="M9 612 L9 591.04" class="st6"/>
		</g>
		<g id="shape1016-112" transform="translate(162,-243)">
			<title>Dynamic connector.1016</title>
			<path d="M9 612 L9 591.04" class="st6"/>
		</g>
		<g id="shape1017-117" transform="translate(135,-378)">
			<title>Start/End.11.1017</title>
			<desc>END</desc>
			<path d="M13.5 612 L58.5 612 A13.5 13.5 -180 0 0 58.5 585 L13.5 585 A13.5 13.5 -180 1 0 13.5 612 Z" class="st1"/>
			<text x="28.59" y="600.9" class="st2">END</text>		</g>
		<g id="shape1018-120" transform="translate(162,-342)">
			<title>Dynamic connector.1018</title>
			<path d="M9 612 L9 582.04" class="st6"/>
		</g>
	</g>
</svg>
