<?xml version="1.0" encoding="UTF-8" standalone="no"?>
<!DOCTYPE svg PUBLIC "-//W3C//DTD SVG 1.1//EN" "http://www.w3.org/Graphics/SVG/1.1/DTD/svg11.dtd">
<!-- Generated by Microsoft Visio, SVG Export svg_1.svg Backend Workflow -->
<svg xmlns="http://www.w3.org/2000/svg" xmlns:xlink="http://www.w3.org/1999/xlink" xmlns:ev="http://www.w3.org/2001/xml-events" width="11in" height="8.5in" viewBox="0 0 792 612" xml:space="preserve" color-interpolation-filters="sRGB" class="st15">
	<style type="text/css">
	<![CDATA[
		.st1 {fill:#7eb6aa;stroke:#ffffff;stroke-linecap:round;stroke-linejoin:round;stroke-width:1}
		.st2 {fill:#ffffff;font-family:Franklin Gothic Book;font-size:0.666664em}
		.st3 {fill:#7eb6aa}
		.st4 {stroke:#ffffff;stroke-linecap:round;stroke-linejoin:round;stroke-width:1}
		.st5 {font-size:1em}
		.st6 {marker-end:url(#mrkr4-18);stroke:#6bae2f;stroke-linecap:round;stroke-linejoin:round;stroke-width:0.5}
		.st7 {fill:#6bae2f;fill-opacity:1;stroke:#6bae2f;stroke-opacity:1;stroke-width:0.16556291390728}
		.st8 {fill:#9cc882;stroke:#ffffff;stroke-linecap:round;stroke-linejoin:round;stroke-width:1}
		.st9 {fill:#ffffff;stroke:none;stroke-linecap:butt}
		.st10 {fill:#528722;font-family:Franklin Gothic Book;font-size:0.666664em}
		.st11 {fill:#ffffff;stroke:#dfa202;stroke-linecap:round;stroke-linejoin:round;stroke-width:1}
		.st12 {fill:#7c5b02;font-family:Franklin Gothic Book;font-size:0.666664em}
		.st13 {fill:#ffffff;stroke:none;stroke-linecap:butt;stroke-width:7.2}
		.st14 {marker-end:url(#mrkr4-118);stroke:#6bae2f;stroke-linecap:round;stroke-linejoin:round;stroke-width:0.5}
		.st15 {fill:none;fill-rule:evenodd;font-size:12px;overflow:visible;stroke-linecap:square;stroke-miterlimit:3}
	]]>
	</style>

	<defs id="Markers">
		<g id="lend4">
			<path d="M 2 1 L 0 0 L 2 -1 L 2 1 " style="stroke:none"/>
		</g>
		<marker id="mrkr4-18" class="st7" refX="-12.08" orient="auto" markerUnits="strokeWidth" overflow="visible">
			<use xlink:href="#lend4" transform="scale(-6.04,-6.04) "/>
		</marker>
		<marker id="mrkr4-118" class="st7" refX="-0" orient="auto" markerUnits="strokeWidth" overflow="visible">
			<use xlink:href="#lend4" transform="scale(-6.04,-6.04) "/>
		</marker>
	</defs>
	<g>
		<title>Backend Workflow</title>
		<a xlink:href="svg_1.htm">
			<g id="shape1000-1" transform="translate(36,-522)">
				<title>Off-page reference.1041</title>
				<desc>Start Here</desc>
				<path d="M0 540 L0 576 L36 612 L72 576 L72 540 L0 540 Z" class="st1"/>
				<text x="18.78" y="569.4" class="st2">Start Here</text>			</g>
		</a>
		<a xlink:href="svg_7.htm">
			<g id="shape1001-4" transform="translate(36,-436.2)">
				<title>Subprocess.13.1001</title>
				<desc>Download the geodatabase from ArcGIS Online</desc>
				<path d="M0 612 L72 612 L72 558 L0 558 L0 612 Z" class="st3"/>
				<path d="M0 612 L72 612 L72 558 L0 558 L0 612" class="st4"/>
				<path d="M9 612 L9 558" class="st4"/>
				<path d="M63 612 L63 558" class="st4"/>
				<text x="12.77" y="573" class="st2">Download the <tspan x="14.06" dy="1.2em" class="st5">geodatabase </tspan><tspan x="15.96" dy="1.2em" class="st5">from ArcGIS </tspan><tspan x="25.22" dy="1.2em" class="st5">Online</tspan></text>			</g>
		</a>
		<g id="shape1002-13" transform="translate(63,-522)">
			<title>Dynamic connector.1002</title>
			<path d="M9 612 L9 637.76" class="st6"/>
		</g>
		<g id="shape1005-19" transform="translate(274.8,-315)">
			<title>Process.15</title>
			<desc>Add the feature class that is being updated from the Master G...</desc>
			<rect x="0" y="540" width="72" height="72" class="st8"/>
			<text x="9.88" y="554.4" class="st2">Add the feature <tspan x="5.6" dy="1.2em" class="st5">class that is being </tspan><tspan x="6.64" dy="1.2em" class="st5">updated from the </tspan><tspan x="24.16" dy="1.2em" class="st5">Master </tspan><tspan x="2.65" dy="1.2em" class="st5">Geodatabase to the </tspan><tspan x="28.49" dy="1.2em" class="st5">map</tspan></text>		</g>
		<g id="shape1007-27" transform="translate(378.6,-288)">
			<title>Process.1024</title>
			<desc>For each of the downloaded features, select the corresponding...</desc>
			<rect x="0" y="486" width="72" height="126" class="st8"/>
			<text x="10.6" y="498.6" class="st2">For each of the <tspan x="15.44" dy="1.2em" class="st5">downloaded </tspan><tspan x="3.45" dy="1.2em" class="st5">features, select the </tspan><tspan x="11.9" dy="1.2em" class="st5">corresponding </tspan><tspan x="5.6" dy="1.2em" class="st5">original feature by </tspan><tspan x="11.71" dy="1.2em" class="st5">comparing the </tspan><tspan x="6.15" dy="1.2em" class="st5">assetID field from </tspan><tspan x="8.97" dy="1.2em" class="st5">the downloaded </tspan><tspan x="3.42" dy="1.2em" class="st5">feature class to the </tspan><tspan x="6.46" dy="1.2em" class="st5">GLOBALID field in </tspan><tspan x="4.48" dy="1.2em" class="st5">the </tspan>master feature <tspan x="26.39" dy="1.2em" class="st5">class. </tspan></text>		</g>
		<g id="shape1011-41" transform="translate(621,-198)">
			<title>Process.1028</title>
			<desc>Append the selected features to the target feature class.</desc>
			<rect x="0" y="558" width="72" height="54" class="st8"/>
			<text x="16.71" y="573" class="st2">Append the <tspan x="2.37" dy="1.2em" class="st5">selected features to </tspan><tspan x="6.39" dy="1.2em" class="st5">the target feature </tspan><tspan x="26.39" dy="1.2em" class="st5">class.</tspan></text>		</g>
		<g id="shape1012-47" transform="translate(189,-27)">
			<title>Process.1041</title>
			<desc>Review data updates by running data reviewer checks --See Video</desc>
			<rect x="0" y="540" width="72" height="72" class="st8"/>
			<text x="15.39" y="554.4" class="st2">Review data <tspan x="3.58" dy="1.2em" class="st5">updates by running </tspan><tspan x="13.13" dy="1.2em" class="st5">data reviewer </tspan><tspan x="24.17" dy="1.2em" class="st5">checks  </tspan><tspan x="17.18" dy="2.4em" class="st5">--</tspan>See Video</text>		</g>
		<g id="shape1014-54" transform="translate(189,-189)">
			<title>Process.1043</title>
			<desc>Verify that the updates were successfully posted to the maste...</desc>
			<rect x="0" y="540" width="72" height="72" class="st8"/>
			<text x="12.47" y="554.4" class="st2">Verify that the <tspan x="13.12" dy="1.2em" class="st5">updates were </tspan><tspan x="3.06" dy="1.2em" class="st5">successfully posted </tspan><tspan x="13.36" dy="1.2em" class="st5">to the master  </tspan><tspan x="17.18" dy="2.4em" class="st5">--</tspan>See Video</text>		</g>
		<g id="shape1015-61" transform="translate(81,-436.2)">
			<title>Dynamic connector</title>
			<path d="M-9 612 L-9 637.16" class="st6"/>
		</g>
		<g id="shape1018-66" transform="translate(126,-342)">
			<title>Dynamic connector.1018</title>
			<desc>Yes</desc>
			<path d="M0 603 L38.96 603" class="st6"/>
			<rect x="16.5216" y="598.2" width="11.957" height="9.59985" class="st9"/>
			<text x="16.52" y="605.4" class="st10">Yes</text>		</g>
		<g id="shape1017-73" transform="translate(18,-297)">
			<title>Decision.12.1017</title>
			<desc>Does the downloaded feature class exist in the Master GDB?</desc>
			<path d="M0 558 L54 504 L108 558 L54 612 L0 558 Z" class="st11"/>
			<text x="17.36" y="550.8" class="st12">Does the downloaded <tspan x="12.86" dy="1.2em" class="st5">feature class exist in the </tspan><tspan x="31.54" dy="1.2em" class="st5">Master GDB?</tspan></text>		</g>
		<g id="shape1019-78" transform="translate(36,-157.8)">
			<title>Process.15.1019</title>
			<desc>Create a new feature class with the same name and use the dow...</desc>
			<rect x="0" y="504" width="72" height="108" class="st8"/>
			<text x="13.83" y="522" class="st2">Create a new <tspan x="6.23" dy="1.2em" class="st5">feature class with </tspan><tspan x="2.16" dy="1.2em" class="st5">the same name and </tspan><tspan x="23.42" dy="1.2em" class="st5">use the </tspan><tspan x="2.25" dy="1.2em" class="st5">downloaded feature </tspan><tspan x="15.95" dy="1.2em" class="st5">class as the </tspan><tspan x="20.95" dy="1.2em" class="st5">template  </tspan><tspan x="16.18" dy="2.4em" class="st5">--</tspan> See Video</text>		</g>
		<g id="shape1020-88" transform="translate(63,-297)">
			<title>Dynamic connector.1020</title>
			<desc>No</desc>
			<path d="M9 612 L9 637.16" class="st6"/>
			<rect x="4.29297" y="622.8" width="9.41391" height="9.59985" class="st13"/>
			<text x="4.29" y="630" class="st10">No</text>		</g>
		<g id="shape1021-95" transform="translate(36,-94.8)">
			<title>Process.15.1021</title>
			<desc>Append the downloaded features to the new feature class</desc>
			<rect x="0" y="558" width="72" height="54" class="st8"/>
			<text x="16.71" y="573" class="st2">Append the <tspan x="15.44" dy="1.2em" class="st5">downloaded </tspan><tspan x="3.26" dy="1.2em" class="st5">features to the new </tspan><tspan x="14.2" dy="1.2em" class="st5">feature class</tspan></text>		</g>
		<g id="shape1022-101" transform="translate(63,-162.3)">
			<title>Dynamic connector.1022</title>
			<path d="M9 616.5 L9 619.46" class="st6"/>
		</g>
		<g id="shape1023-106" transform="translate(108,-27)">
			<title>Process.15.1023</title>
			<desc>Use the attribute data to either remove, or modify the newly ...</desc>
			<rect x="0" y="558" width="72" height="54" class="st8"/>
			<text x="7.73" y="568.2" class="st2">Use the attribute <tspan x="13.28" dy="1.2em" class="st5">data to either </tspan><tspan x="5.72" dy="1.2em" class="st5">remove, or modify </tspan><tspan x="2.01" dy="1.2em" class="st5">the newly appended </tspan><tspan x="20.95" dy="1.2em" class="st5">features.</tspan></text>		</g>
		<g id="shape1024-113" transform="translate(76.5,-96.9)">
			<title>Dynamic connector.1024</title>
			<path d="M-4.5 614.1 L-4.5 623.1 L-13.5 623.1 L-13.5 627.9" class="st14"/>
		</g>
		<g id="shape1025-119" transform="translate(171,-315)">
			<title>Process.15.1025</title>
			<desc>Connect to the Sub-Default Version of the Master Geodatabase ...</desc>
			<rect x="0" y="540" width="72" height="72" class="st8"/>
			<text x="2.72" y="554.4" class="st2">Connect to the Sub-<tspan x="5.86" dy="1.2em" class="st5">Default Version of </tspan><tspan x="17.69" dy="1.2em" class="st5">the Master </tspan><tspan x="8.63" dy="1.2em" class="st5">Geodatabase by </tspan><tspan x="13.36" dy="1.2em" class="st5">using the sde </tspan><tspan x="11.26" dy="1.2em" class="st5">connection file</tspan></text>		</g>
		<g id="shape1026-127" transform="translate(243,-342)">
			<title>Dynamic connector.1026</title>
			<path d="M0 603 L25.76 603" class="st6"/>
		</g>
		<g id="shape1027-132" transform="translate(369.978,-157.8)">
			<title>Decision.12.1027</title>
			<desc>Is the last_edited_date field on the downloaded feature more ...</desc>
			<path d="M0 558 L94.5 504 L189 558 L94.5 612 L0 558 Z" class="st11"/>
			<text x="35.85" y="550.8" class="st12">Is the last_edited_date field on the <tspan x="24.12" dy="1.2em" class="st5">downloaded feature more recent than the </tspan><tspan x="28.68" dy="1.2em" class="st5">same field in the master feature class?</tspan></text>		</g>
		<g id="shape1028-137" transform="translate(346.8,-342)">
			<title>Dynamic connector.1028</title>
			<path d="M0 603 L25.76 603" class="st6"/>
		</g>
		<g id="shape1029-142" transform="translate(450.6,-342)">
			<title>Dynamic connector.1029</title>
			<path d="M0 603 L20.36 603" class="st6"/>
		</g>
		<g id="shape1030-147" transform="translate(477,-324)">
			<title>Decision.12.1030</title>
			<desc>Is the assetID value Null?</desc>
			<path d="M0 585 L36 558 L72 585 L36 612 L0 585 Z" class="st11"/>
			<text x="12.95" y="582.6" class="st12">Is the assetID <tspan x="17.26" dy="1.2em" class="st5">value Null?</tspan></text>		</g>
		<g id="shape1031-151" transform="translate(513,-324)">
			<title>Dynamic connector.1031</title>
			<desc>No</desc>
			<path d="M0 612 L0 630 L-48.52 630 L-48.52 664.16" class="st6"/>
			<rect x="-40.0679" y="625.2" width="9.41391" height="9.59985" class="st13"/>
			<text x="-40.07" y="632.4" class="st10">No</text>		</g>
		<g id="shape1032-158" transform="translate(581.327,-287.939)">
			<title>Decision.12.1032</title>
			<desc>This is a new feature location. Is there a feature ID In the ...</desc>
			<path d="M0 548.94 L75.67 485.88 L151.35 548.94 L75.67 612 L0 548.94 Z" class="st11"/>
			<text x="20.58" y="541.74" class="st12">This is a new feature location.  Is <tspan x="17.7" dy="1.2em" class="st5">there a feature ID In the </tspan>‘MOVE TO <tspan x="38.55" dy="1.2em" class="st5">THIS LOCATION</tspan>’ field?</text>		</g>
		<g id="shape1033-163" transform="translate(549,-342)">
			<title>Dynamic connector.1033</title>
			<path d="M0 603 L26.29 603" class="st6"/>
		</g>
		<g id="shape1034-168" transform="translate(702,-198)">
			<title>Process.15.1034</title>
			<desc>Move the specified feature, from the master feature class, to...</desc>
			<rect x="0" y="522" width="72" height="90" class="st8"/>
			<text x="4.12" y="535.8" class="st2">Move the specified <tspan x="7.48" dy="1.2em" class="st5">feature, from the </tspan><tspan x="10.95" dy="1.2em" class="st5">master feature </tspan><tspan x="15.61" dy="1.2em" class="st5">class, to the </tspan><tspan x="11.19" dy="1.2em" class="st5">location of this </tspan><tspan x="12.14" dy="1.2em" class="st5">point from the </tspan><tspan x="2.25" dy="1.2em" class="st5">downloaded feature </tspan><tspan x="27.39" dy="1.2em" class="st5">class</tspan></text>		</g>
		<g id="shape1035-178" transform="translate(726.337,-351)">
			<title>Dynamic connector.1035</title>
			<desc>Yes</desc>
			<path d="M6.34 612 L11.66 612 L11.66 668.96" class="st6"/>
			<rect x="5.68489" y="636.037" width="11.957" height="9.59985" class="st13"/>
			<text x="5.68" y="643.24" class="st10">Yes</text>		</g>
		<g id="shape1036-185" transform="translate(702,-108)">
			<title>Process.15.1036</title>
			<desc>Delete the new point from the downloaded feature class since ...</desc>
			<rect x="0" y="540" width="72" height="72" class="st8"/>
			<text x="10.64" y="549.6" class="st2">Delete the new <tspan x="12.14" dy="1.2em" class="st5">point from the </tspan><tspan x="2.25" dy="1.2em" class="st5">downloaded feature </tspan><tspan x="11.03" dy="1.2em" class="st5">class since the </tspan><tspan x="10.95" dy="1.2em" class="st5">master feature </tspan><tspan x="6.02" dy="1.2em" class="st5">location has been </tspan><tspan x="21.96" dy="1.2em" class="st5">updated</tspan></text>		</g>
		<g id="shape1037-194" transform="translate(729,-198)">
			<title>Dynamic connector.1037</title>
			<path d="M9 612 L9 623.96" class="st6"/>
		</g>
		<g id="shape1038-199" transform="translate(648,-287.939)">
			<title>Dynamic connector.1038</title>
			<desc>No</desc>
			<path d="M9 612 L9 641.9" class="st6"/>
			<rect x="4.29297" y="625.17" width="9.41391" height="9.59985" class="st13"/>
			<text x="4.29" y="632.37" class="st10">No</text>		</g>
		<g id="shape1039-206" transform="translate(540,-90)">
			<title>Process.15.1039</title>
			<desc>Copy all of the attributes from the downloaded feature and pa...</desc>
			<rect x="0" y="540" width="72" height="72" class="st8"/>
			<text x="12.1" y="554.4" class="st2">Copy all of the <tspan x="4.38" dy="1.2em" class="st5">attributes from the </tspan><tspan x="2.25" dy="1.2em" class="st5">downloaded feature </tspan><tspan x="2.02" dy="1.2em" class="st5">and paste them into </tspan><tspan x="2.4" dy="1.2em" class="st5">the selected master </tspan><tspan x="22.81" dy="1.2em" class="st5">feature.</tspan></text>		</g>
		<g id="shape1040-214" transform="translate(558.489,-211.8)">
			<title>Dynamic connector.1040</title>
			<desc>Yes</desc>
			<path d="M0.49 612 L17.51 612 L17.51 655.76" class="st6"/>
			<rect x="11.5324" y="623.589" width="11.957" height="9.59985" class="st13"/>
			<text x="11.53" y="630.79" class="st10">Yes</text>		</g>
		<g id="shape1041-221" transform="translate(428.478,-72)">
			<title>Process.15.1041</title>
			<desc>No change needed on the original feature</desc>
			<rect x="0" y="558" width="72" height="54" class="st8"/>
			<text x="4.22" y="577.8" class="st2">No change needed <tspan x="11.88" dy="1.2em" class="st5">on the original </tspan><tspan x="23.81" dy="1.2em" class="st5">feature</tspan></text>		</g>
		<g id="shape1042-226" transform="translate(455.478,-157.8)">
			<title>Dynamic connector.1042</title>
			<desc>No</desc>
			<path d="M9 612 L9 637.76" class="st6"/>
			<rect x="4.29297" y="623.1" width="9.41391" height="9.59985" class="st13"/>
			<text x="4.29" y="630.3" class="st10">No</text>		</g>
		<g id="shape1044-233" transform="translate(333,-18)">
			<title>Decision.12.1044</title>
			<desc>Have all of the downloaded features been inspected?</desc>
			<path d="M0 567 L45 522 L90 567 L45 612 L0 567 Z" class="st11"/>
			<text x="20.73" y="555" class="st12">Have all of the <tspan x="24.44" dy="1.2em" class="st5">downloaded </tspan><tspan x="21.47" dy="1.2em" class="st5">features been </tspan><tspan x="26.49" dy="1.2em" class="st5">inspected?</tspan></text>		</g>
		<g id="shape1045-239" transform="translate(464.478,-76.5)">
			<title>Dynamic connector.1045</title>
			<path d="M0 616.5 L0 625.5 L-35.44 625.5" class="st6"/>
		</g>
		<g id="shape1046-244" transform="translate(576,-90)">
			<title>Dynamic connector.1046</title>
			<path d="M0 612 L0 639 L-146.96 639" class="st6"/>
		</g>
		<g id="shape1047-249" transform="translate(738,-108)">
			<title>Dynamic connector.1047</title>
			<path d="M0 612 L0 657 L-308.96 657" class="st6"/>
		</g>
		<g id="shape1048-254" transform="translate(657,-198)">
			<title>Dynamic connector.1048</title>
			<path d="M0 612 L0 747 L-227.96 747" class="st6"/>
		</g>
		<g id="shape1049-259" transform="translate(175.5,-49.5)">
			<title>Dynamic connector.1049</title>
			<path d="M4.5 607.5 L9 607.5 L9 598.5 L13.5 598.5" class="st14"/>
		</g>
		<g id="shape1050-264" transform="translate(333,-54)">
			<title>Dynamic connector.1050</title>
			<desc>Yes</desc>
			<path d="M0 603 L-65.96 603" class="st6"/>
			<rect x="-41.9784" y="598.2" width="11.957" height="9.59985" class="st13"/>
			<text x="-41.98" y="605.4" class="st10">Yes</text>		</g>
		<g id="shape1051-271" transform="translate(378,-108)">
			<title>Dynamic connector.1051</title>
			<desc>No</desc>
			<path d="M0 612 L0 566.7 L-12.52 566.7 L-12.52 441 L36.6 441 L36.6 438.04" class="st6"/>
			<rect x="-17.2288" y="498.9" width="9.41391" height="9.59985" class="st13"/>
			<text x="-17.23" y="506.1" class="st10">No</text>		</g>
		<g id="shape1052-278" transform="translate(216,-99)">
			<title>Dynamic connector.1052</title>
			<path d="M9 612 L9 600.04" class="st6"/>
		</g>
		<g id="shape1053-283" transform="translate(189,-276.9)">
			<title>Start/End.11.1053</title>
			<desc>END</desc>
			<path d="M13.5 612 L58.5 612 A13.5 13.5 -180 0 0 58.5 585 L13.5 585 A13.5 13.5 -180 1 0 13.5 612 Z" class="st11"/>
			<text x="28.59" y="600.9" class="st12">END</text>		</g>
		<g id="shape1054-286" transform="translate(216,-259.95)">
			<title>Dynamic connector.1054</title>
			<path d="M9 610.95 L9 601.09" class="st6"/>
		</g>
		<g id="shape1056-291" transform="translate(216,-171)">
			<title>Dynamic connector.1056</title>
			<path d="M9 612 L9 600.04" class="st6"/>
		</g>
		<g id="shape1055-296" transform="translate(189,-117)">
			<title>Process.15.1055</title>
			<desc>Reconcile and Post the changes with the Default Version --See...</desc>
			<rect x="0" y="558" width="72" height="54" class="st8"/>
			<text x="3.74" y="568.2" class="st2">Reconcile and Post <tspan x="7.35" dy="1.2em" class="st5">the changes with </tspan><tspan x="3.66" dy="1.2em" class="st5">the Default Version  </tspan><tspan x="17.18" dy="2.4em" class="st5">--</tspan>See Video</text>		</g>
		<g id="shape1057-302" transform="translate(27,-27)">
			<title>Process.15.1057</title>
			<desc>Enable Editor Tracking on the new feature class</desc>
			<rect x="0" y="558" width="72" height="54" class="st8"/>
			<text x="13.48" y="577.8" class="st2">Enable Editor <tspan x="2.08" dy="1.2em" class="st5">Tracking on the new </tspan><tspan x="14.2" dy="1.2em" class="st5">feature class</tspan></text>		</g>
		<g id="shape1058-307" transform="translate(94.5,-45)">
			<title>Dynamic connector.1058</title>
			<path d="M4.5 603 L7.46 603" class="st6"/>
		</g>
	</g>
</svg>
