<?xml version="1.0" encoding="UTF-8" standalone="no"?>
<!DOCTYPE svg PUBLIC "-//W3C//DTD SVG 1.1//EN" "http://www.w3.org/Graphics/SVG/1.1/DTD/svg11.dtd">
<!-- Generated by Microsoft Visio, SVG Export svg_1.svg Overview -->
<svg xmlns="http://www.w3.org/2000/svg" xmlns:xlink="http://www.w3.org/1999/xlink" xmlns:ev="http://www.w3.org/2001/xml-events" width="8.5in" height="11in" viewBox="0 0 612 792" xml:space="preserve" color-interpolation-filters="sRGB" class="st21">
	<style type="text/css">
	<![CDATA[
		.st1 {fill:#ffffff;stroke:#dfa202;stroke-linecap:round;stroke-linejoin:round;stroke-width:1}
		.st2 {fill:#7c5b02;font-family:Franklin Gothic Book;font-size:1.16666em}
		.st3 {marker-end:url(#mrkr4-9);stroke:#6bae2f;stroke-linecap:round;stroke-linejoin:round;stroke-width:0.5}
		.st4 {fill:#6bae2f;fill-opacity:1;stroke:#6bae2f;stroke-opacity:1;stroke-width:0.16556291390728}
		.st5 {fill:#ffffff;stroke:none;stroke-linecap:butt;stroke-width:7.2}
		.st6 {fill:#528722;font-family:Franklin Gothic Book;font-size:0.666664em}
		.st7 {fill:#7c5b02;font-family:Franklin Gothic Book;font-size:1.00001em}
		.st8 {font-size:1em}
		.st9 {visibility:visible}
		.st10 {fill:#000000;fill-opacity:0.4;filter:url(#filter_2.6666667461395);stroke:#000000;stroke-linecap:round;stroke-linejoin:round;stroke-opacity:0.4}
		.st11 {fill:#9cc882;stroke:#ffffff;stroke-linecap:round;stroke-linejoin:round;stroke-width:1}
		.st12 {fill:#ffffff;font-family:Franklin Gothic Book;font-size:1.16666em}
		.st13 {fill:#000000;fill-opacity:0.4;filter:url(#filter_2.6666667461395)}
		.st14 {fill:none;filter:url(#filter_2.6666667461395);stroke:#000000;stroke-linecap:round;stroke-linejoin:round;stroke-opacity:0.4}
		.st15 {fill:#9cc882}
		.st16 {stroke:#ffffff;stroke-linecap:round;stroke-linejoin:round;stroke-width:1}
		.st17 {fill:#000000;fill-opacity:0.2;filter:url(#filter_4);stroke:#000000;stroke-linecap:round;stroke-linejoin:round;stroke-opacity:0.2}
		.st18 {fill:#7eb6aa;stroke:#ffffff;stroke-linecap:round;stroke-linejoin:round;stroke-width:1}
		.st19 {fill:#ffffff}
		.st20 {stroke:#dfa202;stroke-linecap:round;stroke-linejoin:round;stroke-width:1}
		.st21 {fill:none;fill-rule:evenodd;font-size:12px;overflow:visible;stroke-linecap:square;stroke-miterlimit:3}
	]]>
	</style>

	<defs id="Markers">
		<g id="lend4">
			<path d="M 2 1 L 0 0 L 2 -1 L 2 1 " style="stroke:none"/>
		</g>
		<marker id="mrkr4-9" class="st4" refX="-12.08" orient="auto" markerUnits="strokeWidth" overflow="visible">
			<use xlink:href="#lend4" transform="scale(-6.04,-6.04) "/>
		</marker>
	</defs>
	<defs id="Filters">
		<filter id="filter_2.6666667461395">
			<feGaussianBlur stdDeviation="2.6666667461395"/>
		</filter>
		<filter id="filter_4">
			<feGaussianBlur stdDeviation="4"/>
		</filter>
	</defs>
	<g>
		<title>Overview</title>
		<g id="shape1019-1" transform="translate(126,-705.969)">
			<title>Start/End.1039</title>
			<desc>START</desc>
			<path d="M13.34 792 L58.66 792 A13.3412 13.3412 -180 0 0 58.66 765.32 L13.34 765.32 A13.3412 13.3412 -180 1 0 13.34 792&#xA;						 Z" class="st1"/>
			<text x="17.18" y="782.86" class="st2">START</text>		</g>
		<g id="shape1020-4" transform="translate(153,-705.969)">
			<title>Dynamic connector.1040</title>
			<path d="M9 792 L9 812.43" class="st3"/>
		</g>
		<g id="shape1030-10" transform="translate(450,-339.539)">
			<title>Dynamic connector.1020</title>
			<desc>No</desc>
			<path d="M0 792 L26.92 792 L26.92 710.08" class="st3"/>
			<rect x="22.2115" y="756.679" width="9.41391" height="9.59985" class="st5"/>
			<text x="22.21" y="763.88" class="st6">No</text>		</g>
		<g id="shape1062-17" transform="translate(440.919,-625.659)">
			<title>Start/End.1053</title>
			<desc>END</desc>
			<path d="M13.34 792 L58.66 792 A13.3412 13.3412 -180 0 0 58.66 765.32 L13.34 765.32 A13.3412 13.3412 -180 1 0 13.34 792&#xA;						 Z" class="st1"/>
			<text x="24.89" y="782.26" class="st7">END</text>		</g>
		<g id="shape1067-20" transform="translate(308.413,-269.579)">
			<title>Decision.1017</title>
			<desc>Does the downloaded feature class exist in the Master GDB?</desc>
			<path d="M0 722.04 L70.79 652.08 L141.59 722.04 L70.79 792 L0 722.04 Z" class="st1"/>
			<text x="44.41" y="692.64" class="st2">Does the <tspan x="34.81" dy="1.2em" class="st8">downloaded </tspan><tspan x="17.27" dy="1.2em" class="st8">feature class exist </tspan><tspan x="31.59" dy="1.2em" class="st8">in the Master </tspan><tspan x="53.97" dy="1.2em" class="st8">GDB?</tspan></text>		</g>
		<g id="shape1108-27" transform="translate(467.919,-571.5)">
			<title>Dynamic connector.1108</title>
			<path d="M9 792 L9 743.88" class="st3"/>
		</g>
		<g id="shape1107-32" transform="translate(416.169,-427.5)">
			<title>Process.15.1107</title>
			<desc>Consult the GIS Data Standards and Procedures Documentation f...</desc>
			<g id="shadow1107-33" transform="matrix(1,0,0,1,2.12132,2.12132)" class="st9">
				<rect x="0" y="648" width="121.5" height="144" class="st10"/>
			</g>
			<rect x="0" y="648" width="121.5" height="144" class="st11"/>
			<text x="15.12" y="665.4" class="st12">Consult the GIS <tspan x="14.49" dy="1.2em" class="st8">Data Standards </tspan><tspan x="14.21" dy="1.2em" class="st8">and Procedures </tspan><tspan x="5.56" dy="1.2em" class="st8">Documentation for </tspan><tspan x="13.71" dy="1.2em" class="st8">steps on adding </tspan><tspan x="4.23" dy="1.2em" class="st8">this new data class </tspan><tspan x="38.23" dy="1.2em" class="st8">into the </tspan><tspan x="20.6" dy="1.2em" class="st8">geodatabase.</tspan></text>		</g>
		<a xlink:href="../Collector for ArcGIS Guide_0618205.docx" xlink:title="Collector for ArcGIS Guide_0618205.docx" target="_top">
			<g id="shape1119-45" transform="translate(400.419,-63)">
				<title>Subprocess.13.1119</title>
				<desc>Field Collection using Collector for ArcGIS on iOS -- Documen...</desc>
				<g id="shadow1119-46" transform="matrix(1,0,0,1,2.12132,2.12132)" class="st9">
					<path d="M0 792 L171 792 L171 720 L0 720 L0 792 Z" class="st13"/>
					<path d="M0 792 L171 792 L171 720 L0 720 L0 792" class="st14"/>
					<path d="M9 792 L9 720" class="st14"/>
					<path d="M162 792 L162 720" class="st14"/>
				</g>
				<path d="M0 792 L171 792 L171 720 L0 720 L0 792 Z" class="st15"/>
				<path d="M0 792 L171 792 L171 720 L0 720 L0 792" class="st16"/>
				<path d="M9 792 L9 720" class="st16"/>
				<path d="M162 792 L162 720" class="st16"/>
				<text x="22.93" y="735" class="st12">Field Collection using <tspan x="19.28" dy="1.2em" class="st8">Collector for ArcGIS on </tspan><tspan x="75.49" dy="1.2em" class="st8">iOS </tspan><tspan x="21.78" dy="1.2em" class="st8">--</tspan> Document Attached</text>			</g>
		</a>
		<g id="shape1123-61" transform="translate(409.94,-648)">
			<title>Dynamic connector.1123</title>
			<path d="M0 801 L24.94 801" class="st3"/>
		</g>
		<a xlink:href="svg_7.htm">
			<g id="shape1122-66" transform="translate(259.19,-589.5)">
				<title>Subprocess.13.1122</title>
				<desc>Procedure for incorporating the data changes into the Sub-Def...</desc>
				<g id="shadow1122-67" transform="matrix(1,0,0,1,2.12132,2.12132)" class="st9">
					<path d="M0 792 L150.75 792 L150.75 693 L0 693 L0 792 Z" class="st13"/>
					<path d="M0 792 L150.75 792 L150.75 693 L0 693 L0 792" class="st14"/>
					<path d="M9 792 L9 693" class="st14"/>
					<path d="M141.75 792 L141.75 693" class="st14"/>
				</g>
				<path d="M0 792 L150.75 792 L150.75 693 L0 693 L0 792 Z" class="st15"/>
				<path d="M0 792 L150.75 792 L150.75 693 L0 693 L0 792" class="st16"/>
				<path d="M9 792 L9 693" class="st16"/>
				<path d="M141.75 792 L141.75 693" class="st16"/>
				<text x="35.31" y="704.7" class="st12">Procedure for <tspan x="25.07" dy="1.2em" class="st8">incorporating the </tspan><tspan x="11.17" dy="1.2em" class="st8">data changes into the </tspan><tspan x="17.43" dy="1.2em" class="st8">Sub</tspan>-Default version <tspan x="35.84" dy="1.2em" class="st8">of the Master </tspan><tspan x="35.89" dy="1.2em" class="st8">Geodatabase</tspan></text>			</g>
		</a>
		<g id="shape1127-84" transform="translate(146.25,-418.5)">
			<title>Dynamic connector.1127</title>
			<path d="M9 792 L9 810.71" class="st3"/>
		</g>
		<g id="shape1126-89" transform="translate(111.375,-418.5)">
			<title>Data.14.1126</title>
			<desc>Example Feature Class</desc>
			<g id="shadow1126-90" transform="matrix(1,0,0.352242,0.228748,-278.975,610.831)" class="st9">
				<path d="M-13.5 792 L74.25 792 L101.25 738 L13.5 738 L-13.5 792 Z" class="st17"/>
			</g>
			<path d="M-13.5 792 L74.25 792 L101.25 738 L13.5 738 L-13.5 792 Z" class="st18"/>
			<text x="18.68" y="752.4" class="st12">Example <tspan x="21.08" dy="1.2em" class="st8">Feature </tspan><tspan x="28.02" dy="1.2em" class="st8">Class</tspan></text>		</g>
		<g id="shape1129-97" transform="translate(164.209,-162)">
			<title>Dynamic connector.1129</title>
			<path d="M-8.96 792 L-8.96 801 L-9.04 801 L-9.04 803.96" class="st3"/>
		</g>
		<g id="shape1128-102" transform="translate(111.375,-162)">
			<title>Data.14.1128</title>
			<desc>Example Feature Layer</desc>
			<g id="shadow1128-103" transform="matrix(1,0,0.352242,0.228748,-278.975,610.831)" class="st9">
				<path d="M-13.5 792 L74.25 792 L101.25 738 L13.5 738 L-13.5 792 Z" class="st17"/>
			</g>
			<path d="M-13.5 792 L74.25 792 L101.25 738 L13.5 738 L-13.5 792 Z" class="st18"/>
			<text x="18.68" y="752.4" class="st12">Example <tspan x="21.08" dy="1.2em" class="st8">Feature </tspan><tspan x="27.89" dy="1.2em" class="st8">Layer</tspan></text>		</g>
		<g id="shape1130-110" transform="translate(476.919,-135)">
			<title>Dynamic connector.1130</title>
			<path d="M9 792 L9 780.04" class="st3"/>
		</g>
		<g id="shape1133-115" transform="translate(162,-589.5)">
			<title>Dynamic connector.1133</title>
			<path d="M0 792 L0 801 L-37.13 801 L-37.13 812.43" class="st3"/>
		</g>
		<a xlink:href="svg_2.htm">
			<g id="shape1132-120" transform="translate(86.625,-589.5)">
				<title>Subprocess.13.1132</title>
				<desc>ArcPro is used to build a feature service schema that is deri...</desc>
				<g id="shadow1132-121" transform="matrix(1,0,0,1,2.12132,2.12132)" class="st9">
					<path d="M0 792 L150.75 792 L150.75 702 L0 702 L0 792 Z" class="st13"/>
					<path d="M0 792 L150.75 792 L150.75 702 L0 702 L0 792" class="st14"/>
					<path d="M9 792 L9 702" class="st14"/>
					<path d="M141.75 792 L141.75 702" class="st14"/>
				</g>
				<path d="M0 792 L150.75 792 L150.75 702 L0 702 L0 792 Z" class="st15"/>
				<path d="M0 792 L150.75 792 L150.75 702 L0 702 L0 792" class="st16"/>
				<path d="M9 792 L9 702" class="st16"/>
				<path d="M141.75 792 L141.75 702" class="st16"/>
				<text x="25.86" y="717.6" class="st12">ArcPro is used to <tspan x="32.3" dy="1.2em" class="st8">build a feature </tspan><tspan x="15.9" dy="1.2em" class="st8">service schema that </tspan><tspan x="20.06" dy="1.2em" class="st8">is derived from the </tspan><tspan x="14.48" dy="1.2em" class="st8">master geodatabase</tspan></text>			</g>
		</a>
		<g id="shape1135-137" transform="translate(146.25,-322.875)">
			<title>Dynamic connector.1135</title>
			<path d="M9 793.13 L9 802.83" class="st3"/>
		</g>
		<a xlink:href="svg_3.htm">
			<g id="shape1134-142" transform="translate(76.5,-321.75)">
				<title>Subprocess.13.1134</title>
				<desc>ArcPro is used to symbolize and publish a hosted feature laye...</desc>
				<g id="shadow1134-143" transform="matrix(1,0,0,1,2.12132,2.12132)" class="st9">
					<path d="M0 792 L157.5 792 L157.5 720 L0 720 L0 792 Z" class="st13"/>
					<path d="M0 792 L157.5 792 L157.5 720 L0 720 L0 792" class="st14"/>
					<path d="M9 792 L9 720" class="st14"/>
					<path d="M148.5 792 L148.5 720" class="st14"/>
				</g>
				<path d="M0 792 L157.5 792 L157.5 720 L0 720 L0 792 Z" class="st15"/>
				<path d="M0 792 L157.5 792 L157.5 720 L0 720 L0 792" class="st16"/>
				<path d="M9 792 L9 720" class="st16"/>
				<path d="M148.5 792 L148.5 720" class="st16"/>
				<text x="29.23" y="735" class="st12">ArcPro is used to <tspan x="13.38" dy="1.2em" class="st8">symbolize and publish </tspan><tspan x="14.06" dy="1.2em" class="st8">a hosted feature layer </tspan><tspan x="31.01" dy="1.2em" class="st8">to ArcGIS Online</tspan></text>			</g>
		</a>
		<g id="shape1137-158" transform="translate(238.419,-90)">
			<title>Dynamic connector.1137</title>
			<path d="M0 783 L29.96 783" class="st3"/>
		</g>
		<a xlink:href="svg_5.htm">
			<g id="shape1136-163" transform="translate(71.9186,-54)">
				<title>Subprocess.13.1136</title>
				<desc>Webmap is created in ArcGIS Online with offline mode enabled ...</desc>
				<g id="shadow1136-164" transform="matrix(1,0,0,1,2.12132,2.12132)" class="st9">
					<path d="M0 792 L166.5 792 L166.5 702 L0 702 L0 792 Z" class="st13"/>
					<path d="M0 792 L166.5 792 L166.5 702 L0 702 L0 792" class="st14"/>
					<path d="M9 792 L9 702" class="st14"/>
					<path d="M157.5 792 L157.5 702" class="st14"/>
				</g>
				<path d="M0 792 L166.5 792 L166.5 702 L0 702 L0 792 Z" class="st15"/>
				<path d="M0 792 L166.5 792 L166.5 702 L0 702 L0 792" class="st16"/>
				<path d="M9 792 L9 702" class="st16"/>
				<path d="M157.5 792 L157.5 702" class="st16"/>
				<text x="19" y="717.6" class="st12">Webmap is created in <tspan x="29.12" dy="1.2em" class="st8">ArcGIS Online with </tspan><tspan x="20.59" dy="1.2em" class="st8">offline mode enabled </tspan><tspan x="15.37" dy="1.2em" class="st8">and editing enabled on </tspan><tspan x="51.04" dy="1.2em" class="st8">layer views</tspan></text>			</g>
		</a>
		<g id="shape1139-180" transform="translate(371.169,-90)">
			<title>Dynamic connector.1139</title>
			<path d="M0 783 L23.21 783" class="st3"/>
		</g>
		<g id="shape1138-185" transform="translate(274.419,-72)">
			<title>Data.14.1138</title>
			<desc>Example Web Map</desc>
			<g id="shadow1138-186" transform="matrix(1,0,0.352242,0.228748,-278.975,610.831)" class="st9">
				<path d="M-13.5 792 L83.25 792 L110.25 738 L13.5 738 L-13.5 792 Z" class="st17"/>
			</g>
			<path d="M-13.5 792 L83.25 792 L110.25 738 L13.5 738 L-13.5 792 Z" class="st18"/>
			<text x="23.18" y="760.8" class="st12">Example <tspan x="20.39" dy="1.2em" class="st8">Web Map</tspan></text>		</g>
		<g id="shape1141-192" transform="translate(379.206,-409.5)">
			<title>Dynamic connector.1141</title>
			<desc>Yes</desc>
			<path d="M0 792 L0 774 L-44.64 774 L-44.64 618.04" class="st3"/>
			<rect x="-50.6195" y="719.521" width="11.957" height="9.59985" class="st5"/>
			<text x="-50.62" y="726.72" class="st6">Yes</text>		</g>
		<g id="shape1145-199" transform="translate(416.169,-180)">
			<title>Dynamic connector.1145</title>
			<path d="M0 783 L-46.23 783" class="st3"/>
		</g>
		<a xlink:href="svg_6.htm">
			<g id="shape1144-204" transform="translate(416.169,-153)">
				<title>Subprocess.13.1144</title>
				<desc>Field Data – Downloaded from ArcGIS Online</desc>
				<g id="shadow1144-205" transform="matrix(1,0,0,1,2.12132,2.12132)" class="st9">
					<path d="M0 792 L139.5 792 L139.5 720 L0 720 L0 792 Z" class="st13"/>
					<path d="M0 792 L139.5 792 L139.5 720 L0 720 L0 792" class="st14"/>
					<path d="M9 792 L9 720" class="st14"/>
					<path d="M130.5 792 L130.5 720" class="st14"/>
				</g>
				<path d="M0 792 L139.5 792 L139.5 720 L0 720 L0 792 Z" class="st15"/>
				<path d="M0 792 L139.5 792 L139.5 720 L0 720 L0 792" class="st16"/>
				<path d="M9 792 L9 720" class="st16"/>
				<path d="M130.5 792 L130.5 720" class="st16"/>
				<text x="33.88" y="743.4" class="st12">Field Data – <tspan x="17.52" dy="1.2em" class="st8">Downloaded from </tspan><tspan x="29.56" dy="1.2em" class="st8">ArcGIS Online</tspan></text>			</g>
		</a>
		<g id="shape1147-219" transform="translate(322.794,-216)">
			<title>Dynamic connector.1147</title>
			<path d="M0 792 L0 774 L56.41 774 L56.41 744.46" class="st3"/>
		</g>
		<g id="shape1146-224" transform="translate(281.69,-162)">
			<title>Data.14.1146</title>
			<desc>FGDB</desc>
			<g id="shadow1146-225" transform="matrix(1,0,0.352242,0.228748,-278.975,610.831)" class="st9">
				<path d="M-13.5 792 L68.71 792 L95.71 738 L13.5 738 L-13.5 792 Z" class="st17"/>
			</g>
			<path d="M-13.5 792 L68.71 792 L95.71 738 L13.5 738 L-13.5 792 Z" class="st18"/>
			<text x="24.26" y="769.2" class="st12">FGDB</text>		</g>
		<g id="shape1148-230" transform="translate(90,-510.718)">
			<title>Subprocess.13.1148</title>
			<desc>Editor Tracking Enabled</desc>
			<path d="M0 792 L69.75 792 L69.75 739.69 L0 739.69 L0 792 Z" class="st19"/>
			<path d="M0 792 L69.75 792 L69.75 739.69 L0 739.69 L0 792" class="st20"/>
			<path d="M9 792 L9 739.69" class="st20"/>
			<path d="M60.75 792 L60.75 739.69" class="st20"/>
			<text x="20.04" y="755.04" class="st7">Editor <tspan x="13.44" dy="1.2em" class="st8">Tracking </tspan><tspan x="14.21" dy="1.2em" class="st8">Enabled</tspan></text>		</g>
		<g id="shape1150-238" transform="translate(174.897,-510.718)">
			<title>Subprocess.1150</title>
			<desc>Attachments Enabled</desc>
			<path d="M0 792 L87.75 792 L87.75 739.69 L0 739.69 L0 792 Z" class="st19"/>
			<path d="M0 792 L87.75 792 L87.75 739.69 L0 739.69 L0 792" class="st20"/>
			<path d="M9 792 L9 739.69" class="st20"/>
			<path d="M78.75 792 L78.75 739.69" class="st20"/>
			<text x="11.87" y="762.24" class="st7">Attachments <tspan x="23.21" dy="1.2em" class="st8">Enabled</tspan></text>		</g>
		<g id="shape1151-245" transform="translate(158.323,-527.874)">
			<title>Dynamic connector.1151</title>
			<path d="M1.43 783 L10.53 783" class="st3"/>
		</g>
		<g id="shape1152-250" transform="translate(218.772,-510.718)">
			<title>Dynamic connector.1152</title>
			<path d="M0 792 L0 810 L-63.52 810 L-63.52 824.18" class="st3"/>
		</g>
		<g id="shape1154-255" transform="translate(164.25,-234)">
			<title>Dynamic connector.1154</title>
			<path d="M-9 792 L-9 803.96" class="st3"/>
		</g>
		<a xlink:href="svg_4.htm">
			<g id="shape1153-260" transform="translate(76.5,-234)">
				<title>Subprocess.13.1153</title>
				<desc>Settings are configured on the Layer in AGOL</desc>
				<g id="shadow1153-261" transform="matrix(1,0,0,1,2.12132,2.12132)" class="st9">
					<path d="M0 792 L157.5 792 L157.5 720 L0 720 L0 792 Z" class="st13"/>
					<path d="M0 792 L157.5 792 L157.5 720 L0 720 L0 792" class="st14"/>
					<path d="M9 792 L9 720" class="st14"/>
					<path d="M148.5 792 L148.5 720" class="st14"/>
				</g>
				<path d="M0 792 L157.5 792 L157.5 720 L0 720 L0 792 Z" class="st15"/>
				<path d="M0 792 L157.5 792 L157.5 720 L0 720 L0 792" class="st16"/>
				<path d="M9 792 L9 720" class="st16"/>
				<path d="M148.5 792 L148.5 720" class="st16"/>
				<text x="43.33" y="743.4" class="st12">Settings are <tspan x="26.9" dy="1.2em" class="st8">configured on the </tspan><tspan x="37.74" dy="1.2em" class="st8">Layer in AGOL</tspan></text>			</g>
		</a>
	</g>
</svg>
