<?xml version="1.0" encoding="UTF-8" standalone="no"?>
<!DOCTYPE svg PUBLIC "-//W3C//DTD SVG 1.1//EN" "http://www.w3.org/Graphics/SVG/1.1/DTD/svg11.dtd">
<!-- Generated by Microsoft Visio, SVG Export svg_1.svg Create WebMap -->
<svg xmlns="http://www.w3.org/2000/svg" xmlns:xlink="http://www.w3.org/1999/xlink" xmlns:ev="http://www.w3.org/2001/xml-events" width="11in" height="8.5in" viewBox="0 0 792 612" xml:space="preserve" color-interpolation-filters="sRGB" class="st13">
	<style type="text/css">
	<![CDATA[
		.st1 {fill:#ffffff;stroke:#dfa202;stroke-linecap:round;stroke-linejoin:round;stroke-width:1}
		.st2 {fill:#7c5b02;font-family:Franklin Gothic Book;font-size:1.00001em}
		.st3 {fill:#9cc882;stroke:#ffffff;stroke-linecap:round;stroke-linejoin:round;stroke-width:1}
		.st4 {fill:#ffffff;font-family:Franklin Gothic Book;font-size:1.00001em}
		.st5 {font-size:1em}
		.st6 {marker-end:url(#mrkr4-26);stroke:#6bae2f;stroke-linecap:round;stroke-linejoin:round;stroke-width:0.5}
		.st7 {fill:#6bae2f;fill-opacity:1;stroke:#6bae2f;stroke-opacity:1;stroke-width:0.16556291390728}
		.st8 {fill:#ffffff;stroke:none;stroke-linecap:butt}
		.st9 {fill:#528722;font-family:Franklin Gothic Book;font-size:1.00001em}
		.st10 {fill:#ffffff;stroke:none;stroke-linecap:butt;stroke-width:7.2}
		.st11 {font-size:1em;font-weight:bold}
		.st12 {font-family:Symbol;font-size:1em}
		.st13 {fill:none;fill-rule:evenodd;font-size:12px;overflow:visible;stroke-linecap:square;stroke-miterlimit:3}
	]]>
	</style>

	<defs id="Markers">
		<g id="lend4">
			<path d="M 2 1 L 0 0 L 2 -1 L 2 1 " style="stroke:none"/>
		</g>
		<marker id="mrkr4-26" class="st7" refX="-12.08" orient="auto" markerUnits="strokeWidth" overflow="visible">
			<use xlink:href="#lend4" transform="scale(-6.04,-6.04) "/>
		</marker>
	</defs>
	<g>
		<title>Create WebMap</title>
		<g id="shape1000-1" transform="translate(110.25,-544.5)">
			<title>Start/End.11.1000</title>
			<desc>START</desc>
			<path d="M13.5 612 L58.5 612 A13.5 13.5 -180 0 0 58.5 585 L13.5 585 A13.5 13.5 -180 1 0 13.5 612 Z" class="st1"/>
			<text x="19.87" y="602.1" class="st2">START</text>		</g>
		<g id="shape1001-4" transform="translate(97.875,-414)">
			<title>Process.15.1001</title>
			<desc>Add the published layer to a new Web Map - See Video</desc>
			<rect x="0" y="522" width="96.75" height="90" class="st3"/>
			<text x="2.68" y="541.8" class="st4">Add the published <tspan x="13.24" dy="1.2em" class="st5">layer to a new </tspan><tspan x="24.39" dy="1.2em" class="st5">Web Map  </tspan><tspan x="20.14" dy="2.4em" class="st5">-</tspan> See Video</text>		</g>
		<g id="shape1002-10" transform="translate(76.5,-234)">
			<title>Decision.12.1002</title>
			<desc>Did you create a Layer View for collecting new features?</desc>
			<path d="M0 542.25 L69.75 472.5 L139.5 542.25 L69.75 612 L0 542.25 Z" class="st1"/>
			<text x="28.69" y="524.25" class="st2">Did you create a <tspan x="34.45" dy="1.2em" class="st5">Layer View for </tspan><tspan x="33.88" dy="1.2em" class="st5">collecting new </tspan><tspan x="45.64" dy="1.2em" class="st5">features?</tspan></text>		</g>
		<g id="shape1003-16" transform="translate(110.25,-130.5)">
			<title>Process.15.1003</title>
			<desc>Add the View to the webmap</desc>
			<rect x="0" y="558" width="72" height="54" class="st3"/>
			<text x="3.41" y="574.2" class="st4">Add the View <tspan x="21.33" dy="1.2em" class="st5">to the </tspan><tspan x="14.41" dy="1.2em" class="st5">webmap</tspan></text>		</g>
		<g id="shape1004-21" transform="translate(137.25,-234)">
			<title>Dynamic connector.1004</title>
			<desc>Yes</desc>
			<path d="M9 612 L9 655.46" class="st6"/>
			<rect x="0.0319519" y="629.55" width="17.936" height="14.4001" class="st8"/>
			<text x="0.03" y="640.35" class="st9">Yes</text>		</g>
		<g id="shape1005-29" transform="translate(137.25,-544.5)">
			<title>Dynamic connector.1005</title>
			<path d="M9 612 L9 646.46" class="st6"/>
		</g>
		<g id="shape1006-34" transform="translate(137.25,-414)">
			<title>Dynamic connector.1006</title>
			<path d="M9 612 L9 646.46" class="st6"/>
		</g>
		<g id="shape1007-39" transform="translate(263.25,-249.75)">
			<title>Process.15.1007</title>
			<desc>Add the Aerial Imagery 1ft Web Mercator as the basemap - See ...</desc>
			<rect x="0" y="504" width="96.75" height="108" class="st3"/>
			<text x="13.24" y="525.6" class="st4">Add the Aerial <tspan x="6.87" dy="1.2em" class="st5">Imagery 1ft Web </tspan><tspan x="8.34" dy="1.2em" class="st5">Mercator as the </tspan><tspan x="24.81" dy="1.2em" class="st5">basemap  </tspan><tspan x="20.14" dy="2.4em" class="st5">-</tspan> See Video</text>		</g>
		<g id="shape1008-46" transform="translate(216,-312.75)">
			<title>Dynamic connector.1008</title>
			<desc>No</desc>
			<path d="M0 621 L41.21 621" class="st6"/>
			<rect x="16.5644" y="613.8" width="14.1213" height="14.4001" class="st10"/>
			<text x="16.56" y="624.6" class="st9">No</text>		</g>
		<g id="shape1009-53" transform="translate(146.25,-130.5)">
			<title>Dynamic connector.1009</title>
			<path d="M0 612 L0 630 L165.37 630 L165.37 498.79" class="st6"/>
		</g>
		<g id="shape1011-58" transform="translate(302.625,-357.75)">
			<title>Dynamic connector.1011</title>
			<path d="M9 612 L9 552.79" class="st6"/>
		</g>
		<g id="shape1012-63" transform="translate(540,-198)">
			<title>Process.15.1012</title>
			<desc>Share the web map with the Web Map Group. When prompted to up...</desc>
			<rect x="0" y="414" width="117" height="198" class="st3"/>
			<text x="9.27" y="430.2" class="st4">Share the web map <tspan x="12.85" dy="1.2em" class="st5">with the Web Map </tspan><tspan x="24.05" dy="1.2em" class="st5">Group.  When </tspan><tspan x="8.12" dy="1.2em" class="st5">prompted to update </tspan><tspan x="12.46" dy="1.2em" class="st5">the sharing on the </tspan><tspan x="16.96" dy="1.2em" class="st5">layers select </tspan><tspan class="st11">No</tspan>.  <tspan x="5.32" dy="2.4em" class="st5"> </tspan>Verify that all people <tspan x="8.5" dy="1.2em" class="st5">doing the Collection </tspan><tspan x="8.09" dy="1.2em" class="st5">have been added to </tspan><tspan x="7.31" dy="1.2em" class="st5">the Web Map group.  </tspan><tspan x="30.27" dy="2.4em" class="st5">-</tspan> See Video</text>		</g>
		<g id="shape1014-77" transform="translate(396,-135)">
			<title>Process.15.1014</title>
			<desc>Open the Settings page for the Web Map and select the followi...</desc>
			<rect x="0" y="288" width="117" height="324" class="st3"/>
			<text x="2" y="309.08" class="st4">Open the Settings <tspan x="2" dy="1.2em" class="st5">page for the Web Map </tspan><tspan x="2" dy="1.2em" class="st5">and select the </tspan><tspan x="2" dy="1.2em" class="st5">following.  </tspan><tspan x="2" dy="2.422em" class="st12">·</tspan><tspan class="st12"> </tspan>Prevent this item <tspan x="20" dy="1.207em" class="st5">from being </tspan><tspan x="20" dy="1.2em" class="st5">accidentally </tspan><tspan x="20" dy="1.2em" class="st5">deleted  </tspan><tspan x="2" dy="2.422em" class="st12">·</tspan><tspan class="st12"> </tspan>Verify that Enable <tspan x="20" dy="1.207em" class="st5">Offline Mode is </tspan><tspan x="20" dy="1.2em" class="st5">checked  </tspan><tspan x="2" dy="2.422em" class="st12">·</tspan><tspan class="st12"> </tspan>In the Advanced <tspan x="20" dy="1.207em" class="st5">Options verify that </tspan><tspan x="20" dy="1.2em" class="st5">all options are </tspan><tspan x="20" dy="1.2em" class="st5">checked for </tspan><tspan x="20" dy="1.2em" class="st5">retrieving features </tspan><tspan x="20" dy="1.2em" class="st5">and attachments </tspan><tspan x="20" dy="1.2em" class="st5">from the server</tspan></text>		</g>
		<g id="shape1016-100" transform="translate(513,-288)">
			<title>Dynamic connector.1016</title>
			<path d="M0 603 L20.96 603" class="st6"/>
		</g>
		<a xlink:href="svg_1.htm">
			<g id="shape1017-105" transform="translate(684,-283.5)">
				<title>Start/End.11.1017</title>
				<desc>END</desc>
				<path d="M13.5 612 L58.5 612 A13.5 13.5 -180 0 0 58.5 585 L13.5 585 A13.5 13.5 -180 1 0 13.5 612 Z" class="st1"/>
				<text x="24.89" y="602.1" class="st2">END</text>			</g>
		</a>
		<g id="shape1018-108" transform="translate(657,-306)">
			<title>Dynamic connector.1018</title>
			<path d="M0 621 L20.96 621" class="st6"/>
		</g>
		<g id="shape1020-113" transform="translate(347.625,-450)">
			<title>Dynamic connector.1020</title>
			<path d="M0 612 L30.38 612 L30.38 765 L42.34 765" class="st6"/>
		</g>
		<g id="shape1019-118" transform="translate(275.625,-423)">
			<title>Process.15.1019</title>
			<desc>Save the Web Map</desc>
			<rect x="0" y="558" width="72" height="54" class="st3"/>
			<text x="13.88" y="581.4" class="st4">Save the <tspan x="12.01" dy="1.2em" class="st5">Web Map</tspan></text>		</g>
	</g>
</svg>
